<svg width="1391" height="1338" viewBox="0 0 1391 1338" fill="none" xmlns="http://www.w3.org/2000/svg">
<path d="M59.5906 3.15583L1387.15 3.47587C1383.06 5.03967 1378.98 6.58011 1374.89 8.14391C1372.39 9.09946 1369.9 10.0584 1367.4 11.0209C1203.24 74.4484 1080 152.179 1007.91 237.773C935.812 323.366 916.931 414.36 952.829 503.215C978.697 567.481 1018.74 627.873 1080.67 663.997C1546.45 935.676 1096.34 1243.7 970.484 1329.94C968.253 1331.5 965.962 1333.07 963.612 1334.61L44.9336 1334.39C33.8277 1334.38 23.1956 1332.66 15.3763 1329.59C7.55695 1326.52 3.19085 1322.36 3.23859 1318.03L17.5356 19.4942C17.5834 15.1583 22.041 11.001 29.9278 7.937C37.8146 4.87296 48.4847 3.15317 59.5906 3.15583Z" fill="#074F57"/>
<path d="M367.556 182.343C367.698 169.444 341.029 158.981 307.991 158.973C274.952 158.964 248.055 169.414 247.913 182.313C247.772 195.211 274.44 205.674 307.479 205.682C340.517 205.691 367.415 195.241 367.556 182.343Z" fill="#BFCACB"/>
<path d="M567.673 481.336C567.701 478.757 562.368 476.664 555.76 476.662C549.152 476.661 543.773 478.751 543.745 481.33C543.716 483.91 549.05 486.003 555.658 486.004C562.265 486.006 567.645 483.916 567.673 481.336Z" fill="#074F57"/>
<path d="M798.366 719.615C798.394 717.035 793.06 714.943 786.452 714.941C779.845 714.939 774.465 717.029 774.437 719.609C774.409 722.189 779.742 724.281 786.35 724.283C792.958 724.285 798.337 722.195 798.366 719.615Z" fill="#074F57"/>
<path d="M490.383 983.45C490.411 980.87 485.078 978.777 478.47 978.776C471.862 978.774 466.483 980.864 466.455 983.444C466.426 986.023 471.76 988.116 478.368 988.117C484.975 988.119 490.355 986.029 490.383 983.45Z" fill="#FF6584"/>
<path d="M192.505 871.271C192.533 868.691 187.2 866.598 180.592 866.597C173.984 866.595 168.605 868.685 168.577 871.265C168.548 873.845 173.882 875.937 180.49 875.939C187.097 875.94 192.477 873.851 192.505 871.271Z" fill="white"/>
<path d="M135.25 91.1998C135.279 88.62 129.945 86.5274 123.337 86.5258C116.729 86.5241 111.35 88.614 111.322 91.1938C111.293 93.7735 116.627 95.8661 123.235 95.8677C129.843 95.8694 135.222 93.7795 135.25 91.1998Z" fill="white"/>
<path d="M336.007 331.806C336.035 329.227 330.702 327.134 324.094 327.132C317.486 327.131 312.107 329.221 312.079 331.8C312.05 334.38 317.384 336.473 323.992 336.474C330.599 336.476 335.979 334.386 336.007 331.806Z" fill="white"/>
<path d="M724.866 876.075C724.894 873.495 719.56 871.403 712.952 871.401C706.345 871.399 700.965 873.489 700.937 876.069C700.909 878.649 706.242 880.741 712.85 880.743C719.458 880.745 724.837 878.655 724.866 876.075Z" fill="white"/>
<path d="M685.055 1233.4C685.083 1230.82 679.75 1228.72 673.142 1228.72C666.534 1228.72 661.155 1230.81 661.126 1233.39C661.098 1235.97 666.432 1238.06 673.039 1238.06C679.647 1238.07 685.027 1235.98 685.055 1233.4Z" fill="#FF6584"/>
<path d="M813.122 1058.17L814.055 1062.58L825.081 1063.58L814.635 1065.3L815.574 1069.71L808.181 1066.37L797.735 1068.09L803.609 1064.31L796.216 1060.97L807.242 1061.96L813.122 1058.17Z" fill="white"/>
<path d="M185.184 495.162L186.116 499.567L197.143 500.565L186.697 502.29L187.636 506.695L180.242 503.356L169.797 505.082L175.671 501.293L168.277 497.953L179.304 498.951L185.184 495.162Z" fill="white"/>
<path d="M672.655 229.037L673.588 233.442L684.614 234.44L674.168 236.165L675.107 240.571L667.714 237.231L657.268 238.957L663.142 235.168L655.749 231.829L666.775 232.826L672.655 229.037Z" fill="white"/>
<path d="M529.639 724.127L530.572 728.532L541.598 729.53L531.152 731.256L532.091 735.661L524.697 732.321L514.252 734.047L520.126 730.258L512.732 726.919L523.759 727.916L529.639 724.127Z" fill="white"/>
<path d="M1059.77 932.119L1060.71 936.524L1071.73 937.522L1061.29 939.248L1062.22 943.653L1054.83 940.313L1044.39 942.039L1050.26 938.25L1042.87 934.911L1053.89 935.908L1059.77 932.119Z" fill="white"/>
<path d="M351.139 1181.84L352.072 1186.25L363.098 1187.24L352.652 1188.97L353.591 1193.37L346.197 1190.03L335.752 1191.76L341.626 1187.97L334.232 1184.63L345.259 1185.63L351.139 1181.84Z" fill="white"/>
<path d="M827.645 1251.16C824.402 1253.72 818.868 1255.72 812.098 1256.79C805.328 1257.86 797.794 1257.93 790.933 1256.97C784.071 1256.01 778.361 1254.1 774.891 1251.6C771.42 1249.1 770.432 1246.18 772.114 1243.41C773.796 1240.64 778.031 1238.2 784.012 1236.56C789.992 1234.92 797.301 1234.19 804.545 1234.52C811.789 1234.85 818.463 1236.2 823.294 1238.33C828.125 1240.46 830.776 1243.21 830.742 1246.05C830.72 1247.83 829.661 1249.57 827.645 1251.16ZM783.821 1248.31C784.573 1249.19 785.761 1249.99 787.316 1250.68C788.87 1251.37 790.761 1251.93 792.878 1252.33C796.611 1253.05 800.871 1253.23 804.925 1252.86C808.98 1252.48 812.581 1251.57 815.116 1250.28C817.651 1248.99 818.961 1247.39 818.824 1245.77C818.687 1244.14 817.112 1242.59 814.365 1241.37C811.619 1240.16 807.873 1239.35 803.765 1239.09C799.657 1238.83 795.442 1239.14 791.839 1239.96C788.235 1240.78 785.466 1242.06 784.004 1243.58C782.542 1245.11 782.477 1246.78 783.821 1248.31Z" fill="#E6E6E6"/>
<path d="M567.325 172.852C567.311 175.726 564.587 178.501 559.673 180.648C554.759 182.795 547.999 184.164 540.682 184.493C533.366 184.822 526.005 184.088 520.004 182.432C514.004 180.776 509.783 178.313 508.147 175.513C506.511 172.713 507.575 169.772 511.135 167.251C514.695 164.731 520.503 162.807 527.45 161.846C534.398 160.886 541.999 160.956 548.802 162.044C555.606 163.131 561.137 165.16 564.34 167.744C566.314 169.335 567.335 171.082 567.325 172.852ZM519.442 172.856C519.425 174.379 520.678 175.86 523.011 177.077C525.345 178.293 528.632 179.179 532.376 179.6C536.12 180.02 540.117 179.953 543.764 179.409C547.411 178.864 550.509 177.872 552.591 176.581C554.672 175.291 555.623 173.773 555.301 172.256C554.978 170.739 553.4 169.306 550.803 168.174C548.207 167.041 544.734 166.271 540.909 165.979C537.084 165.687 533.115 165.89 529.603 166.556C526.573 167.132 524.012 168.028 522.216 169.142C520.421 170.255 519.459 171.542 519.442 172.856Z" fill="#E6E6E6"/>
<path d="M808.741 324.667C801.5 324.159 795.001 322.628 790.483 320.365C785.965 318.102 783.745 315.266 784.246 312.398C784.748 309.53 787.935 306.831 793.201 304.815C798.467 302.799 805.442 301.607 812.797 301.468C820.151 301.329 827.369 302.251 833.075 304.059C838.781 305.867 842.574 308.434 843.732 311.271C844.889 314.108 843.33 317.015 839.351 319.439C835.373 321.863 829.253 323.633 822.16 324.412C817.79 324.893 813.202 324.98 808.741 324.667ZM817.438 306.271C813.604 305.999 809.642 306.221 806.152 306.905C802.661 307.589 799.831 308.697 798.09 310.062C796.349 311.427 795.79 312.974 796.5 314.47C797.209 315.966 799.147 317.33 802.021 318.355C804.895 319.38 808.549 320.01 812.431 320.151C816.313 320.293 820.211 319.936 823.537 319.137C826.864 318.337 829.437 317.138 830.868 315.719C832.299 314.301 832.51 312.741 831.47 311.275C830.569 310.011 828.776 308.87 826.296 307.986C823.815 307.102 820.747 306.507 817.438 306.271Z" fill="#E6E6E6"/>
</svg>
