<svg width="1396" height="1344" viewBox="0 0 1396 1344" fill="none" xmlns="http://www.w3.org/2000/svg">
<path d="M1336.15 1334.9L8.60316 1339.55C12.6824 1337.97 16.7615 1336.41 20.8407 1334.83C23.338 1333.87 25.8321 1332.9 28.323 1331.93C192.249 1267.89 315.192 1189.7 386.966 1103.83C458.741 1017.97 477.28 926.906 441.05 838.186C414.942 774.017 374.677 713.775 312.609 677.883C-154.183 407.95 294.768 98.2477 420.302 11.5343C422.527 9.96168 424.811 8.38889 427.155 6.83924L1345.83 3.62234C1356.93 3.58345 1367.57 5.26866 1375.4 8.30719C1383.23 11.3457 1387.62 15.4887 1387.58 19.8247L1378.15 1318.4C1378.12 1322.74 1373.67 1326.91 1365.8 1330.01C1357.92 1333.1 1347.26 1334.86 1336.15 1334.9Z" fill="#074F57"/>
<path d="M1027.52 1156.87C1027.43 1169.76 1054.13 1180.13 1087.17 1180.01C1120.21 1179.9 1147.07 1169.35 1147.16 1156.45C1147.26 1143.55 1120.55 1133.19 1087.51 1133.3C1054.47 1133.42 1027.61 1143.97 1027.52 1156.87Z" fill="#BFCACB"/>
<path d="M826.286 858.623C826.267 861.203 831.609 863.275 838.216 863.252C844.824 863.229 850.196 861.119 850.214 858.539C850.233 855.96 844.891 853.887 838.284 853.91C831.676 853.933 826.304 856.043 826.286 858.623Z" fill="#074F57"/>
<path d="M594.703 621.209C594.684 623.789 600.026 625.862 606.633 625.839C613.241 625.815 618.613 623.705 618.631 621.126C618.65 618.546 613.308 616.473 606.701 616.496C600.093 616.519 594.721 618.629 594.703 621.209Z" fill="#074F57"/>
<path d="M901.695 356.224C901.676 358.804 907.018 360.876 913.626 360.853C920.233 360.83 925.605 358.72 925.624 356.14C925.642 353.561 920.301 351.488 913.693 351.511C907.085 351.534 901.714 353.644 901.695 356.224Z" fill="#FF6584"/>
<path d="M1199.99 467.287C1199.97 469.867 1205.31 471.939 1211.92 471.916C1218.53 471.893 1223.9 469.783 1223.92 467.203C1223.94 464.624 1218.6 462.551 1211.99 462.574C1205.38 462.597 1200.01 464.707 1199.99 467.287Z" fill="white"/>
<path d="M1260.16 1247.14C1260.15 1249.72 1265.49 1251.79 1272.1 1251.77C1278.7 1251.74 1284.07 1249.63 1284.09 1247.05C1284.11 1244.48 1278.77 1242.4 1272.16 1242.43C1265.56 1242.45 1260.18 1244.56 1260.16 1247.14Z" fill="white"/>
<path d="M1058.51 1007.28C1058.49 1009.86 1063.83 1011.94 1070.44 1011.91C1077.05 1011.89 1082.42 1009.78 1082.44 1007.2C1082.46 1004.62 1077.12 1002.55 1070.51 1002.57C1063.9 1002.59 1058.53 1004.7 1058.51 1007.28Z" fill="white"/>
<path d="M667.617 464.475C667.598 467.055 672.94 469.128 679.547 469.105C686.155 469.081 691.527 466.971 691.545 464.392C691.564 461.812 686.223 459.739 679.615 459.762C673.007 459.785 667.636 461.895 667.617 464.475Z" fill="white"/>
<path d="M706.09 107.007C706.071 109.587 711.412 111.66 718.02 111.637C724.628 111.613 729.999 109.503 730.018 106.924C730.037 104.344 724.695 102.271 718.088 102.294C711.48 102.317 706.108 104.427 706.09 107.007Z" fill="#FF6584"/>
<path d="M578.68 282.707L577.731 278.306L566.701 277.349L577.14 275.584L576.185 271.183L583.591 274.495L594.03 272.73L588.17 276.541L595.576 279.852L584.546 278.896L578.68 282.707Z" fill="white"/>
<path d="M1208.72 843.366L1207.77 838.964L1196.74 838.008L1207.18 836.243L1206.23 831.842L1213.63 835.153L1224.07 833.388L1218.21 837.199L1225.62 840.511L1214.59 839.555L1208.72 843.366Z" fill="white"/>
<path d="M722.248 1111.31L721.299 1106.91L710.269 1105.96L720.708 1104.19L719.753 1099.79L727.159 1103.1L737.598 1101.34L731.738 1105.15L739.144 1108.46L728.114 1107.5L722.248 1111.31Z" fill="white"/>
<path d="M863.41 615.691L862.461 611.29L851.431 610.333L861.871 608.569L860.915 604.167L868.321 607.479L878.76 605.714L872.9 609.525L880.306 612.837L869.276 611.88L863.41 615.691Z" fill="white"/>
<path d="M332.502 409.685L331.553 405.283L320.523 404.327L330.962 402.562L330.007 398.161L337.413 401.472L347.852 399.707L341.992 403.518L349.398 406.83L338.368 405.874L332.502 409.685Z" fill="white"/>
<path d="M1040.2 157.313L1039.25 152.912L1028.22 151.955L1038.66 150.19L1037.7 145.789L1045.11 149.101L1055.55 147.336L1049.69 151.147L1057.09 154.458L1046.06 153.502L1040.2 157.313Z" fill="white"/>
<path d="M563.434 89.7757C566.667 87.2077 572.194 85.1827 578.96 84.0866C585.726 82.9906 593.259 82.9 600.124 83.8322C606.99 84.7644 612.707 86.6542 616.186 89.1416C619.666 91.629 620.666 94.54 618.994 97.3201C617.322 100.1 613.097 102.555 607.122 104.217C601.148 105.879 593.842 106.632 586.596 106.332C579.351 106.032 572.673 104.701 567.834 102.592C562.995 100.482 560.333 97.7426 560.357 94.8943C560.371 93.1233 561.424 91.3724 563.434 89.7757ZM607.269 92.4588C606.514 91.5904 605.323 90.7912 603.765 90.1074C602.208 89.4236 600.315 88.8688 598.196 88.4751C594.461 87.7748 590.201 87.6049 586.148 87.9944C582.094 88.3839 578.496 89.3087 575.967 90.6111C573.437 91.9135 572.132 93.5129 572.275 95.1366C572.418 96.7603 574 98.3077 576.75 99.515C579.501 100.722 583.25 101.515 587.359 101.757C591.468 102 595.682 101.677 599.282 100.845C602.883 100.013 605.647 98.7217 607.103 97.1924C608.56 95.6631 608.618 93.9901 607.269 92.4588Z" fill="#E6E6E6"/>
<path d="M827.787 1167.1C827.791 1164.23 830.505 1161.44 835.411 1159.28C840.317 1157.11 847.071 1155.72 854.387 1155.36C861.702 1155.01 869.065 1155.71 875.072 1157.35C881.079 1158.98 885.309 1161.43 886.956 1164.22C888.602 1167.02 887.549 1169.96 883.998 1172.49C880.447 1175.03 874.647 1176.97 867.703 1177.96C860.759 1178.95 853.158 1178.9 846.35 1177.84C839.542 1176.78 834.004 1174.77 830.791 1172.2C828.811 1170.62 827.784 1168.87 827.787 1167.1ZM875.671 1166.92C875.682 1165.4 874.423 1163.92 872.085 1162.71C869.747 1161.51 866.457 1160.63 862.712 1160.23C858.966 1159.82 854.969 1159.9 851.324 1160.46C847.679 1161.02 844.584 1162.02 842.508 1163.32C840.431 1164.62 839.486 1166.14 839.814 1167.65C840.142 1169.17 841.726 1170.6 844.327 1171.72C846.927 1172.84 850.403 1173.6 854.229 1173.88C858.055 1174.16 862.023 1173.94 865.533 1173.26C868.561 1172.67 871.118 1171.77 872.91 1170.65C874.701 1169.52 875.658 1168.23 875.671 1166.92Z" fill="#E6E6E6"/>
<path d="M585.805 1016.19C593.049 1016.67 599.554 1018.18 604.08 1020.43C608.606 1022.67 610.837 1025.5 610.346 1028.37C609.855 1031.24 606.678 1033.95 601.42 1035.99C596.161 1038.02 589.191 1039.24 581.837 1039.41C574.483 1039.57 567.261 1038.68 561.549 1036.89C555.837 1035.11 552.034 1032.55 550.865 1029.72C549.697 1026.89 551.246 1023.97 555.215 1021.54C559.185 1019.1 565.298 1017.3 572.388 1016.5C576.756 1016 581.344 1015.9 585.805 1016.19ZM577.177 1034.62C581.013 1034.88 584.974 1034.64 588.462 1033.95C591.95 1033.25 594.775 1032.13 596.511 1030.76C598.248 1029.39 598.8 1027.84 598.085 1026.34C597.37 1024.85 595.427 1023.49 592.549 1022.48C589.671 1021.47 586.015 1020.85 582.132 1020.72C578.25 1020.6 574.353 1020.97 571.03 1021.78C567.707 1022.59 565.138 1023.8 563.713 1025.22C562.287 1026.65 562.081 1028.21 563.127 1029.67C564.033 1030.93 565.83 1032.06 568.314 1032.94C570.797 1033.81 573.868 1034.4 577.177 1034.62Z" fill="#E6E6E6"/>
</svg>
