<svg width="915" height="978" viewBox="0 0 915 978" fill="none" xmlns="http://www.w3.org/2000/svg">
<path d="M632.445 717.437H747.059C749.949 717.437 752.3 714.863 752.3 711.7C752.3 708.537 749.949 705.965 747.059 705.965H632.444C629.555 705.965 627.205 708.537 627.205 711.7C627.205 714.863 629.555 717.437 632.445 717.437Z" fill="#021E25"/>
<path d="M837.141 748.144C837.141 749.175 836.385 750.002 835.444 750.002H544.062C543.12 750.002 542.364 749.175 542.364 748.144C542.364 747.114 543.12 746.286 544.062 746.286H835.444C836.385 746.286 837.141 747.114 837.141 748.144Z" fill="#7D9296"/>
<path d="M222.371 373.786C171.168 373.786 129.66 328.349 129.66 272.3C129.66 216.251 171.168 170.814 222.371 170.814C273.573 170.814 315.081 216.251 315.081 272.3C315.081 328.349 273.573 373.786 222.371 373.786Z" fill="#021E25"/>
<path d="M915 876.384C915 877.415 914.244 878.242 913.303 878.242H168.352C167.411 878.242 166.655 877.415 166.655 876.384C166.655 875.354 167.411 874.526 168.352 874.526H913.303C914.244 874.526 915 875.354 915 876.384Z" fill="#7D9296"/>
<path d="M904.224 750.914L906.607 748.055L674.027 515.736L590.233 556.855L499.747 386.993L425.404 347.767L356.523 473.434C319.336 368.046 226.073 257.787 114.32 145.921L111.571 148.357C216.384 258.203 306.062 368.548 356.955 480.17L420.667 363.591C423.677 358.084 430.002 355.956 435.318 358.664C475.954 379.362 509.849 413.147 532.471 455.502L589.152 561.626L602.09 555.277C645.362 534.044 696.019 542.943 731.048 577.933L904.224 750.914Z" fill="#E9F4EE"/>
<path d="M109.077 167.071L112.608 167.34L118.306 153.822L131.063 150.986L131.559 147.149L110.53 143.878L109.077 167.071Z" fill="#021E25"/>
<path d="M471.866 249.781L459.364 197.169L410.659 194.604L396.087 267.128L471.866 249.781Z" fill="#9D5E5E"/>
<path d="M439.818 226.612C407.35 226.612 381.03 197.8 381.03 162.26C381.03 126.719 407.35 97.9077 439.818 97.9077C472.285 97.9077 498.605 126.719 498.605 162.26C498.605 197.8 472.285 226.612 439.818 226.612Z" fill="#9D5E5E"/>
<path d="M407.382 175.881C407.382 175.881 429.715 127.445 455.881 130.241C482.047 133.038 495.832 136.439 495.832 136.439C495.832 136.439 503.599 98.7142 467.031 84.2036C467.031 84.2036 513.526 34.0322 458.17 9.42092C402.813 -15.1904 371.837 16.1982 371.837 16.1982C371.837 16.1982 330.861 60.9761 382.469 94.4435C382.469 94.4435 344.148 150.868 390.544 197.374C390.544 197.374 380.167 159.74 390.995 166.681C401.822 173.621 407.382 175.881 407.382 175.881Z" fill="#15141C"/>
<path d="M504.679 515.879L512.499 524.083L568.991 656.679L575.175 876.001H480.26L435.736 767.39L405.737 874.953H320.395L300.611 679.694L353.793 541.602L504.679 515.879Z" fill="#043A43"/>
<path d="M406.356 244.434H469.743L538.691 285.05L522.613 363.572C522.613 363.572 526.323 410.957 517.666 446.157C509.008 481.356 512.719 527.387 512.719 527.387L353.793 541.602L348.846 381.849L351.32 274.896L406.356 244.434Z" fill="#021E25"/>
<path d="M528.178 285.727C528.178 285.727 566.518 287.08 572.702 314.157C578.886 341.234 583.833 480.68 583.833 480.68C583.833 480.68 580.123 563.424 538.691 524.083C497.259 484.741 500.969 365.603 500.969 365.603L528.178 285.727Z" fill="#074F57"/>
<path d="M156.304 976.439H382.245C389.896 976.439 396.122 969.625 396.122 961.248V705.569C396.122 697.192 389.896 690.377 382.245 690.377H156.304C148.651 690.377 142.426 697.192 142.426 705.569V961.248C142.426 969.625 148.651 976.439 156.304 976.439Z" fill="#7D9296"/>
<path d="M156.304 978H382.245C390.683 978 397.549 970.485 397.549 961.248V705.568C397.549 696.331 390.683 688.816 382.245 688.816H156.304C147.865 688.816 141 696.331 141 705.568V961.248C141 970.485 147.866 978 156.304 978ZM382.245 691.939C389.111 691.939 394.696 698.053 394.696 705.568V961.248C394.696 968.763 389.111 974.877 382.245 974.877H156.304C149.438 974.877 143.853 968.763 143.853 961.248V705.568C143.853 698.053 149.438 691.939 156.304 691.939H382.245Z" fill="#3F3D56"/>
<path d="M260.358 909.269H278.98C281.247 909.269 283.092 907.711 283.092 905.795V818.031C283.092 816.115 281.247 814.556 278.98 814.556H260.358C258.091 814.556 256.246 816.115 256.246 818.031V905.795C256.246 907.711 258.091 909.269 260.358 909.269Z" fill="#021E25"/>
<path d="M321.924 857.549C323.756 857.549 325.247 858.808 325.247 860.356V905.697C325.247 907.245 323.756 908.504 321.924 908.504H303.302C301.471 908.504 299.98 907.245 299.98 905.697V860.356C299.98 858.808 301.471 857.549 303.302 857.549H321.924Z" fill="#021E25"/>
<path d="M217.414 909.269H236.036C238.303 909.269 240.147 907.711 240.147 905.795V761.965C240.147 760.049 238.303 758.491 236.036 758.491H217.414C215.146 758.491 213.302 760.049 213.302 761.965V905.795C213.302 907.711 215.146 909.269 217.414 909.269Z" fill="#021E25"/>
<path d="M618.149 278.809H639.42C642.01 278.809 644.117 277.028 644.117 274.84V174.588C644.117 172.4 642.01 170.619 639.42 170.619H618.149C615.559 170.619 613.452 172.4 613.452 174.588V274.84C613.452 277.028 615.559 278.809 618.149 278.809Z" fill="#021E25"/>
<path d="M688.475 219.729C690.567 219.729 692.27 221.168 692.27 222.936V274.728C692.27 276.496 690.567 277.935 688.475 277.935H667.203C665.11 277.935 663.408 276.496 663.408 274.728V222.936C663.408 221.168 665.11 219.729 667.203 219.729H688.475Z" fill="#021E25"/>
<path d="M569.094 278.809H590.366C592.956 278.809 595.062 277.029 595.062 274.84V110.545C595.062 108.357 592.956 106.576 590.366 106.576H569.094C566.504 106.576 564.397 108.357 564.397 110.545V274.84C564.397 277.029 566.504 278.809 569.094 278.809Z" fill="#021E25"/>
<path d="M303.913 727.578C292.895 726.423 285.308 710.126 286.966 691.168C287.533 683.585 289.751 676.261 293.434 669.809L295.558 648.353L295.233 648.246L289.895 546.514C288.654 522.86 297.208 499.616 313.688 484.257C323.491 475.119 333.949 470.493 340.675 482.038C351.834 501.195 337.379 580.162 327.887 625.058L324.207 673.034C326.707 680.135 327.617 687.789 326.86 695.355C325.205 714.306 314.931 728.733 303.913 727.578Z" fill="#9D5E5E"/>
<path d="M364.924 277.603C364.924 277.603 332.768 264.065 317.926 304.68C303.085 345.295 287.007 545.664 287.007 545.664L362.45 530.772L364.924 277.603Z" fill="#074F57"/>
<path d="M806.469 257.738H849.768C852.658 257.738 855.009 255.164 855.009 252.001C855.009 248.838 852.658 246.265 849.768 246.265H806.469C803.58 246.265 801.23 248.838 801.23 252.001C801.23 255.164 803.58 257.738 806.469 257.738Z" fill="#E6E6E6"/>
<path d="M806.469 176.425H849.768C852.658 176.425 855.009 173.851 855.009 170.688C855.009 167.525 852.658 164.953 849.768 164.953H806.469C803.58 164.953 801.23 167.525 801.23 170.688C801.23 173.851 803.58 176.425 806.469 176.425Z" fill="#E6E6E6"/>
<path d="M806.469 117.786H849.768C852.658 117.786 855.009 115.213 855.009 112.05C855.009 108.887 852.658 106.314 849.768 106.314H806.469C803.58 106.314 801.23 108.886 801.23 112.05C801.23 115.213 803.58 117.786 806.469 117.786Z" fill="#E6E6E6"/>
<path d="M856.746 279.092C856.746 280.123 855.99 280.95 855.048 280.95H563.666C562.725 280.95 561.969 280.123 561.969 279.092C561.969 278.062 562.725 277.234 563.666 277.234H855.048C855.99 277.234 856.746 278.062 856.746 279.092Z" fill="#3F3D56"/>
<path d="M294.777 759.98C294.777 761.011 294.021 761.838 293.079 761.838H1.69729C0.755961 761.838 -3.246e-05 761.011 -3.246e-05 759.98C-3.246e-05 758.95 0.755961 758.122 1.69729 758.122H293.079C294.021 758.122 294.777 758.95 294.777 759.98Z" fill="#7D9296"/>
<path d="M380.356 911.429C380.356 912.459 379.6 913.287 378.659 913.287H87.2764C86.3351 913.287 85.5791 912.459 85.5791 911.429C85.5791 910.398 86.3351 909.571 87.2764 909.571H378.659C379.6 909.571 380.356 910.398 380.356 911.429Z" fill="#7D9296"/>
<path d="M576.297 269.699C587.314 270.854 594.902 287.152 593.244 306.109C592.677 313.692 590.459 321.016 586.776 327.468L584.652 348.924L584.977 349.031L590.315 450.764C591.556 474.418 583.002 497.661 566.522 513.021C556.719 522.158 546.26 526.784 539.535 515.24C528.376 496.083 542.83 417.115 552.322 372.22L556.003 324.244C553.503 317.142 552.593 309.488 553.35 301.923C555.005 282.972 565.279 268.545 576.297 269.699Z" fill="#9D5E5E"/>
</svg>
