<svg width="1154" height="884" viewBox="0 0 1154 884" fill="none" xmlns="http://www.w3.org/2000/svg">
<path d="M481.696 156.768C460.528 156.768 443.367 138.247 443.367 115.399C443.367 92.5513 460.528 74.0295 481.696 74.0295C502.864 74.0295 520.024 92.5513 520.024 115.399C520.024 138.247 502.864 156.768 481.696 156.768Z" fill="#F2F2F2"/>
<path d="M260.48 85.316C261.76 84.4215 263.053 83.5733 264.333 82.7097C301.309 57.9041 340.942 37.7524 382.413 22.6707L392.029 161.811H452.988V2.35961C456.825 1.5268 460.692 0.740269 464.559 0V161.811H537.001C576.881 161.811 615.128 145.193 643.327 115.614C671.527 86.0355 687.369 45.9179 687.369 4.08708C691.251 4.96615 695.103 5.90677 698.955 6.90922V161.811H757.959L767.119 29.1327C809.736 46.2766 850.195 68.8216 887.596 96.2659C888.243 96.7285 888.89 97.2066 889.522 97.6693C892.771 100.06 895.976 102.496 899.167 104.964V635.783H725.274L728.347 591.136L745.255 345.999H404.747L421.655 591.136L424.728 635.783H252.761V90.683C255.32 88.8632 257.893 87.0742 260.48 85.316ZM698.955 305.515H748.049L757.121 173.963H698.955V305.515ZM464.559 305.515H547.014V302.909C547.014 301.656 547.249 300.415 547.707 299.258C548.164 298.101 548.835 297.049 549.68 296.164C550.526 295.279 551.529 294.577 552.633 294.099C553.737 293.621 554.92 293.376 556.115 293.378H591.961C593.154 293.377 594.336 293.624 595.439 294.102C596.541 294.581 597.543 295.283 598.387 296.168C599.231 297.054 599.9 298.104 600.357 299.261C600.813 300.418 601.048 301.657 601.047 302.909V305.515H687.369V173.963H464.559V305.515ZM452.988 305.515V173.963H392.867L401.938 305.515H452.988Z" fill="#71C9CE"/>
<path d="M1154 670.621C1141.26 686.336 1127.48 701.104 1112.76 714.818L41.2426 716.345C26.5224 702.631 12.7413 687.862 1.3392e-05 672.147L1154 670.621Z" fill="#3F3D56"/>
<path d="M426.793 526.679V657.787C426.792 659.458 426.153 661.06 425.017 662.242C423.882 663.423 422.342 664.087 420.735 664.089H233.957C232.35 664.087 230.81 663.423 229.675 662.242C228.539 661.06 227.9 659.458 227.899 657.787V526.679C227.903 525.009 228.542 523.41 229.678 522.23C230.813 521.05 232.352 520.386 233.957 520.384H420.735C422.34 520.386 423.879 521.05 425.014 522.23C426.15 523.41 426.789 525.009 426.793 526.679Z" fill="#3F3D56"/>
<path d="M424.723 530.301V658.534C424.721 659.429 424.379 660.287 423.77 660.92C423.162 661.553 422.337 661.91 421.477 661.911H237.361C236.501 661.91 235.676 661.553 235.068 660.92C234.46 660.287 234.117 659.429 234.116 658.534V530.301C234.116 529.404 234.458 528.545 235.066 527.91C235.674 527.276 236.5 526.918 237.361 526.916H421.477C422.339 526.918 423.164 527.276 423.772 527.91C424.381 528.545 424.723 529.404 424.723 530.301Z" fill="#021E25"/>
<path d="M432.173 686.557C431.827 687.022 431.389 687.397 430.889 687.654C430.389 687.91 429.842 688.042 429.289 688.039H227.464C226.912 688.039 226.367 687.906 225.869 687.65C225.371 687.395 224.932 687.024 224.584 686.563C224.236 686.103 223.989 685.565 223.859 684.989C223.729 684.413 223.72 683.813 223.834 683.233L226.967 667.253C227.096 666.601 227.376 665.994 227.78 665.488C228.184 664.982 228.699 664.593 229.279 664.356C229.699 664.179 230.146 664.088 230.597 664.089H426.168C426.619 664.088 427.066 664.179 427.486 664.356C428.066 664.593 428.581 664.982 428.985 665.488C429.389 665.994 429.668 666.601 429.798 667.253L432.931 683.233C433.043 683.813 433.032 684.412 432.901 684.987C432.77 685.562 432.521 686.099 432.173 686.557Z" fill="#2F2E41"/>
<path d="M239.606 670.621H234.84C234.44 670.621 234.115 670.431 234.115 670.198V668.866C234.115 668.633 234.44 668.443 234.84 668.443H239.606C240.006 668.443 240.331 668.633 240.331 668.866V670.198C240.331 670.431 240.006 670.621 239.606 670.621Z" fill="#3F3D56"/>
<path d="M252.037 670.621H247.27C246.87 670.621 246.546 670.431 246.546 670.198V668.866C246.546 668.633 246.87 668.443 247.27 668.443H252.037C252.437 668.443 252.761 668.633 252.761 668.866V670.198C252.761 670.431 252.437 670.621 252.037 670.621Z" fill="#3F3D56"/>
<path d="M264.468 670.621H259.702C259.302 670.621 258.978 670.431 258.978 670.198V668.866C258.978 668.633 259.302 668.443 259.702 668.443H264.468C264.869 668.443 265.193 668.633 265.193 668.866V670.198C265.193 670.431 264.869 670.621 264.468 670.621Z" fill="#3F3D56"/>
<path d="M276.898 670.621H272.132C271.732 670.621 271.407 670.431 271.407 670.198V668.866C271.407 668.633 271.732 668.443 272.132 668.443H276.898C277.298 668.443 277.623 668.633 277.623 668.866V670.198C277.623 670.431 277.298 670.621 276.898 670.621Z" fill="#3F3D56"/>
<path d="M289.329 670.621H284.562C284.162 670.621 283.838 670.431 283.838 670.198V668.866C283.838 668.633 284.162 668.443 284.562 668.443H289.329C289.729 668.443 290.053 668.633 290.053 668.866V670.198C290.053 670.431 289.729 670.621 289.329 670.621Z" fill="#3F3D56"/>
<path d="M301.761 670.621H296.994C296.594 670.621 296.27 670.431 296.27 670.198V668.866C296.27 668.633 296.594 668.443 296.994 668.443H301.761C302.161 668.443 302.485 668.633 302.485 668.866V670.198C302.485 670.431 302.161 670.621 301.761 670.621Z" fill="#3F3D56"/>
<path d="M312.119 670.621H307.352C306.952 670.621 306.628 670.431 306.628 670.198V668.866C306.628 668.633 306.952 668.443 307.352 668.443H312.119C312.519 668.443 312.843 668.633 312.843 668.866V670.198C312.843 670.431 312.519 670.621 312.119 670.621Z" fill="#3F3D56"/>
<path d="M324.55 670.621H319.783C319.383 670.621 319.059 670.431 319.059 670.198V668.866C319.059 668.633 319.383 668.443 319.783 668.443H324.55C324.95 668.443 325.274 668.633 325.274 668.866V670.198C325.274 670.431 324.95 670.621 324.55 670.621Z" fill="#3F3D56"/>
<path d="M336.982 670.621H332.216C331.816 670.621 331.491 670.431 331.491 670.198V668.866C331.491 668.633 331.816 668.443 332.216 668.443H336.982C337.382 668.443 337.707 668.633 337.707 668.866V670.198C337.707 670.431 337.382 670.621 336.982 670.621Z" fill="#3F3D56"/>
<path d="M349.412 670.621H344.645C344.245 670.621 343.921 670.431 343.921 670.198V668.866C343.921 668.633 344.245 668.443 344.645 668.443H349.412C349.812 668.443 350.136 668.633 350.136 668.866V670.198C350.136 670.431 349.812 670.621 349.412 670.621Z" fill="#3F3D56"/>
<path d="M361.843 670.621H357.076C356.676 670.621 356.352 670.431 356.352 670.198V668.866C356.352 668.633 356.676 668.443 357.076 668.443H361.843C362.243 668.443 362.567 668.633 362.567 668.866V670.198C362.567 670.431 362.243 670.621 361.843 670.621Z" fill="#3F3D56"/>
<path d="M374.273 670.621H369.507C369.107 670.621 368.782 670.431 368.782 670.198V668.866C368.782 668.633 369.107 668.443 369.507 668.443H374.273C374.673 668.443 374.998 668.633 374.998 668.866V670.198C374.998 670.431 374.673 670.621 374.273 670.621Z" fill="#3F3D56"/>
<path d="M386.705 670.621H381.938C381.538 670.621 381.214 670.431 381.214 670.198V668.866C381.214 668.633 381.538 668.443 381.938 668.443H386.705C387.105 668.443 387.429 668.633 387.429 668.866V670.198C387.429 670.431 387.105 670.621 386.705 670.621Z" fill="#3F3D56"/>
<path d="M399.135 670.621H394.369C393.969 670.621 393.645 670.431 393.645 670.198V668.866C393.645 668.633 393.969 668.443 394.369 668.443H399.135C399.536 668.443 399.86 668.633 399.86 668.866V670.198C399.86 670.431 399.536 670.621 399.135 670.621Z" fill="#3F3D56"/>
<path d="M411.566 670.621H406.8C406.399 670.621 406.075 670.431 406.075 670.198V668.866C406.075 668.633 406.399 668.443 406.8 668.443H411.566C411.966 668.443 412.291 668.633 412.291 668.866V670.198C412.291 670.431 411.966 670.621 411.566 670.621Z" fill="#3F3D56"/>
<path d="M423.997 670.621H419.23C418.83 670.621 418.506 670.431 418.506 670.198V668.866C418.506 668.633 418.83 668.443 419.23 668.443H423.997C424.397 668.443 424.721 668.633 424.721 668.866V670.198C424.721 670.431 424.397 670.621 423.997 670.621Z" fill="#3F3D56"/>
<path d="M239.606 677.153H234.84C234.44 677.153 234.115 676.774 234.115 676.307V673.644C234.115 673.177 234.44 672.798 234.84 672.798H239.606C240.006 672.798 240.331 673.177 240.331 673.644V676.307C240.331 676.774 240.006 677.153 239.606 677.153Z" fill="#3F3D56"/>
<path d="M252.037 677.153H247.27C246.87 677.153 246.546 676.774 246.546 676.307V673.644C246.546 673.177 246.87 672.798 247.27 672.798H252.037C252.437 672.798 252.761 673.177 252.761 673.644V676.307C252.761 676.774 252.437 677.153 252.037 677.153Z" fill="#3F3D56"/>
<path d="M264.469 677.153H259.702C259.302 677.153 258.978 676.774 258.978 676.307V673.644C258.978 673.177 259.302 672.798 259.702 672.798H264.469C264.869 672.798 265.193 673.177 265.193 673.644V676.307C265.193 676.774 264.869 677.153 264.469 677.153Z" fill="#3F3D56"/>
<path d="M276.898 677.153H272.132C271.732 677.153 271.407 676.774 271.407 676.307V673.644C271.407 673.177 271.732 672.798 272.132 672.798H276.898C277.298 672.798 277.623 673.177 277.623 673.644V676.307C277.623 676.774 277.298 677.153 276.898 677.153Z" fill="#3F3D56"/>
<path d="M289.329 677.153H284.562C284.162 677.153 283.838 676.774 283.838 676.307V673.644C283.838 673.177 284.162 672.798 284.562 672.798H289.329C289.729 672.798 290.053 673.177 290.053 673.644V676.307C290.053 676.774 289.729 677.153 289.329 677.153Z" fill="#3F3D56"/>
<path d="M299.93 677.153H296.752C296.486 677.153 296.27 676.774 296.27 676.307V673.644C296.27 673.177 296.486 672.798 296.752 672.798H299.93C300.197 672.798 300.413 673.177 300.413 673.644V676.307C300.413 676.774 300.197 677.153 299.93 677.153Z" fill="#3F3D56"/>
<path d="M312.119 677.153H307.352C306.952 677.153 306.628 676.774 306.628 676.307V673.644C306.628 673.177 306.952 672.798 307.352 672.798H312.119C312.519 672.798 312.843 673.177 312.843 673.644V676.307C312.843 676.774 312.519 677.153 312.119 677.153Z" fill="#3F3D56"/>
<path d="M324.55 677.153H319.783C319.383 677.153 319.059 676.774 319.059 676.307V673.644C319.059 673.177 319.383 672.798 319.783 672.798H324.55C324.95 672.798 325.274 673.177 325.274 673.644V676.307C325.274 676.774 324.95 677.153 324.55 677.153Z" fill="#3F3D56"/>
<path d="M336.982 677.153H332.216C331.816 677.153 331.491 676.774 331.491 676.307V673.644C331.491 673.177 331.816 672.798 332.216 672.798H336.982C337.382 672.798 337.707 673.177 337.707 673.644V676.307C337.707 676.774 337.382 677.153 336.982 677.153Z" fill="#3F3D56"/>
<path d="M349.412 677.153H344.645C344.245 677.153 343.921 676.774 343.921 676.307V673.644C343.921 673.177 344.245 672.798 344.645 672.798H349.412C349.812 672.798 350.136 673.177 350.136 673.644V676.307C350.136 676.774 349.812 677.153 349.412 677.153Z" fill="#3F3D56"/>
<path d="M361.843 677.153H357.076C356.676 677.153 356.352 676.774 356.352 676.307V673.644C356.352 673.177 356.676 672.798 357.076 672.798H361.843C362.243 672.798 362.567 673.177 362.567 673.644V676.307C362.567 676.774 362.243 677.153 361.843 677.153Z" fill="#3F3D56"/>
<path d="M374.273 677.153H369.507C369.107 677.153 368.782 676.774 368.782 676.307V673.644C368.782 673.177 369.107 672.798 369.507 672.798H374.273C374.673 672.798 374.998 673.177 374.998 673.644V676.307C374.998 676.774 374.673 677.153 374.273 677.153Z" fill="#3F3D56"/>
<path d="M386.705 677.153H381.938C381.538 677.153 381.214 676.774 381.214 676.307V673.644C381.214 673.177 381.538 672.798 381.938 672.798H386.705C387.105 672.798 387.429 673.177 387.429 673.644V676.307C387.429 676.774 387.105 677.153 386.705 677.153Z" fill="#3F3D56"/>
<path d="M399.136 677.153H394.369C393.969 677.153 393.645 676.774 393.645 676.307V673.644C393.645 673.177 393.969 672.798 394.369 672.798H399.136C399.536 672.798 399.86 673.177 399.86 673.644V676.307C399.86 676.774 399.536 677.153 399.136 677.153Z" fill="#3F3D56"/>
<path d="M411.566 677.153H406.8C406.399 677.153 406.075 676.774 406.075 676.307V673.644C406.075 673.177 406.399 672.798 406.8 672.798H411.566C411.966 672.798 412.291 673.177 412.291 673.644V676.307C412.291 676.774 411.966 677.153 411.566 677.153Z" fill="#3F3D56"/>
<path d="M423.997 677.153H419.23C418.83 677.153 418.506 676.774 418.506 676.307V673.644C418.506 673.177 418.83 672.798 419.23 672.798H423.997C424.397 672.798 424.721 673.177 424.721 673.644V676.307C424.721 676.774 424.397 677.153 423.997 677.153Z" fill="#3F3D56"/>
<path d="M339.113 685.862H294.861C294.495 685.862 294.197 685.483 294.197 685.016V682.353C294.197 681.886 294.495 681.507 294.861 681.507H339.113C339.48 681.507 339.777 681.886 339.777 682.353V685.016C339.777 685.483 339.48 685.862 339.113 685.862Z" fill="#3F3D56"/>
<path d="M392.211 555.222H397.149C398.646 555.222 399.859 556.197 399.859 557.399C399.859 558.602 398.646 559.576 397.149 559.576H392.211C390.714 559.576 389.5 558.602 389.5 557.399C389.5 556.197 390.714 555.222 392.211 555.222Z" fill="white"/>
<path d="M342.488 555.222H347.426C348.923 555.222 350.137 556.197 350.137 557.399C350.137 558.602 348.923 559.576 347.426 559.576H342.488C340.991 559.576 339.778 558.602 339.778 557.399C339.778 556.197 340.991 555.222 342.488 555.222Z" fill="white"/>
<path d="M330.057 555.222H334.994C336.491 555.222 337.705 556.197 337.705 557.399C337.705 558.602 336.491 559.576 334.994 559.576H330.057C328.56 559.576 327.346 558.602 327.346 557.399C327.346 556.197 328.56 555.222 330.057 555.222Z" fill="white"/>
<path d="M358.373 555.222H381.263C382.38 555.222 383.285 556.196 383.285 557.399C383.285 558.602 382.38 559.576 381.263 559.576H358.373C357.257 559.576 356.352 558.602 356.352 557.399C356.352 556.196 357.257 555.222 358.373 555.222Z" fill="white"/>
<path d="M292.387 555.222H318.798C320.086 555.222 321.131 556.196 321.131 557.399C321.131 558.602 320.086 559.576 318.798 559.576H292.387C291.098 559.576 290.054 558.602 290.054 557.399C290.054 556.196 291.098 555.222 292.387 555.222Z" fill="white"/>
<path d="M378.696 566.108H381.659C382.557 566.108 383.285 566.596 383.285 567.197C383.285 567.798 382.557 568.286 381.659 568.286H378.696C377.798 568.286 377.07 567.798 377.07 567.197C377.07 566.596 377.798 566.108 378.696 566.108Z" fill="white"/>
<path d="M330.057 566.108H334.994C336.491 566.108 337.705 566.596 337.705 567.197C337.705 567.798 336.491 568.286 334.994 568.286H330.057C328.56 568.286 327.346 567.798 327.346 567.197C327.346 566.596 328.56 566.108 330.057 566.108Z" fill="white"/>
<path d="M317.627 566.108H322.565C324.062 566.108 325.275 566.596 325.275 567.197C325.275 567.798 324.062 568.286 322.565 568.286H317.627C316.13 568.286 314.916 567.798 314.916 567.197C314.916 566.596 316.13 566.108 317.627 566.108Z" fill="white"/>
<path d="M345.943 566.108H368.833C369.949 566.108 370.854 566.596 370.854 567.197C370.854 567.798 369.949 568.286 368.833 568.286H345.943C344.826 568.286 343.921 567.798 343.921 567.197C343.921 566.596 344.826 566.108 345.943 566.108Z" fill="white"/>
<path d="M279.956 566.108H306.367C307.656 566.108 308.7 566.596 308.7 567.197C308.7 567.798 307.656 568.286 306.367 568.286H279.956C278.667 568.286 277.623 567.798 277.623 567.197C277.623 566.596 278.667 566.108 279.956 566.108Z" fill="white"/>
<path d="M366.265 576.995H369.228C370.126 576.995 370.854 577.483 370.854 578.084C370.854 578.685 370.126 579.172 369.228 579.172H366.265C365.367 579.172 364.639 578.685 364.639 578.084C364.639 577.483 365.367 576.995 366.265 576.995Z" fill="white"/>
<path d="M317.627 576.995H322.565C324.062 576.995 325.275 577.483 325.275 578.084C325.275 578.685 324.062 579.172 322.565 579.172H317.627C316.13 579.172 314.916 578.685 314.916 578.084C314.916 577.483 316.13 576.995 317.627 576.995Z" fill="white"/>
<path d="M305.196 576.995H310.134C311.631 576.995 312.845 577.483 312.845 578.084C312.845 578.685 311.631 579.172 310.134 579.172H305.196C303.699 579.172 302.486 578.685 302.486 578.084C302.486 577.483 303.699 576.995 305.196 576.995Z" fill="white"/>
<path d="M329.679 574.818H356.091C357.379 574.818 358.424 575.793 358.424 576.995C358.424 578.198 357.379 579.172 356.091 579.172H329.679C328.391 579.172 327.347 578.198 327.347 576.995C327.347 575.793 328.391 574.818 329.679 574.818Z" fill="white"/>
<path d="M267.525 574.818H293.937C295.225 574.818 296.27 575.793 296.27 576.995C296.27 578.198 295.225 579.172 293.937 579.172H267.525C266.237 579.172 265.192 578.198 265.192 576.995C265.192 575.793 266.237 574.818 267.525 574.818Z" fill="white"/>
<path d="M352.305 585.704H356.255C357.453 585.704 358.424 587.167 358.424 588.97C358.424 590.774 357.453 592.236 356.255 592.236H352.305C351.107 592.236 350.137 590.774 350.137 588.97C350.137 587.167 351.107 585.704 352.305 585.704Z" fill="white"/>
<path d="M305.196 585.704H310.134C311.631 585.704 312.845 587.167 312.845 588.97C312.845 590.774 311.631 592.236 310.134 592.236H305.196C303.699 592.236 302.486 590.774 302.486 588.97C302.486 587.167 303.699 585.704 305.196 585.704Z" fill="white"/>
<path d="M292.765 585.704H297.702C299.199 585.704 300.413 587.167 300.413 588.97C300.413 590.774 299.199 592.236 297.702 592.236H292.765C291.268 592.236 290.054 590.774 290.054 588.97C290.054 587.167 291.268 585.704 292.765 585.704Z" fill="white"/>
<path d="M317.249 585.704H343.66C344.949 585.704 345.993 587.167 345.993 588.97C345.993 590.774 344.949 592.236 343.66 592.236H317.249C315.96 592.236 314.916 590.774 314.916 588.97C314.916 587.167 315.96 585.704 317.249 585.704Z" fill="white"/>
<path d="M342.488 631.428H347.426C348.923 631.428 350.137 631.916 350.137 632.517C350.137 633.118 348.923 633.606 347.426 633.606H342.488C340.991 633.606 339.778 633.118 339.778 632.517C339.778 631.916 340.991 631.428 342.488 631.428Z" fill="white"/>
<path d="M330.057 631.428H334.994C336.491 631.428 337.705 631.916 337.705 632.517C337.705 633.118 336.491 633.606 334.994 633.606H330.057C328.56 633.606 327.346 633.118 327.346 632.517C327.346 631.916 328.56 631.428 330.057 631.428Z" fill="white"/>
<path d="M292.387 631.428H318.798C320.086 631.428 321.131 632.403 321.131 633.606C321.131 634.808 320.086 635.783 318.798 635.783H292.387C291.098 635.783 290.054 634.808 290.054 633.606C290.054 632.403 291.098 631.428 292.387 631.428Z" fill="white"/>
<path d="M392.211 631.428H397.149C398.646 631.428 399.859 631.916 399.859 632.517C399.859 633.118 398.646 633.606 397.149 633.606H392.211C390.714 633.606 389.5 633.118 389.5 632.517C389.5 631.916 390.714 631.428 392.211 631.428Z" fill="white"/>
<path d="M358.373 631.428H381.263C382.38 631.428 383.285 632.403 383.285 633.606C383.285 634.808 382.38 635.783 381.263 635.783H358.373C357.257 635.783 356.352 634.808 356.352 633.606C356.352 632.403 357.257 631.428 358.373 631.428Z" fill="white"/>
<path d="M378.696 620.542H381.659C382.557 620.542 383.285 621.517 383.285 622.719C383.285 623.922 382.557 624.896 381.659 624.896H378.696C377.798 624.896 377.07 623.922 377.07 622.719C377.07 621.517 377.798 620.542 378.696 620.542Z" fill="white"/>
<path d="M330.057 620.542H334.994C336.491 620.542 337.705 621.517 337.705 622.719C337.705 623.922 336.491 624.896 334.994 624.896H330.057C328.56 624.896 327.346 623.922 327.346 622.719C327.346 621.517 328.56 620.542 330.057 620.542Z" fill="white"/>
<path d="M317.627 620.542H322.565C324.062 620.542 325.275 621.517 325.275 622.719C325.275 623.922 324.062 624.896 322.565 624.896H317.627C316.13 624.896 314.916 623.922 314.916 622.719C314.916 621.517 316.13 620.542 317.627 620.542Z" fill="white"/>
<path d="M345.943 620.542H368.833C369.949 620.542 370.854 621.517 370.854 622.719C370.854 623.922 369.949 624.896 368.833 624.896H345.943C344.826 624.896 343.921 623.922 343.921 622.719C343.921 621.517 344.826 620.542 345.943 620.542Z" fill="white"/>
<path d="M366.265 607.478H369.228C370.126 607.478 370.854 608.94 370.854 610.744C370.854 612.548 370.126 614.01 369.228 614.01H366.265C365.367 614.01 364.639 612.548 364.639 610.744C364.639 608.94 365.367 607.478 366.265 607.478Z" fill="white"/>
<path d="M317.627 607.478H322.565C324.062 607.478 325.275 608.94 325.275 610.744C325.275 612.548 324.062 614.01 322.565 614.01H317.627C316.13 614.01 314.916 612.548 314.916 610.744C314.916 608.94 316.13 607.478 317.627 607.478Z" fill="white"/>
<path d="M305.196 607.478H310.134C311.631 607.478 312.845 608.94 312.845 610.744C312.845 612.548 311.631 614.01 310.134 614.01H305.196C303.699 614.01 302.486 612.548 302.486 610.744C302.486 608.94 303.699 607.478 305.196 607.478Z" fill="white"/>
<path d="M329.679 607.478H356.091C357.379 607.478 358.424 608.94 358.424 610.744C358.424 612.548 357.379 614.01 356.091 614.01H329.679C328.391 614.01 327.347 612.548 327.347 610.744C327.347 608.94 328.391 607.478 329.679 607.478Z" fill="white"/>
<path d="M352.305 596.591H356.255C357.453 596.591 358.424 598.053 358.424 599.857C358.424 601.661 357.453 603.123 356.255 603.123H352.305C351.107 603.123 350.137 601.661 350.137 599.857C350.137 598.053 351.107 596.591 352.305 596.591Z" fill="white"/>
<path d="M305.196 596.591H310.134C311.631 596.591 312.845 598.053 312.845 599.857C312.845 601.661 311.631 603.123 310.134 603.123H305.196C303.699 603.123 302.486 601.661 302.486 599.857C302.486 598.053 303.699 596.591 305.196 596.591Z" fill="white"/>
<path d="M292.765 596.591H297.702C299.199 596.591 300.413 598.053 300.413 599.857C300.413 601.661 299.199 603.123 297.702 603.123H292.765C291.268 603.123 290.054 601.661 290.054 599.857C290.054 598.053 291.268 596.591 292.765 596.591Z" fill="white"/>
<path d="M317.249 596.591H343.66C344.949 596.591 345.993 598.053 345.993 599.857C345.993 601.661 344.949 603.123 343.66 603.123H317.249C315.96 603.123 314.916 601.661 314.916 599.857C314.916 598.053 315.96 596.591 317.249 596.591Z" fill="white"/>
<path d="M413.291 759.892L433.008 726.576L371.121 673.839L345.576 643.588C342.258 639.658 338.032 636.727 333.322 635.09C328.612 633.452 323.582 633.164 318.736 634.255C313.889 635.347 309.395 637.778 305.703 641.308C302.011 644.837 299.251 649.341 297.697 654.368C295.394 661.818 295.889 669.932 299.078 676.999C302.266 684.066 307.898 689.533 314.785 692.245L355.178 708.152L413.291 759.892Z" fill="#9D5E5E"/>
<path d="M874.305 523.465V679.33H766.57V523.465C766.569 522.344 766.922 521.252 767.577 520.35C768.233 519.447 769.157 518.781 770.214 518.45C770.712 518.284 771.234 518.201 771.758 518.207H869.102C869.784 518.206 870.46 518.341 871.091 518.604C871.722 518.868 872.295 519.255 872.778 519.743C873.262 520.232 873.645 520.812 873.907 521.45C874.169 522.089 874.304 522.774 874.305 523.465ZM832.261 577.021C832.232 573.948 831.008 571.011 828.855 568.848C826.701 566.686 823.792 565.472 820.76 565.472C817.728 565.472 814.819 566.686 812.665 568.848C810.511 571.011 809.287 573.948 809.259 577.021V595.106C809.275 598.187 810.493 601.137 812.648 603.31C814.804 605.483 817.72 606.703 820.76 606.703C823.8 606.703 826.716 605.483 828.871 603.31C831.027 601.137 832.245 598.187 832.261 595.106V577.021Z" fill="#2F2E41"/>
<path d="M874.305 672.798V691.001C874.302 691.944 873.999 692.847 873.46 693.516C872.922 694.184 872.192 694.564 871.428 694.571H769.447C768.682 694.567 767.951 694.188 767.412 693.519C766.873 692.85 766.57 691.945 766.57 691.001V672.798H874.305Z" fill="#3F3D56"/>
<path d="M1037.98 283.818V571.861C1037.98 575.531 1036.59 579.051 1034.11 581.646C1031.64 584.242 1028.29 585.701 1024.79 585.704H618.159C614.662 585.701 611.309 584.242 608.836 581.646C606.364 579.051 604.973 575.531 604.971 571.861V283.818C604.979 280.151 606.371 276.636 608.843 274.045C611.315 271.453 614.665 269.995 618.159 269.99H1024.79C1028.29 269.995 1031.63 271.453 1034.11 274.045C1036.58 276.636 1037.97 280.151 1037.98 283.818Z" fill="#3F3D56"/>
<path d="M1029.69 286.178V569.532C1029.69 571.51 1028.94 573.406 1027.62 574.805C1026.3 576.204 1024.51 576.992 1022.64 576.995H622.383C620.513 576.992 618.72 576.204 617.398 574.805C616.075 573.406 615.331 571.51 615.328 569.532V286.178C615.328 284.197 616.071 282.298 617.394 280.896C618.716 279.494 620.511 278.704 622.383 278.699H1022.64C1024.51 278.704 1026.3 279.494 1027.62 280.896C1028.95 282.298 1029.69 284.197 1029.69 286.178Z" fill="white"/>
<path d="M954.123 692.685C953.716 693.277 953.199 693.754 952.61 694.081C952.022 694.407 951.377 694.575 950.724 694.571H712.931C712.281 694.57 711.639 694.401 711.052 694.076C710.465 693.752 709.948 693.279 709.538 692.693C709.128 692.107 708.836 691.423 708.683 690.69C708.53 689.956 708.52 689.193 708.654 688.454L712.345 668.116C712.498 667.286 712.827 666.514 713.303 665.87C713.779 665.226 714.386 664.731 715.069 664.428C715.564 664.203 716.091 664.088 716.622 664.089H947.048C947.579 664.088 948.106 664.203 948.6 664.428C949.284 664.731 949.891 665.226 950.367 665.87C950.843 666.514 951.172 667.286 951.325 668.116L955.016 688.454C955.147 689.192 955.135 689.955 954.981 690.687C954.826 691.419 954.533 692.101 954.123 692.685Z" fill="#2F2E41"/>
<path d="M635.43 317.892H1009.59C1009.98 317.885 1010.35 317.768 1010.62 317.564C1010.89 317.361 1011.04 317.088 1011.04 316.803C1011.04 316.518 1010.89 316.245 1010.62 316.042C1010.35 315.838 1009.98 315.721 1009.59 315.714H635.43C635.041 315.721 634.671 315.838 634.399 316.042C634.127 316.245 633.975 316.518 633.975 316.803C633.975 317.088 634.127 317.361 634.399 317.564C634.671 317.768 635.041 317.885 635.43 317.892Z" fill="#3F3D56"/>
<path d="M984.111 307.005C979.534 307.005 975.824 302.618 975.824 297.207C975.824 291.796 979.534 287.409 984.111 287.409C988.688 287.409 992.398 291.796 992.398 297.207C992.398 302.618 988.688 307.005 984.111 307.005Z" fill="#3F3D56"/>
<path d="M954.07 307.005C948.921 307.005 944.747 302.618 944.747 297.207C944.747 291.796 948.921 287.409 954.07 287.409C959.219 287.409 963.394 291.796 963.394 297.207C963.394 302.618 959.219 307.005 954.07 307.005Z" fill="#3F3D56"/>
<path d="M922.993 307.005C917.844 307.005 913.67 302.618 913.67 297.207C913.67 291.796 917.844 287.409 922.993 287.409C928.142 287.409 932.316 291.796 932.316 297.207C932.316 302.618 928.142 307.005 922.993 307.005Z" fill="#3F3D56"/>
<path d="M654.236 289.586H675.882C676.31 289.593 676.717 289.71 677.016 289.914C677.315 290.117 677.482 290.39 677.482 290.675C677.482 290.959 677.315 291.232 677.016 291.436C676.717 291.639 676.31 291.757 675.882 291.764H654.236C653.806 291.759 653.395 291.643 653.092 291.439C652.79 291.236 652.621 290.961 652.621 290.675C652.621 290.389 652.79 290.114 653.092 289.91C653.395 289.707 653.806 289.59 654.236 289.586Z" fill="#3F3D56"/>
<path d="M654.239 296.118H675.88C676.308 296.125 676.716 296.242 677.015 296.446C677.315 296.649 677.482 296.922 677.482 297.207C677.482 297.492 677.315 297.765 677.015 297.968C676.716 298.172 676.308 298.289 675.88 298.296H654.239C653.808 298.292 653.396 298.176 653.093 297.972C652.791 297.768 652.621 297.493 652.621 297.207C652.621 296.92 652.791 296.646 653.093 296.442C653.396 296.238 653.808 296.122 654.239 296.118Z" fill="#3F3D56"/>
<path d="M654.236 304.828H675.882C676.31 304.834 676.717 304.952 677.016 305.155C677.315 305.359 677.482 305.632 677.482 305.916C677.482 306.201 677.315 306.474 677.016 306.677C676.717 306.881 676.31 306.998 675.882 307.005H654.236C653.806 307.001 653.395 306.884 653.092 306.681C652.79 306.477 652.621 306.202 652.621 305.916C652.621 305.63 652.79 305.356 653.092 305.152C653.395 304.948 653.806 304.832 654.236 304.828Z" fill="#3F3D56"/>
<path d="M136.218 681.302C135.571 683.297 134.344 685.023 132.712 686.234C131.08 687.444 129.128 688.076 127.136 688.038L88.2204 686.977C86.2138 686.936 84.2736 686.208 82.69 684.903C81.1065 683.597 79.9645 681.784 79.4347 679.734L73.9279 617.385C71.974 618.322 69.847 618.785 67.7025 618.739C65.8393 618.689 64.0036 618.252 62.3002 617.451C60.5968 616.651 59.059 615.503 57.7746 614.073C56.4903 612.643 55.4845 610.959 54.8148 609.117C54.145 607.276 53.8243 605.313 53.871 603.34C53.9178 601.367 54.3311 599.424 55.0873 597.62C55.8435 595.816 56.9278 594.188 58.2783 592.828C59.6288 591.468 61.2191 590.403 62.9583 589.694C64.6975 588.985 66.5516 588.645 68.4148 588.695C69.2719 588.692 70.127 588.786 70.9652 588.976C71.8768 587.932 72.9848 587.101 74.2179 586.538C75.451 585.974 76.782 585.691 78.1249 585.705L137.986 587.342C138.482 587.361 138.976 587.426 139.462 587.536C140.775 587.795 142.02 588.349 143.114 589.16C144.207 589.971 145.124 591.021 145.802 592.239C146.481 593.457 146.905 594.815 147.046 596.221C147.187 597.627 147.042 599.048 146.621 600.39L136.218 681.302ZM72.7985 613.151L68.8798 598.293C68.4341 596.577 68.4238 594.767 68.85 593.045C68.6598 593.044 68.4921 592.949 68.3019 592.948C65.615 592.889 63.0158 593.961 61.074 595.928C59.1323 597.896 58.0066 600.598 57.9436 603.443C57.8807 606.287 58.8858 609.042 60.7385 611.104C62.5911 613.165 65.1401 614.364 67.8266 614.439C69.5637 614.496 71.2826 614.051 72.7985 613.151Z" fill="#71C9CE"/>
<path d="M140.884 587.398C139.564 594.528 124.721 599.542 106.874 598.67C90.463 597.956 77.0442 592.512 74.5858 586.06C75.4956 585.806 76.4417 585.686 77.3903 585.707L139.355 587.218C139.869 587.236 140.381 587.296 140.884 587.398Z" fill="#3F3D56"/>
<path d="M104.148 648.82C104.053 648.797 103.962 648.757 103.879 648.704L93.6357 642.094C93.5119 642.015 93.4101 641.906 93.3397 641.778C93.2692 641.65 93.2323 641.506 93.2322 641.36C93.2321 641.215 93.269 641.071 93.3394 640.943C93.4097 640.815 93.5114 640.706 93.6352 640.626L104.282 633.752C104.38 633.688 104.49 633.644 104.605 633.622C104.72 633.6 104.838 633.601 104.953 633.624C105.067 633.647 105.176 633.693 105.273 633.758C105.37 633.823 105.453 633.906 105.517 634.002C105.582 634.099 105.626 634.207 105.648 634.321C105.669 634.434 105.668 634.551 105.644 634.664C105.62 634.777 105.573 634.884 105.507 634.979C105.441 635.074 105.356 635.156 105.258 635.219L95.7482 641.359L104.854 647.235C105.03 647.349 105.16 647.521 105.22 647.72C105.28 647.919 105.266 648.132 105.182 648.323C105.097 648.513 104.947 648.667 104.757 648.758C104.568 648.849 104.352 648.871 104.148 648.82Z" fill="#021E25"/>
<path d="M116.695 648.82C116.522 648.778 116.367 648.685 116.248 648.555C116.13 648.424 116.054 648.262 116.03 648.089C116.005 647.916 116.034 647.739 116.113 647.582C116.191 647.425 116.315 647.295 116.47 647.208L125.934 641.871L116.786 635.187C116.692 635.118 116.613 635.032 116.553 634.933C116.493 634.834 116.453 634.725 116.436 634.611C116.419 634.497 116.425 634.381 116.453 634.269C116.482 634.158 116.533 634.052 116.602 633.96C116.672 633.867 116.76 633.79 116.86 633.73C116.961 633.671 117.072 633.632 117.188 633.615C117.304 633.599 117.422 633.604 117.536 633.632C117.649 633.661 117.756 633.71 117.85 633.779L128.091 641.262C128.21 641.349 128.306 641.463 128.368 641.595C128.431 641.727 128.459 641.873 128.451 642.018C128.442 642.164 128.396 642.305 128.318 642.429C128.24 642.552 128.132 642.655 128.004 642.728L117.358 648.731C117.157 648.844 116.919 648.876 116.695 648.82Z" fill="#021E25"/>
<path d="M104.188 653.179C104.112 653.16 104.039 653.131 103.971 653.091C103.883 653.04 103.805 652.972 103.744 652.892C103.682 652.812 103.638 652.721 103.613 652.625C103.589 652.528 103.584 652.428 103.6 652.33C103.616 652.232 103.652 652.138 103.706 652.053L116.625 631.79C116.734 631.619 116.911 631.497 117.115 631.45C117.319 631.403 117.534 631.435 117.713 631.539C117.892 631.643 118.021 631.811 118.071 632.005C118.12 632.2 118.087 632.405 117.978 632.577L105.06 652.84C104.971 652.977 104.839 653.085 104.682 653.146C104.526 653.207 104.353 653.218 104.188 653.179Z" fill="#021E25"/>
<path d="M727.206 582.227L726.889 583.284L726.872 583.319L717.313 613.955L706.317 649.259L685.628 715.604L685.428 725.91V725.945L683.89 808.849L688.152 820.089L683.355 838.516C683.355 838.516 685.561 810.661 697.393 826.657C704.094 835.748 711.932 845.049 718.366 853.77C708.991 857.769 699.465 861.386 689.789 864.622C687.7 865.326 685.595 865.996 683.489 866.665C683.038 866.806 682.587 866.947 682.135 867.088C650.061 877.087 616.902 882.706 583.471 883.806C581.733 883.859 580.029 883.894 578.374 883.93C577.789 883.947 577.221 883.965 576.653 883.965C574.781 883.982 572.926 884 571.055 884C567.278 884 563.518 883.941 559.774 883.824C532.068 883.001 504.523 879.074 477.605 872.109C477.788 860.394 478.29 846.705 479.008 832.083C479.343 824.913 486.846 817.144 487.297 809.64C487.615 804.002 480.88 798.7 481.231 792.974C483.504 757.723 486.345 771.255 488.45 746.292C488.667 743.843 488.868 741.5 489.052 739.263C490.405 723.232 491.341 713.208 491.341 713.208L482.351 653.469L468.229 559.678L469.316 557.793L470.536 557.159L545.018 518.296L549.062 507.374C550.241 504.227 552.285 501.524 554.933 499.612C557.58 497.7 560.71 496.667 563.919 496.645L612.984 496.434C615.53 496.422 618.042 497.05 620.312 498.266C622.582 499.482 624.544 501.252 626.035 503.428L639.321 522.823L727.206 582.227Z" fill="#71C9CE"/>
<path d="M673.339 700.406L684.611 725.251L692.306 742.221L705.543 813.612L712.171 820.857L717.849 795.207L777.277 808.799C779.226 797.643 777.799 809.177 779.002 796.938C778.663 796.589 778.307 796.24 777.951 795.89C777.002 794.982 776.205 794.127 776.222 793.306C776.9 751.09 774.866 679.246 757.883 635.721C755.223 628.614 751.716 621.875 747.442 615.66C747.103 615.189 746.781 614.717 746.459 614.246C738.629 602.95 733.679 591.828 726.662 583.919V583.902C726.619 583.866 726.579 583.825 726.544 583.78C726.518 583.767 726.495 583.749 726.476 583.727L678.272 557.399L676.204 617.249L674.729 660.268L673.339 700.406Z" fill="#71C9CE"/>
<path d="M501.379 707.648L487.475 738.843L482.622 749.707L469.554 821.471L463.03 828.737L457.41 802.957L454.77 802.389L407.144 792.046L393.263 838.276C390.134 832.809 388.902 826.378 389.774 820.068C390.646 813.759 393.569 807.959 398.048 803.648C398.996 802.749 399.786 801.873 399.764 801.045C398.974 751.128 401.885 659.979 428.181 622.464C436.532 610.559 441.543 598.701 448.833 590.417C448.856 590.393 448.856 590.37 448.878 590.37L466.619 559.908L467.703 558.038L468.922 557.399L501.379 707.648Z" fill="#71C9CE"/>
<path d="M586.323 481.192C549.708 481.192 520.025 450.485 520.025 412.606C520.025 374.727 549.708 344.02 586.323 344.02C622.938 344.02 652.621 374.727 652.621 412.606C652.621 450.485 622.938 481.192 586.323 481.192Z" fill="#9D5E5E"/>
<path d="M500.624 363.625C501.126 363.044 501.731 362.579 502.402 362.257C503.074 361.935 503.798 361.764 504.532 361.752L503.559 358.825C503.241 357.904 503.155 356.907 503.31 355.937C503.465 354.968 503.856 354.06 504.441 353.308C505.026 352.555 505.786 351.985 506.642 351.655C507.497 351.325 508.419 351.247 509.311 351.43L512.856 352.17L512.522 349.605C512.394 348.649 512.497 347.675 512.823 346.776C513.148 345.877 513.683 345.086 514.377 344.479C515.07 343.873 515.897 343.472 516.777 343.317C517.656 343.162 518.558 343.257 519.393 343.594C520.153 343.918 520.97 344.053 521.784 343.991C522.599 343.928 523.39 343.669 524.1 343.232C524.813 342.809 525.431 342.222 525.913 341.512C526.395 340.803 526.728 339.988 526.889 339.125L528.124 332.674L528.255 332.328C534.269 321.47 545.832 313.572 559.981 310.676C572.576 308.08 585.491 309.402 597.94 310.645C602.879 311.148 608.458 311.715 613.106 314.799C617.058 317.442 620.399 322.729 619.716 328.063C631.991 323.988 645.153 332.123 651.675 342.382C659.403 354.593 660.667 369.887 660.871 381.846C661.423 410.137 656.033 433.283 644.891 450.655C644.078 451.914 643.874 454.541 642.262 455.422L642.596 454.84C640.794 455.816 638.964 457.389 639.647 459.073C641.608 463.919 628.577 474.635 619.396 478.175C602.647 484.642 580.377 484.092 564.717 481.763L564.165 477.75C558.514 476.916 554.534 475.327 553.415 472.841C551.439 471.016 549.754 469.379 548.287 467.869L548.273 467.853C548.244 467.822 548.185 467.774 548.156 467.743C541.082 460.395 539.44 456.209 538.699 449.837C537.988 443.59 539.251 437.249 540.544 431.537C513.321 436.1 551.265 400.13 525.901 393.175C525.61 393.078 525.314 392.999 525.015 392.939C524.274 392.75 523.533 392.561 522.822 392.341C519.39 391.332 516.105 389.812 513.059 387.825C505.97 383.152 503.631 376.952 499.971 369.966C499.442 368.971 499.221 367.82 499.339 366.679C499.456 365.539 499.907 364.469 500.624 363.625Z" fill="#15141C"/>
<path d="M356.352 713.12C356.367 715.819 356.396 719.596 356.513 724.268C356.528 724.916 356.543 725.579 356.557 726.258C356.747 734.846 356.937 742.047 357.244 750.05C357.259 750.605 357.273 751.145 357.303 751.7C357.712 762.864 358.355 775.862 359.466 796.448C361.527 834.472 365.122 801.675 368.733 815.013C368.908 815.676 369.098 816.462 369.274 817.387C369.82 820.744 370.743 824.021 372.022 827.148C373.936 828.351 375.909 829.507 377.854 830.664C383.393 833.917 389.021 837.047 394.692 840.023C397.878 841.689 401.079 843.323 404.295 844.896C404.806 845.143 405.303 845.389 405.8 845.621C422.267 853.656 439.238 860.487 456.593 866.067C459.984 867.146 463.36 868.195 466.781 869.166C470.347 870.215 473.914 871.202 477.524 872.127C504.382 879.083 531.864 883.006 559.508 883.83C563.236 883.954 566.992 884 570.763 884C572.634 884 574.476 883.985 576.347 883.969C576.917 883.969 577.487 883.954 578.057 883.938C579.708 883.892 581.419 883.861 583.143 883.815C616.5 882.717 649.585 877.105 681.586 867.116L682.945 866.699C685.05 866.021 687.14 865.358 689.231 864.648C698.878 861.426 708.383 857.818 717.748 853.824C724.895 850.786 731.96 847.528 738.942 844.048C739.005 844.03 739.065 843.998 739.117 843.955C740.579 843.246 742.055 842.506 743.517 841.75C743.707 841.642 743.911 841.534 744.116 841.426C749.568 838.62 754.962 835.68 760.297 832.607C764.784 821.736 771.098 819.654 775.015 810.094C776.156 807.254 776.98 804.284 777.471 801.243C777.471 801.212 777.486 801.181 777.486 801.135C777.076 806.871 779.225 790.958 777.5 801.073C777.515 800.888 777.529 800.688 777.544 800.457C777.588 799.901 777.646 799.223 777.734 798.375C782.747 746.735 782.426 687.678 784.604 639.014C784.75 635.868 784.901 632.856 785.057 629.978C785.101 629.022 785.159 628.081 785.218 627.156C785.115 626.878 784.999 626.585 784.867 626.308C784.839 626.228 784.805 626.15 784.765 626.076C784.722 625.981 784.673 625.888 784.618 625.799C784.589 625.753 784.545 625.691 784.516 625.645C784.495 625.592 784.47 625.54 784.443 625.491C784.312 625.275 784.165 625.043 784.005 624.827C783.932 624.735 783.873 624.658 783.8 624.581C783.749 624.502 783.691 624.43 783.625 624.365C783.58 624.291 783.526 624.223 783.464 624.164C783.405 624.103 783.347 624.026 783.274 623.949C783.243 623.9 783.203 623.858 783.157 623.825C783.041 623.685 782.914 623.556 782.777 623.44C782.255 622.934 781.698 622.47 781.111 622.052C780.906 621.913 780.687 621.774 780.482 621.62C779.009 620.691 777.458 619.906 775.849 619.276C775.293 619.061 774.738 618.86 774.138 618.644C773.919 618.583 773.715 618.506 773.495 618.428C773.174 618.32 772.852 618.213 772.516 618.135C770.85 617.611 769.052 617.164 767.108 616.748C766.874 616.701 766.625 616.655 766.377 616.593C766.026 616.516 765.661 616.455 765.295 616.393C764.798 616.301 764.287 616.208 763.775 616.115C759.434 615.391 754.508 614.851 749.071 614.496C748.559 614.466 748.048 614.435 747.536 614.404C746.937 614.373 746.338 614.342 745.724 614.311C745.212 614.281 744.686 614.265 744.16 614.25C743.648 614.219 743.122 614.203 742.581 614.188C741.105 614.142 739.585 614.095 738.035 614.065C733.621 613.972 728.973 614.003 724.091 614.111C721.826 614.173 719.516 614.234 717.148 614.342C716.987 614.342 716.841 614.358 716.695 614.358C714.634 614.435 712.559 614.527 710.425 614.651C708.934 614.728 707.428 614.805 705.923 614.897C704.505 614.99 703.073 615.082 701.626 615.19C700.5 615.252 699.375 615.344 698.235 615.422C697.27 615.499 696.305 615.576 695.34 615.637L694.025 615.73C693.309 615.792 692.592 615.838 691.862 615.915C690.254 616.054 688.646 616.193 687.009 616.331C685.386 616.486 683.735 616.64 682.083 616.794C680.431 616.948 678.765 617.118 677.099 617.287C676.924 617.303 676.763 617.318 676.602 617.334C675.082 617.503 673.562 617.657 672.027 617.827C671.676 617.858 671.311 617.889 670.96 617.935C669.497 618.09 668.005 618.272 666.528 618.437C666.075 618.489 665.624 618.539 665.17 618.591C664.013 618.724 662.873 618.839 661.708 618.984C660.173 619.169 658.609 619.338 657.089 619.554C655.905 619.693 654.721 619.832 653.537 619.986C651.681 620.217 649.795 620.464 647.91 620.726C647.194 620.818 646.477 620.911 645.761 621.019C640.382 621.728 634.945 622.515 629.42 623.332C621.044 624.581 612.538 625.938 603.972 627.403C595.392 628.867 586.764 630.415 578.086 632.044C575.894 632.46 573.701 632.877 571.494 633.308C570.5 633.509 569.506 633.709 568.512 633.91C566.817 634.233 565.121 634.573 563.426 634.912C561.73 635.251 560.035 635.59 558.339 635.945C556.322 636.361 554.29 636.778 552.273 637.194C538.987 639.969 525.774 642.93 512.882 646.029C510.762 646.538 508.643 647.063 506.538 647.571C502.328 648.605 498.158 649.653 494.026 650.717C492.886 650.995 491.761 651.287 490.635 651.58C487.829 652.321 485.022 653.061 482.26 653.816L481.778 653.955C479.746 654.479 477.758 655.019 475.77 655.574C471.078 656.869 466.464 658.18 461.928 659.506C458.917 660.385 455.94 661.274 452.997 662.174C448.598 663.515 444.286 664.872 440.091 666.244C439.053 666.584 438.016 666.923 436.992 667.247C433.923 668.249 430.897 669.267 427.959 670.284C425.621 671.086 423.34 671.904 421.089 672.721C418.839 673.538 416.631 674.355 414.468 675.172C413.08 675.697 411.706 676.252 410.332 676.776C408.358 677.547 406.414 678.318 404.514 679.089C403.93 679.32 403.36 679.567 402.789 679.798C402.424 679.968 402.073 680.107 401.723 680.261C401.036 680.554 400.334 680.831 399.662 681.124C398.975 681.402 398.302 681.695 397.63 682.003C396.972 682.281 396.3 682.574 395.657 682.867C394.999 683.144 394.356 683.437 393.713 683.746C393.172 683.977 392.646 684.224 392.134 684.47C391.096 684.948 390.058 685.426 389.05 685.92C388.553 686.167 388.056 686.398 387.559 686.645L386.419 687.2C386.258 687.292 386.097 687.369 385.937 687.446C385.571 687.631 385.191 687.832 384.826 688.017C383.978 688.433 383.145 688.88 382.326 689.297C381.23 689.883 380.163 690.469 379.14 691.039C378.102 691.625 377.094 692.211 376.129 692.782C375.968 692.874 375.822 692.967 375.661 693.059C375.442 693.182 375.223 693.321 375.003 693.445C374.258 693.892 373.542 694.354 372.825 694.802C371.422 695.711 370.092 696.606 368.85 697.5C368.572 697.7 368.309 697.901 368.031 698.086C367.11 698.78 366.233 699.458 365.415 700.152C365.415 700.167 365.415 700.168 365.4 700.168C365.123 700.383 364.859 700.615 364.596 700.831C364.377 701.046 364.143 701.231 363.924 701.447C363.164 702.141 362.462 702.804 361.819 703.483C361.604 703.692 361.399 703.913 361.205 704.146C361.12 704.22 361.042 704.303 360.971 704.392C360.679 704.701 360.416 705.009 360.168 705.318C360.129 705.36 360.095 705.407 360.065 705.456C359.714 705.888 359.393 706.32 359.086 706.752C358.94 706.968 358.779 707.183 358.647 707.399C358.472 707.661 358.297 707.939 358.15 708.201C358.019 708.417 357.902 708.648 357.785 708.864C357.475 709.42 357.211 710.003 356.996 710.607C356.831 711.016 356.699 711.439 356.601 711.871C356.49 712.281 356.407 712.698 356.352 713.12Z" fill="#2F2E41"/>
<path opacity="0.2" d="M356.352 713.574C356.367 716.285 356.396 720.08 356.513 724.774C356.528 725.425 356.557 726.091 356.572 726.773C356.718 733.357 356.937 741.49 357.244 750.677C357.259 751.235 357.273 751.777 357.303 752.334C357.712 763.551 358.355 776.61 359.466 797.292C361.527 835.495 365.122 802.544 368.732 815.945C378.759 809.407 389.75 802.559 401.502 795.526C403.621 794.256 405.76 792.98 407.918 791.7C431.421 777.803 457.671 763.241 485.076 748.818C486.158 748.245 487.254 747.671 488.336 747.114C551.112 714.224 619.632 682.233 675.144 660.885C685.858 656.764 696.089 653.046 705.706 649.777C725.964 642.915 743.474 638.112 756.95 636.036C770.982 633.867 780.672 634.642 784.589 639.119C784.735 635.959 784.887 632.933 785.042 630.041C785.101 629.08 785.159 628.135 785.218 627.206C785.128 626.951 785.01 626.707 784.897 626.462C784.881 626.426 784.869 626.389 784.852 626.354C784.824 626.273 784.79 626.195 784.75 626.121C784.707 626.025 784.658 625.932 784.604 625.842C784.556 625.733 784.498 625.629 784.428 625.532C784.297 625.316 784.151 625.083 783.99 624.866C783.872 624.704 783.745 624.549 783.61 624.401C783.565 624.327 783.511 624.259 783.449 624.2C783.391 624.138 783.332 624.061 783.259 623.983C783.228 623.934 783.188 623.893 783.142 623.859C783.027 623.719 782.899 623.589 782.762 623.472C782.241 622.964 781.684 622.497 781.096 622.078C780.891 621.938 780.672 621.799 780.468 621.644C778.995 620.71 777.444 619.922 775.834 619.289C775.279 619.072 774.723 618.871 774.124 618.654C773.905 618.592 773.7 618.515 773.481 618.437C773.16 618.329 772.838 618.22 772.502 618.143C770.836 617.616 769.038 617.167 767.094 616.749C766.509 616.625 765.895 616.501 765.281 616.392C764.784 616.299 764.273 616.206 763.761 616.113C759.42 615.385 754.495 614.843 749.058 614.487C748.546 614.456 748.034 614.425 747.523 614.394C746.924 614.363 746.324 614.332 745.71 614.301C745.199 614.27 744.673 614.254 744.147 614.239C743.635 614.208 743.109 614.192 742.568 614.177C741.092 614.13 739.572 614.084 738.022 614.053C733.608 613.975 728.96 614.006 724.079 614.115C721.813 614.161 719.504 614.239 717.136 614.347C716.99 614.347 716.829 614.363 716.683 614.363C714.622 614.425 712.532 614.533 710.413 614.642C708.922 614.719 707.416 614.797 705.911 614.889C704.493 614.982 703.061 615.075 701.614 615.184C700.488 615.246 699.363 615.339 698.223 615.416C697.258 615.494 696.294 615.571 695.329 615.633C694.174 615.726 693.02 615.819 691.85 615.912C690.242 616.051 688.635 616.191 686.998 616.33C685.375 616.485 683.724 616.64 682.072 616.795C680.42 616.95 678.754 617.12 677.088 617.291C676.913 617.306 676.752 617.322 676.591 617.337C675.071 617.508 673.551 617.663 672.016 617.833C663.51 618.747 654.755 619.816 645.751 621.04C640.372 621.768 634.925 622.548 629.41 623.379C621.035 624.634 612.529 625.997 603.964 627.453C595.384 628.925 586.756 630.48 578.079 632.117C575.886 632.535 573.694 632.953 571.487 633.387C568.797 633.914 566.108 634.451 563.419 634.998C561.723 635.339 560.028 635.68 558.332 636.036C556.315 636.454 554.284 636.873 552.267 637.291C538.981 640.079 525.768 643.054 512.876 646.168C510.757 646.679 508.638 647.206 506.533 647.717C502.323 648.755 498.153 649.808 494.022 650.877C492.881 651.172 491.756 651.466 490.631 651.76C487.81 652.504 485.018 653.248 482.256 653.991V654.007C482.095 654.038 481.934 654.084 481.773 654.131C479.756 654.673 477.754 655.215 475.766 655.773C471.074 657.074 466.46 658.386 461.925 659.708C458.914 660.606 455.932 661.489 452.994 662.388C448.595 663.751 444.283 665.114 440.088 666.478C439.05 666.819 438.013 667.159 436.99 667.485C433.92 668.507 430.909 669.525 427.957 670.537C425.618 671.342 423.338 672.163 421.087 672.984C418.836 673.806 416.629 674.627 414.466 675.448C413.063 675.974 411.689 676.517 410.33 677.043C408.342 677.818 406.413 678.593 404.513 679.383C403.928 679.615 403.358 679.863 402.788 680.095C401.721 680.529 400.683 680.978 399.66 681.428C398.973 681.706 398.301 682.001 397.628 682.311C396.971 682.589 396.298 682.884 395.655 683.178C394.998 683.457 394.354 683.751 393.711 684.061C393.17 684.294 392.644 684.541 392.133 684.789C391.095 685.27 390.057 685.75 389.049 686.246C388.552 686.493 388.055 686.726 387.558 686.974L386.418 687.531C386.257 687.624 386.096 687.702 385.936 687.779C384.693 688.399 383.495 689.019 382.325 689.638C381.229 690.227 380.162 690.816 379.139 691.389C377.926 692.07 376.771 692.737 375.66 693.418C375.441 693.542 375.222 693.682 375.003 693.806C374.257 694.255 373.541 694.72 372.825 695.169C371.422 696.083 370.092 696.981 368.849 697.88C367.622 698.779 366.482 699.662 365.415 700.545C365.415 700.56 365.415 700.56 365.4 700.56C364.888 700.994 364.391 701.428 363.924 701.846C363.164 702.543 362.462 703.209 361.819 703.891C361.603 704.101 361.398 704.324 361.205 704.557C361.12 704.632 361.042 704.715 360.971 704.805C360.664 705.161 360.357 705.518 360.065 705.874C359.714 706.308 359.393 706.741 359.086 707.175C358.94 707.392 358.779 707.609 358.647 707.826C358.472 708.089 358.296 708.368 358.15 708.631C358.019 708.848 357.902 709.081 357.785 709.298C357.475 709.856 357.211 710.442 356.996 711.048C356.836 711.461 356.704 711.886 356.601 712.319C356.49 712.73 356.407 713.15 356.352 713.574Z" fill="black"/>
<path d="M711.585 514.889L926.745 513.852C930.439 513.83 934.007 512.536 936.668 510.254C939.328 507.971 940.863 504.886 940.936 501.676L943.937 362.131C943.985 359.779 942.957 357.53 941.08 355.876C939.202 354.222 936.628 353.299 933.922 353.309L711.489 354.381C708.736 354.397 706.077 355.362 704.094 357.063C702.111 358.764 700.967 361.063 700.912 363.456L697.915 502.847C697.85 506.057 699.253 509.128 701.816 511.386C704.379 513.643 707.892 514.903 711.585 514.889Z" fill="#E6E6E6"/>
<path d="M913.193 502.135L725.281 503.154C721.702 503.173 718.298 501.954 715.817 499.764C713.336 497.575 711.981 494.595 712.051 491.479L714.564 378.741C714.634 375.625 716.122 372.63 718.701 370.413C721.281 368.196 724.74 366.94 728.318 366.92L916.23 365.902C919.808 365.883 923.213 367.102 925.694 369.291C928.175 371.481 929.53 374.461 929.46 377.577L926.947 490.315C926.912 491.858 926.529 493.387 925.819 494.816C925.11 496.245 924.087 497.545 922.81 498.643C921.532 499.741 920.026 500.614 918.376 501.213C916.726 501.812 914.964 502.126 913.193 502.135Z" fill="white"/>
<path d="M901.928 418.654L911.288 418.542C911.795 418.536 912.287 418.351 912.656 418.028C913.025 417.705 913.24 417.271 913.254 416.821L913.51 408.519C913.523 408.068 913.334 407.639 912.985 407.325C912.636 407.011 912.155 406.838 911.647 406.843L902.288 406.955C901.781 406.962 901.288 407.147 900.92 407.469C900.551 407.792 900.336 408.226 900.322 408.676L900.066 416.979C900.053 417.429 900.242 417.858 900.591 418.172C900.94 418.486 901.421 418.659 901.928 418.654Z" fill="#71C9CE"/>
<path d="M900.775 439.763L910.134 439.651C910.642 439.645 911.134 439.46 911.503 439.137C911.871 438.815 912.087 438.381 912.101 437.93L912.356 429.628C912.37 429.178 912.181 428.749 911.832 428.434C911.483 428.12 911.002 427.947 910.494 427.953L901.135 428.065C900.627 428.071 900.135 428.256 899.767 428.579C899.398 428.901 899.183 429.335 899.168 429.786L898.913 438.088C898.9 438.538 899.088 438.967 899.437 439.282C899.787 439.596 900.268 439.769 900.775 439.763Z" fill="#3F3D56"/>
<path d="M900.95 460.345L910.241 460.395C910.745 460.397 911.229 460.231 911.588 459.932C911.946 459.633 912.15 459.227 912.153 458.802L912.213 450.965C912.216 450.539 912.018 450.131 911.664 449.828C911.31 449.526 910.828 449.354 910.325 449.351L901.034 449.301C900.53 449.299 900.045 449.465 899.687 449.764C899.328 450.063 899.125 450.469 899.121 450.894L899.062 458.731C899.059 459.156 899.256 459.565 899.61 459.867C899.964 460.17 900.446 460.342 900.95 460.345Z" fill="#CCCCCC"/>
<path d="M840.442 415.141L885.339 414.518C885.59 414.515 885.84 414.468 886.074 414.38C886.309 414.291 886.524 414.163 886.707 414.003C886.89 413.843 887.037 413.653 887.14 413.445C887.242 413.237 887.299 413.015 887.307 412.792C887.314 412.568 887.272 412.347 887.183 412.142C887.094 411.937 886.959 411.751 886.787 411.596C886.614 411.44 886.408 411.318 886.179 411.236C885.95 411.154 885.703 411.114 885.452 411.118L840.555 411.741C840.304 411.744 840.054 411.791 839.82 411.879C839.585 411.968 839.37 412.096 839.188 412.256C839.005 412.417 838.858 412.606 838.755 412.814C838.652 413.022 838.595 413.244 838.588 413.468C838.58 413.691 838.622 413.912 838.711 414.117C838.801 414.323 838.935 414.508 839.108 414.664C839.28 414.819 839.486 414.941 839.715 415.023C839.944 415.105 840.191 415.145 840.442 415.141Z" fill="#CCCCCC"/>
<path d="M840.617 435.722L885.242 435.757C885.744 435.757 886.228 435.587 886.588 435.284C886.947 434.98 887.153 434.568 887.159 434.138C887.165 433.709 886.971 433.297 886.62 432.993C886.269 432.688 885.789 432.517 885.287 432.517L840.662 432.482C840.413 432.481 840.165 432.522 839.934 432.604C839.702 432.685 839.491 432.804 839.313 432.954C839.135 433.104 838.992 433.283 838.894 433.48C838.796 433.676 838.744 433.887 838.741 434.1C838.738 434.313 838.784 434.524 838.877 434.721C838.969 434.918 839.107 435.097 839.281 435.247C839.455 435.398 839.663 435.517 839.892 435.599C840.121 435.68 840.367 435.722 840.617 435.722Z" fill="#CCCCCC"/>
<path d="M839.46 456.827L884.366 456.204C884.872 456.197 885.363 456.011 885.731 455.687C886.099 455.363 886.314 454.928 886.329 454.477C886.344 454.026 886.158 453.596 885.811 453.282C885.464 452.968 884.985 452.796 884.479 452.803L839.573 453.426C839.067 453.433 838.576 453.619 838.208 453.943C837.84 454.266 837.625 454.702 837.61 455.153C837.595 455.604 837.782 456.033 838.129 456.347C838.476 456.661 838.954 456.834 839.46 456.827Z" fill="#CCCCCC"/>
<path d="M729.847 437.712C729.788 437.014 729.75 436.311 729.738 435.601C729.591 426.351 733.663 417.341 741.06 410.552C748.457 403.764 758.572 399.753 769.18 399.402L769.77 436.392L729.847 437.712Z" fill="#71C9CE"/>
<path d="M772.778 439.392L772.328 402.304C780.089 402.024 787.705 403.749 794.236 407.264C800.768 410.78 805.929 415.933 809.083 422.088C812.238 428.243 813.248 435.131 811.989 441.902C810.73 448.674 807.258 455.033 801.999 460.195C796.74 465.357 789.926 469.097 782.396 470.953C774.866 472.809 766.949 472.701 759.623 470.641C752.297 468.58 745.881 464.659 741.167 459.36C736.452 454.061 733.645 447.616 733.092 440.819L772.778 439.392Z" fill="#3F3D56"/>
</svg>
