<svg width="1132" height="884" viewBox="0 0 1132 884" fill="none" xmlns="http://www.w3.org/2000/svg">
<path d="M472.514 156.768C451.749 156.768 434.916 138.247 434.916 115.399C434.916 92.5513 451.749 74.0296 472.514 74.0296C493.278 74.0296 510.111 92.5513 510.111 115.399C510.111 138.247 493.278 156.768 472.514 156.768Z" fill="#F2F2F2"/>
<path d="M255.515 85.316C256.77 84.4215 258.039 83.5733 259.294 82.7097C295.565 57.9041 334.443 37.7524 375.123 22.6707L384.555 161.81H444.352V2.35961C448.116 1.5268 451.91 0.740269 455.703 0V161.81H526.764C565.884 161.81 603.401 145.193 631.063 115.614C658.725 86.0355 674.265 45.9179 674.265 4.08708C678.073 4.96615 681.852 5.90677 685.631 6.90922V161.811H743.509L752.495 29.1327C794.299 46.2766 833.987 68.8216 870.675 96.2659C871.309 96.7285 871.944 97.2066 872.564 97.6693C875.751 100.06 878.896 102.496 882.025 104.964V635.783H711.447L714.462 591.136L731.048 345.999H397.031L413.617 591.136L416.631 635.783H247.943V90.683C250.452 88.8632 252.976 87.0742 255.515 85.316ZM685.63 305.515H733.788L742.687 173.963H685.63V305.515ZM455.703 305.515H536.586V302.909C536.586 301.656 536.817 300.415 537.265 299.258C537.714 298.101 538.372 297.049 539.201 296.164C540.03 295.279 541.015 294.577 542.098 294.099C543.181 293.621 544.342 293.376 545.513 293.378H580.676C581.847 293.377 583.006 293.624 584.088 294.102C585.169 294.581 586.152 295.283 586.98 296.168C587.807 297.054 588.464 298.104 588.912 299.261C589.359 300.418 589.59 301.657 589.589 302.909V305.515H674.265V173.963H455.703V305.515ZM444.352 305.515V173.963H385.377L394.276 305.515H444.352Z" fill="#021E25"/>
<path d="M1132 670.621C1119.5 686.336 1105.98 701.104 1091.54 714.818L40.4563 716.345C26.0168 702.631 12.4984 687.862 1.68755e-05 672.147L1132 670.621Z" fill="#3F3D56"/>
<path d="M418.657 526.679V657.787C418.656 659.458 418.03 661.06 416.915 662.242C415.801 663.423 414.291 664.087 412.715 664.089H229.497C227.922 664.087 226.411 663.423 225.297 662.242C224.183 661.06 223.556 659.458 223.555 657.787V526.679C223.559 525.009 224.186 523.409 225.3 522.23C226.414 521.05 227.923 520.386 229.497 520.384H412.715C414.289 520.386 415.799 521.05 416.912 522.23C418.026 523.409 418.653 525.009 418.657 526.679Z" fill="#3F3D56"/>
<path d="M416.625 530.301V658.534C416.624 659.429 416.288 660.287 415.691 660.92C415.094 661.553 414.285 661.91 413.441 661.911H232.836C231.992 661.91 231.183 661.553 230.586 660.92C229.989 660.287 229.653 659.429 229.652 658.534V530.301C229.652 529.404 229.987 528.545 230.584 527.91C231.181 527.276 231.991 526.918 232.836 526.916H413.441C414.286 526.918 415.096 527.276 415.693 527.91C416.29 528.545 416.625 529.404 416.625 530.301Z" fill="#71C9CE"/>
<path d="M423.935 686.557C423.596 687.022 423.166 687.397 422.676 687.654C422.185 687.911 421.649 688.042 421.106 688.039H223.128C222.587 688.039 222.053 687.906 221.564 687.65C221.075 687.395 220.645 687.024 220.304 686.564C219.963 686.103 219.72 685.565 219.592 684.989C219.465 684.413 219.456 683.813 219.567 683.233L222.641 667.253C222.768 666.601 223.042 665.995 223.438 665.489C223.835 664.983 224.34 664.593 224.909 664.356C225.321 664.179 225.759 664.088 226.202 664.089H418.044C418.487 664.088 418.925 664.179 419.337 664.356C419.906 664.593 420.412 664.983 420.808 665.489C421.204 665.995 421.478 666.601 421.606 667.253L424.679 683.233C424.788 683.813 424.778 684.412 424.649 684.987C424.521 685.562 424.277 686.099 423.935 686.557Z" fill="#2F2E41"/>
<path d="M235.038 670.621H230.362C229.97 670.621 229.652 670.431 229.652 670.198V668.866C229.652 668.633 229.97 668.443 230.362 668.443H235.038C235.431 668.443 235.749 668.633 235.749 668.866V670.198C235.749 670.431 235.431 670.621 235.038 670.621Z" fill="#3F3D56"/>
<path d="M247.232 670.621H242.556C242.164 670.621 241.846 670.431 241.846 670.198V668.866C241.846 668.633 242.164 668.443 242.556 668.443H247.232C247.625 668.443 247.943 668.633 247.943 668.866V670.198C247.943 670.431 247.625 670.621 247.232 670.621Z" fill="#3F3D56"/>
<path d="M259.426 670.621H254.751C254.358 670.621 254.04 670.431 254.04 670.198V668.866C254.04 668.633 254.358 668.443 254.751 668.443H259.426C259.819 668.443 260.137 668.633 260.137 668.866V670.198C260.137 670.431 259.819 670.621 259.426 670.621Z" fill="#3F3D56"/>
<path d="M271.62 670.621H266.944C266.552 670.621 266.233 670.431 266.233 670.198V668.866C266.233 668.633 266.552 668.443 266.944 668.443H271.62C272.012 668.443 272.33 668.633 272.33 668.866V670.198C272.33 670.431 272.012 670.621 271.62 670.621Z" fill="#3F3D56"/>
<path d="M283.813 670.621H279.137C278.745 670.621 278.427 670.431 278.427 670.198V668.866C278.427 668.633 278.745 668.443 279.137 668.443H283.813C284.206 668.443 284.524 668.633 284.524 668.866V670.198C284.524 670.431 284.206 670.621 283.813 670.621Z" fill="#3F3D56"/>
<path d="M296.008 670.621H291.332C290.94 670.621 290.622 670.431 290.622 670.198V668.866C290.622 668.633 290.94 668.443 291.332 668.443H296.008C296.4 668.443 296.719 668.633 296.719 668.866V670.198C296.719 670.431 296.4 670.621 296.008 670.621Z" fill="#3F3D56"/>
<path d="M306.17 670.621H301.494C301.102 670.621 300.784 670.431 300.784 670.198V668.866C300.784 668.633 301.102 668.443 301.494 668.443H306.17C306.563 668.443 306.881 668.633 306.881 668.866V670.198C306.881 670.431 306.563 670.621 306.17 670.621Z" fill="#3F3D56"/>
<path d="M318.363 670.621H313.687C313.295 670.621 312.977 670.431 312.977 670.198V668.866C312.977 668.633 313.295 668.443 313.687 668.443H318.363C318.755 668.443 319.074 668.633 319.074 668.866V670.198C319.074 670.431 318.755 670.621 318.363 670.621Z" fill="#3F3D56"/>
<path d="M330.557 670.621H325.881C325.489 670.621 325.171 670.431 325.171 670.198V668.866C325.171 668.633 325.489 668.443 325.881 668.443H330.557C330.95 668.443 331.268 668.633 331.268 668.866V670.198C331.268 670.431 330.95 670.621 330.557 670.621Z" fill="#3F3D56"/>
<path d="M342.751 670.621H338.075C337.683 670.621 337.365 670.431 337.365 670.198V668.866C337.365 668.633 337.683 668.443 338.075 668.443H342.751C343.143 668.443 343.462 668.633 343.462 668.866V670.198C343.462 670.431 343.143 670.621 342.751 670.621Z" fill="#3F3D56"/>
<path d="M354.944 670.621H350.269C349.876 670.621 349.558 670.431 349.558 670.198V668.866C349.558 668.633 349.876 668.443 350.269 668.443H354.944C355.337 668.443 355.655 668.633 355.655 668.866V670.198C355.655 670.431 355.337 670.621 354.944 670.621Z" fill="#3F3D56"/>
<path d="M367.138 670.621H362.463C362.07 670.621 361.752 670.431 361.752 670.198V668.866C361.752 668.633 362.07 668.443 362.463 668.443H367.138C367.531 668.443 367.849 668.633 367.849 668.866V670.198C367.849 670.431 367.531 670.621 367.138 670.621Z" fill="#3F3D56"/>
<path d="M379.332 670.621H374.656C374.264 670.621 373.946 670.431 373.946 670.198V668.866C373.946 668.633 374.264 668.443 374.656 668.443H379.332C379.725 668.443 380.043 668.633 380.043 668.866V670.198C380.043 670.431 379.725 670.621 379.332 670.621Z" fill="#3F3D56"/>
<path d="M391.526 670.621H386.85C386.458 670.621 386.14 670.431 386.14 670.198V668.866C386.14 668.633 386.458 668.443 386.85 668.443H391.526C391.918 668.443 392.237 668.633 392.237 668.866V670.198C392.237 670.431 391.918 670.621 391.526 670.621Z" fill="#3F3D56"/>
<path d="M403.721 670.621H399.045C398.653 670.621 398.334 670.431 398.334 670.198V668.866C398.334 668.633 398.653 668.443 399.045 668.443H403.721C404.113 668.443 404.431 668.633 404.431 668.866V670.198C404.431 670.431 404.113 670.621 403.721 670.621Z" fill="#3F3D56"/>
<path d="M415.914 670.621H411.238C410.845 670.621 410.527 670.431 410.527 670.198V668.866C410.527 668.633 410.845 668.443 411.238 668.443H415.914C416.306 668.443 416.624 668.633 416.624 668.866V670.198C416.624 670.431 416.306 670.621 415.914 670.621Z" fill="#3F3D56"/>
<path d="M235.038 677.153H230.363C229.97 677.153 229.652 676.774 229.652 676.307V673.644C229.652 673.177 229.97 672.798 230.363 672.798H235.038C235.431 672.798 235.749 673.177 235.749 673.644V676.307C235.749 676.774 235.431 677.153 235.038 677.153Z" fill="#3F3D56"/>
<path d="M247.232 677.153H242.556C242.164 677.153 241.846 676.774 241.846 676.307V673.644C241.846 673.177 242.164 672.798 242.556 672.798H247.232C247.625 672.798 247.943 673.177 247.943 673.644V676.307C247.943 676.774 247.625 677.153 247.232 677.153Z" fill="#3F3D56"/>
<path d="M259.426 677.153H254.751C254.358 677.153 254.04 676.774 254.04 676.307V673.644C254.04 673.177 254.358 672.798 254.751 672.798H259.426C259.819 672.798 260.137 673.177 260.137 673.644V676.307C260.137 676.774 259.819 677.153 259.426 677.153Z" fill="#3F3D56"/>
<path d="M271.62 677.153H266.944C266.552 677.153 266.233 676.774 266.233 676.307V673.644C266.233 673.177 266.552 672.798 266.944 672.798H271.62C272.012 672.798 272.33 673.177 272.33 673.644V676.307C272.33 676.774 272.012 677.153 271.62 677.153Z" fill="#3F3D56"/>
<path d="M283.813 677.153H279.137C278.745 677.153 278.427 676.774 278.427 676.307V673.644C278.427 673.177 278.745 672.798 279.137 672.798H283.813C284.206 672.798 284.524 673.177 284.524 673.644V676.307C284.524 676.774 284.206 677.153 283.813 677.153Z" fill="#3F3D56"/>
<path d="M294.212 677.153H291.095C290.834 677.153 290.622 676.774 290.622 676.307V673.644C290.622 673.177 290.834 672.798 291.095 672.798H294.212C294.474 672.798 294.686 673.177 294.686 673.644V676.307C294.686 676.774 294.474 677.153 294.212 677.153Z" fill="#3F3D56"/>
<path d="M306.17 677.153H301.494C301.102 677.153 300.784 676.774 300.784 676.307V673.644C300.784 673.177 301.102 672.798 301.494 672.798H306.17C306.562 672.798 306.881 673.177 306.881 673.644V676.307C306.881 676.774 306.562 677.153 306.17 677.153Z" fill="#3F3D56"/>
<path d="M318.363 677.153H313.687C313.295 677.153 312.977 676.774 312.977 676.307V673.644C312.977 673.177 313.295 672.798 313.687 672.798H318.363C318.755 672.798 319.074 673.177 319.074 673.644V676.307C319.074 676.774 318.755 677.153 318.363 677.153Z" fill="#3F3D56"/>
<path d="M330.557 677.153H325.881C325.489 677.153 325.171 676.774 325.171 676.307V673.644C325.171 673.177 325.489 672.798 325.881 672.798H330.557C330.95 672.798 331.268 673.177 331.268 673.644V676.307C331.268 676.774 330.95 677.153 330.557 677.153Z" fill="#3F3D56"/>
<path d="M342.751 677.153H338.075C337.683 677.153 337.365 676.774 337.365 676.307V673.644C337.365 673.177 337.683 672.798 338.075 672.798H342.751C343.144 672.798 343.462 673.177 343.462 673.644V676.307C343.462 676.774 343.144 677.153 342.751 677.153Z" fill="#3F3D56"/>
<path d="M354.944 677.153H350.269C349.876 677.153 349.558 676.774 349.558 676.307V673.644C349.558 673.177 349.876 672.798 350.269 672.798H354.944C355.337 672.798 355.655 673.177 355.655 673.644V676.307C355.655 676.774 355.337 677.153 354.944 677.153Z" fill="#3F3D56"/>
<path d="M367.138 677.153H362.463C362.07 677.153 361.752 676.774 361.752 676.307V673.644C361.752 673.177 362.07 672.798 362.463 672.798H367.138C367.531 672.798 367.849 673.177 367.849 673.644V676.307C367.849 676.774 367.531 677.153 367.138 677.153Z" fill="#3F3D56"/>
<path d="M379.332 677.153H374.656C374.264 677.153 373.946 676.774 373.946 676.307V673.644C373.946 673.177 374.264 672.798 374.656 672.798H379.332C379.725 672.798 380.043 673.177 380.043 673.644V676.307C380.043 676.774 379.725 677.153 379.332 677.153Z" fill="#3F3D56"/>
<path d="M391.526 677.153H386.85C386.458 677.153 386.14 676.774 386.14 676.307V673.644C386.14 673.177 386.458 672.798 386.85 672.798H391.526C391.918 672.798 392.237 673.177 392.237 673.644V676.307C392.237 676.774 391.918 677.153 391.526 677.153Z" fill="#3F3D56"/>
<path d="M403.721 677.153H399.045C398.653 677.153 398.334 676.774 398.334 676.307V673.644C398.334 673.177 398.653 672.798 399.045 672.798H403.721C404.113 672.798 404.431 673.177 404.431 673.644V676.307C404.431 676.774 404.113 677.153 403.721 677.153Z" fill="#3F3D56"/>
<path d="M415.914 677.153H411.238C410.846 677.153 410.527 676.774 410.527 676.307V673.644C410.527 673.177 410.846 672.798 411.238 672.798H415.914C416.306 672.798 416.624 673.177 416.624 673.644V676.307C416.624 676.774 416.306 677.153 415.914 677.153Z" fill="#3F3D56"/>
<path d="M332.648 685.862H289.24C288.88 685.862 288.588 685.483 288.588 685.016V682.353C288.588 681.886 288.88 681.507 289.24 681.507H332.648C333.008 681.507 333.299 681.886 333.299 682.353V685.016C333.299 685.483 333.008 685.862 332.648 685.862Z" fill="#3F3D56"/>
<path d="M384.734 555.222H389.578C391.046 555.222 392.237 556.197 392.237 557.399C392.237 558.602 391.046 559.576 389.578 559.576H384.734C383.266 559.576 382.075 558.602 382.075 557.399C382.075 556.197 383.266 555.222 384.734 555.222Z" fill="white"/>
<path d="M335.959 555.222H340.802C342.271 555.222 343.461 556.197 343.461 557.399C343.461 558.602 342.271 559.576 340.802 559.576H335.959C334.49 559.576 333.3 558.602 333.3 557.399C333.3 556.197 334.49 555.222 335.959 555.222Z" fill="white"/>
<path d="M323.765 555.222H328.609C330.077 555.222 331.268 556.197 331.268 557.399C331.268 558.602 330.077 559.576 328.609 559.576H323.765C322.296 559.576 321.106 558.602 321.106 557.399C321.106 556.197 322.296 555.222 323.765 555.222Z" fill="white"/>
<path d="M351.542 555.222H373.995C375.091 555.222 375.979 556.196 375.979 557.399C375.979 558.602 375.091 559.576 373.995 559.576H351.542C350.446 559.576 349.558 558.602 349.558 557.399C349.558 556.196 350.446 555.222 351.542 555.222Z" fill="white"/>
<path d="M286.812 555.222H312.72C313.984 555.222 315.009 556.196 315.009 557.399C315.009 558.602 313.984 559.576 312.72 559.576H286.812C285.549 559.576 284.524 558.602 284.524 557.399C284.524 556.196 285.549 555.222 286.812 555.222Z" fill="white"/>
<path d="M371.477 566.108H374.383C375.264 566.108 375.979 566.596 375.979 567.197C375.979 567.798 375.264 568.286 374.383 568.286H371.477C370.596 568.286 369.882 567.798 369.882 567.197C369.882 566.596 370.596 566.108 371.477 566.108Z" fill="white"/>
<path d="M323.765 566.108H328.609C330.077 566.108 331.268 566.596 331.268 567.197C331.268 567.798 330.077 568.286 328.609 568.286H323.765C322.296 568.286 321.106 567.798 321.106 567.197C321.106 566.596 322.296 566.108 323.765 566.108Z" fill="white"/>
<path d="M311.571 566.108H316.415C317.883 566.108 319.074 566.596 319.074 567.197C319.074 567.798 317.883 568.286 316.415 568.286H311.571C310.103 568.286 308.912 567.798 308.912 567.197C308.912 566.596 310.103 566.108 311.571 566.108Z" fill="white"/>
<path d="M339.348 566.108H361.801C362.897 566.108 363.785 566.596 363.785 567.197C363.785 567.798 362.897 568.286 361.801 568.286H339.348C338.253 568.286 337.365 567.798 337.365 567.197C337.365 566.596 338.253 566.108 339.348 566.108Z" fill="white"/>
<path d="M274.618 566.108H300.526C301.79 566.108 302.814 566.596 302.814 567.197C302.814 567.798 301.79 568.286 300.526 568.286H274.618C273.354 568.286 272.33 567.798 272.33 567.197C272.33 566.596 273.354 566.108 274.618 566.108Z" fill="white"/>
<path d="M359.283 576.995H362.189C363.07 576.995 363.785 577.482 363.785 578.084C363.785 578.685 363.07 579.172 362.189 579.172H359.283C358.402 579.172 357.688 578.685 357.688 578.084C357.688 577.482 358.402 576.995 359.283 576.995Z" fill="white"/>
<path d="M311.571 576.995H316.415C317.883 576.995 319.074 577.482 319.074 578.084C319.074 578.685 317.883 579.172 316.415 579.172H311.571C310.103 579.172 308.912 578.685 308.912 578.084C308.912 577.482 310.103 576.995 311.571 576.995Z" fill="white"/>
<path d="M299.377 576.995H304.221C305.689 576.995 306.88 577.482 306.88 578.084C306.88 578.685 305.689 579.172 304.221 579.172H299.377C297.909 579.172 296.718 578.685 296.718 578.084C296.718 577.482 297.909 576.995 299.377 576.995Z" fill="white"/>
<path d="M323.395 574.818H349.303C350.567 574.818 351.591 575.793 351.591 576.995C351.591 578.198 350.567 579.172 349.303 579.172H323.395C322.131 579.172 321.107 578.198 321.107 576.995C321.107 575.793 322.131 574.818 323.395 574.818Z" fill="white"/>
<path d="M262.425 574.818H288.333C289.597 574.818 290.622 575.793 290.622 576.995C290.622 578.198 289.597 579.172 288.333 579.172H262.425C261.161 579.172 260.137 578.198 260.137 576.995C260.137 575.793 261.161 574.818 262.425 574.818Z" fill="white"/>
<path d="M345.589 585.704H349.464C350.639 585.704 351.591 587.167 351.591 588.97C351.591 590.774 350.639 592.236 349.464 592.236H345.589C344.414 592.236 343.462 590.774 343.462 588.97C343.462 587.167 344.414 585.704 345.589 585.704Z" fill="white"/>
<path d="M299.377 585.704H304.221C305.689 585.704 306.88 587.167 306.88 588.97C306.88 590.774 305.689 592.236 304.221 592.236H299.377C297.909 592.236 296.718 590.774 296.718 588.97C296.718 587.167 297.909 585.704 299.377 585.704Z" fill="white"/>
<path d="M287.184 585.704H292.028C293.496 585.704 294.687 587.167 294.687 588.97C294.687 590.774 293.496 592.236 292.028 592.236H287.184C285.715 592.236 284.525 590.774 284.525 588.97C284.525 587.167 285.715 585.704 287.184 585.704Z" fill="white"/>
<path d="M311.2 585.704H337.108C338.372 585.704 339.396 587.167 339.396 588.97C339.396 590.774 338.372 592.236 337.108 592.236H311.2C309.936 592.236 308.911 590.774 308.911 588.97C308.911 587.167 309.936 585.704 311.2 585.704Z" fill="white"/>
<path d="M335.959 631.429H340.802C342.271 631.429 343.461 631.916 343.461 632.517C343.461 633.118 342.271 633.606 340.802 633.606H335.959C334.49 633.606 333.3 633.118 333.3 632.517C333.3 631.916 334.49 631.429 335.959 631.429Z" fill="white"/>
<path d="M323.765 631.429H328.609C330.077 631.429 331.268 631.916 331.268 632.517C331.268 633.118 330.077 633.606 328.609 633.606H323.765C322.296 633.606 321.106 633.118 321.106 632.517C321.106 631.916 322.296 631.429 323.765 631.429Z" fill="white"/>
<path d="M286.812 631.429H312.72C313.984 631.429 315.009 632.403 315.009 633.606C315.009 634.808 313.984 635.783 312.72 635.783H286.812C285.549 635.783 284.524 634.808 284.524 633.606C284.524 632.403 285.549 631.429 286.812 631.429Z" fill="white"/>
<path d="M384.734 631.429H389.578C391.046 631.429 392.237 631.916 392.237 632.517C392.237 633.118 391.046 633.606 389.578 633.606H384.734C383.266 633.606 382.075 633.118 382.075 632.517C382.075 631.916 383.266 631.429 384.734 631.429Z" fill="white"/>
<path d="M351.542 631.429H373.995C375.091 631.429 375.979 632.403 375.979 633.606C375.979 634.808 375.091 635.783 373.995 635.783H351.542C350.446 635.783 349.558 634.808 349.558 633.606C349.558 632.403 350.446 631.429 351.542 631.429Z" fill="white"/>
<path d="M371.477 620.542H374.383C375.264 620.542 375.979 621.517 375.979 622.719C375.979 623.922 375.264 624.896 374.383 624.896H371.477C370.596 624.896 369.882 623.922 369.882 622.719C369.882 621.517 370.596 620.542 371.477 620.542Z" fill="white"/>
<path d="M323.765 620.542H328.609C330.077 620.542 331.268 621.517 331.268 622.719C331.268 623.922 330.077 624.896 328.609 624.896H323.765C322.296 624.896 321.106 623.922 321.106 622.719C321.106 621.517 322.296 620.542 323.765 620.542Z" fill="white"/>
<path d="M311.571 620.542H316.415C317.883 620.542 319.074 621.517 319.074 622.719C319.074 623.922 317.883 624.896 316.415 624.896H311.571C310.103 624.896 308.912 623.922 308.912 622.719C308.912 621.517 310.103 620.542 311.571 620.542Z" fill="white"/>
<path d="M339.348 620.542H361.801C362.897 620.542 363.785 621.517 363.785 622.719C363.785 623.922 362.897 624.896 361.801 624.896H339.348C338.253 624.896 337.365 623.922 337.365 622.719C337.365 621.517 338.253 620.542 339.348 620.542Z" fill="white"/>
<path d="M359.283 607.478H362.189C363.07 607.478 363.785 608.94 363.785 610.744C363.785 612.548 363.07 614.01 362.189 614.01H359.283C358.402 614.01 357.688 612.548 357.688 610.744C357.688 608.94 358.402 607.478 359.283 607.478Z" fill="white"/>
<path d="M311.571 607.478H316.415C317.883 607.478 319.074 608.94 319.074 610.744C319.074 612.548 317.883 614.01 316.415 614.01H311.571C310.103 614.01 308.912 612.548 308.912 610.744C308.912 608.94 310.103 607.478 311.571 607.478Z" fill="white"/>
<path d="M299.377 607.478H304.221C305.689 607.478 306.88 608.94 306.88 610.744C306.88 612.548 305.689 614.01 304.221 614.01H299.377C297.909 614.01 296.718 612.548 296.718 610.744C296.718 608.94 297.909 607.478 299.377 607.478Z" fill="white"/>
<path d="M323.395 607.478H349.303C350.567 607.478 351.591 608.94 351.591 610.744C351.591 612.548 350.567 614.01 349.303 614.01H323.395C322.131 614.01 321.107 612.548 321.107 610.744C321.107 608.94 322.131 607.478 323.395 607.478Z" fill="white"/>
<path d="M345.589 596.591H349.464C350.639 596.591 351.591 598.053 351.591 599.857C351.591 601.661 350.639 603.123 349.464 603.123H345.589C344.414 603.123 343.462 601.661 343.462 599.857C343.462 598.053 344.414 596.591 345.589 596.591Z" fill="white"/>
<path d="M299.377 596.591H304.221C305.689 596.591 306.88 598.053 306.88 599.857C306.88 601.661 305.689 603.123 304.221 603.123H299.377C297.909 603.123 296.718 601.661 296.718 599.857C296.718 598.053 297.909 596.591 299.377 596.591Z" fill="white"/>
<path d="M287.184 596.591H292.028C293.496 596.591 294.687 598.053 294.687 599.857C294.687 601.661 293.496 603.123 292.028 603.123H287.184C285.715 603.123 284.525 601.661 284.525 599.857C284.525 598.053 285.715 596.591 287.184 596.591Z" fill="white"/>
<path d="M311.2 596.591H337.108C338.372 596.591 339.396 598.053 339.396 599.857C339.396 601.661 338.372 603.123 337.108 603.123H311.2C309.936 603.123 308.911 601.661 308.911 599.857C308.911 598.053 309.936 596.591 311.2 596.591Z" fill="white"/>
<path d="M405.413 759.892L424.754 726.576L364.047 673.839L338.989 643.588C335.734 639.658 331.589 636.727 326.969 635.09C322.348 633.452 317.415 633.164 312.66 634.255C307.906 635.347 303.498 637.778 299.876 641.308C296.255 644.837 293.547 649.341 292.022 654.368C289.764 661.818 290.25 669.932 293.377 676.999C296.505 684.066 302.029 689.533 308.785 692.245L348.408 708.152L405.413 759.892Z" fill="#9D5E5E"/>
<path d="M857.637 523.465V679.33H751.957V523.465C751.955 522.344 752.301 521.252 752.945 520.35C753.588 519.447 754.494 518.781 755.531 518.45C756.02 518.284 756.531 518.201 757.046 518.207H852.533C853.203 518.206 853.866 518.341 854.485 518.604C855.104 518.868 855.666 519.255 856.14 519.743C856.614 520.232 856.99 520.812 857.247 521.45C857.504 522.089 857.637 522.774 857.637 523.465ZM816.395 577.021C816.367 573.948 815.166 571.011 813.054 568.848C810.941 566.686 808.087 565.472 805.113 565.472C802.139 565.472 799.286 566.686 797.173 568.848C795.06 571.011 793.859 573.948 793.832 577.021V595.106C793.847 598.187 795.042 601.137 797.156 603.31C799.27 605.483 802.131 606.703 805.113 606.703C808.095 606.703 810.956 605.483 813.07 603.31C815.184 601.137 816.379 598.187 816.395 595.106V577.021Z" fill="#2F2E41"/>
<path d="M857.637 672.798V691.001C857.635 691.944 857.337 692.847 856.809 693.516C856.281 694.184 855.565 694.564 854.816 694.571H754.778C754.029 694.567 753.311 694.188 752.782 693.519C752.253 692.85 751.957 691.945 751.957 691.001V672.798H857.637Z" fill="#3F3D56"/>
<path d="M1018.19 283.818V571.861C1018.19 575.531 1016.82 579.051 1014.4 581.646C1011.97 584.242 1008.68 585.701 1005.25 585.704H606.373C602.943 585.702 599.654 584.242 597.228 581.646C594.803 579.051 593.439 575.531 593.436 571.861V283.818C593.445 280.151 594.811 276.636 597.235 274.045C599.66 271.453 602.946 269.995 606.373 269.99H1005.25C1008.68 269.995 1011.97 271.453 1014.39 274.045C1016.82 276.636 1018.18 280.151 1018.19 283.818Z" fill="#3F3D56"/>
<path d="M1010.06 286.178V569.532C1010.06 571.51 1009.33 573.406 1008.03 574.805C1006.73 576.204 1004.97 576.992 1003.14 576.995H610.519C608.684 576.992 606.926 576.204 605.628 574.805C604.331 573.406 603.601 571.51 603.598 569.532V286.178C603.598 284.197 604.327 282.298 605.624 280.896C606.922 279.494 608.682 278.704 610.519 278.699H1003.14C1004.98 278.704 1006.74 279.494 1008.03 280.896C1009.33 282.298 1010.06 284.197 1010.06 286.178Z" fill="white"/>
<path d="M935.932 692.685C935.533 693.277 935.026 693.754 934.449 694.081C933.871 694.408 933.239 694.575 932.599 694.571H699.339C698.701 694.57 698.071 694.401 697.495 694.076C696.92 693.752 696.412 693.279 696.011 692.693C695.609 692.107 695.322 691.423 695.172 690.69C695.022 689.956 695.012 689.193 695.143 688.454L698.764 668.116C698.914 667.286 699.237 666.514 699.704 665.87C700.171 665.226 700.766 664.731 701.437 664.428C701.922 664.203 702.438 664.088 702.96 664.089H928.992C929.514 664.088 930.03 664.203 930.515 664.428C931.186 664.731 931.781 665.226 932.248 665.87C932.715 666.514 933.038 667.286 933.188 668.116L936.809 688.454C936.938 689.192 936.926 689.955 936.774 690.687C936.623 691.419 936.335 692.101 935.932 692.685Z" fill="#2F2E41"/>
<path d="M623.317 317.892H990.343C990.725 317.885 991.088 317.768 991.354 317.564C991.621 317.361 991.771 317.088 991.771 316.803C991.771 316.518 991.621 316.245 991.354 316.042C991.088 315.838 990.725 315.721 990.343 315.714H623.317C622.935 315.721 622.572 315.838 622.305 316.042C622.038 316.245 621.889 316.518 621.889 316.803C621.889 317.088 622.038 317.361 622.305 317.564C622.572 317.768 622.935 317.885 623.317 317.892Z" fill="#3F3D56"/>
<path d="M965.35 307.005C960.86 307.005 957.22 302.618 957.22 297.207C957.22 291.796 960.86 287.409 965.35 287.409C969.839 287.409 973.479 291.796 973.479 297.207C973.479 302.618 969.839 307.005 965.35 307.005Z" fill="#3F3D56"/>
<path d="M935.881 307.005C930.831 307.005 926.736 302.618 926.736 297.207C926.736 291.796 930.831 287.409 935.881 287.409C940.932 287.409 945.027 291.796 945.027 297.207C945.027 302.618 940.932 307.005 935.881 307.005Z" fill="#3F3D56"/>
<path d="M905.397 307.005C900.346 307.005 896.252 302.618 896.252 297.207C896.252 291.796 900.346 287.409 905.397 287.409C910.448 287.409 914.542 291.796 914.542 297.207C914.542 302.618 910.448 307.005 905.397 307.005Z" fill="#3F3D56"/>
<path d="M641.764 289.586H662.997C663.417 289.593 663.816 289.71 664.11 289.914C664.403 290.117 664.567 290.39 664.567 290.675C664.567 290.959 664.403 291.232 664.11 291.436C663.816 291.639 663.417 291.757 662.997 291.764H641.764C641.342 291.76 640.939 291.643 640.642 291.439C640.346 291.236 640.18 290.961 640.18 290.675C640.18 290.389 640.346 290.114 640.642 289.91C640.939 289.707 641.342 289.59 641.764 289.586Z" fill="#3F3D56"/>
<path d="M641.767 296.118H662.996C663.416 296.125 663.815 296.242 664.109 296.446C664.403 296.649 664.567 296.922 664.567 297.207C664.567 297.492 664.403 297.765 664.109 297.968C663.815 298.172 663.416 298.289 662.996 298.296H641.767C641.344 298.292 640.941 298.176 640.643 297.972C640.346 297.768 640.18 297.493 640.18 297.207C640.18 296.92 640.346 296.646 640.643 296.442C640.941 296.238 641.344 296.122 641.767 296.118Z" fill="#3F3D56"/>
<path d="M641.764 304.828H662.997C663.417 304.834 663.816 304.952 664.11 305.155C664.403 305.359 664.567 305.632 664.567 305.916C664.567 306.201 664.403 306.474 664.11 306.677C663.816 306.881 663.417 306.998 662.997 307.005H641.764C641.342 307.001 640.939 306.884 640.642 306.681C640.346 306.477 640.18 306.202 640.18 305.916C640.18 305.63 640.346 305.356 640.642 305.152C640.939 304.948 641.342 304.832 641.764 304.828Z" fill="#3F3D56"/>
<path d="M133.622 681.302C132.987 683.297 131.783 685.023 130.182 686.234C128.582 687.444 126.667 688.076 124.713 688.038L86.5391 686.977C84.5708 686.936 82.6676 686.208 81.1142 684.903C79.5608 683.597 78.4406 681.784 77.921 679.734L72.5191 617.385C70.6025 618.322 68.516 618.785 66.4124 618.739C64.5847 618.689 62.784 618.252 61.1131 617.451C59.4422 616.651 57.9337 615.503 56.6738 614.073C55.4139 612.643 54.4274 610.959 53.7704 609.117C53.1133 607.276 52.7987 605.313 52.8446 603.34C52.8905 601.367 53.2959 599.424 54.0377 597.62C54.7795 595.816 55.8431 594.188 57.1679 592.828C58.4927 591.468 60.0526 590.403 61.7586 589.694C63.4647 588.985 65.2835 588.645 67.1111 588.695C67.9519 588.692 68.7906 588.786 69.6129 588.976C70.5071 587.932 71.594 587.101 72.8036 586.538C74.0132 585.974 75.3188 585.691 76.6361 585.705L135.356 587.342C135.843 587.361 136.327 587.426 136.804 587.536C138.092 587.795 139.313 588.349 140.386 589.16C141.459 589.971 142.358 591.021 143.023 592.239C143.689 593.457 144.105 594.815 144.243 596.221C144.382 597.627 144.239 599.048 143.826 600.39L133.622 681.302ZM71.4113 613.151L67.5673 598.293C67.13 596.577 67.12 594.767 67.538 593.045C67.3515 593.044 67.1869 592.949 67.0004 592.948C64.3647 592.889 61.815 593.961 59.9103 595.928C58.0056 597.896 56.9013 600.598 56.8396 603.443C56.7779 606.287 57.7638 609.042 59.5811 611.104C61.3984 613.165 63.8989 614.364 66.5342 614.439C68.2381 614.496 69.9243 614.051 71.4113 613.151Z" fill="#021E25"/>
<path d="M138.197 587.398C136.902 594.528 122.343 599.542 104.836 598.67C88.7377 597.956 75.5747 592.512 73.1632 586.06C74.0557 585.806 74.9837 585.686 75.9142 585.707L136.698 587.218C137.202 587.236 137.704 587.296 138.197 587.398Z" fill="#3F3D56"/>
<path d="M102.162 648.82C102.068 648.797 101.979 648.757 101.898 648.704L91.8499 642.094C91.7284 642.015 91.6286 641.906 91.5595 641.778C91.4904 641.65 91.4541 641.506 91.4541 641.36C91.454 641.215 91.4902 641.071 91.5592 640.943C91.6282 640.815 91.7279 640.706 91.8493 640.626L102.293 633.752C102.389 633.688 102.497 633.644 102.61 633.622C102.722 633.6 102.838 633.601 102.951 633.624C103.064 633.647 103.171 633.693 103.266 633.758C103.361 633.823 103.442 633.906 103.505 634.002C103.568 634.099 103.611 634.207 103.633 634.321C103.654 634.434 103.653 634.551 103.629 634.664C103.606 634.777 103.56 634.884 103.495 634.979C103.43 635.074 103.347 635.156 103.251 635.219L93.9221 641.359L102.854 647.235C103.027 647.349 103.154 647.521 103.213 647.72C103.272 647.919 103.259 648.132 103.176 648.323C103.093 648.513 102.945 648.667 102.76 648.758C102.574 648.849 102.362 648.871 102.162 648.82Z" fill="#71C9CE"/>
<path d="M114.47 648.82C114.301 648.778 114.149 648.685 114.032 648.555C113.916 648.424 113.841 648.262 113.818 648.089C113.794 647.916 113.822 647.739 113.899 647.582C113.976 647.425 114.098 647.295 114.249 647.208L123.533 641.871L114.56 635.187C114.468 635.118 114.39 635.032 114.331 634.933C114.272 634.834 114.233 634.725 114.216 634.611C114.2 634.497 114.205 634.381 114.233 634.269C114.261 634.158 114.311 634.052 114.38 633.96C114.448 633.867 114.534 633.79 114.633 633.73C114.731 633.671 114.84 633.632 114.954 633.615C115.068 633.599 115.184 633.604 115.295 633.632C115.406 633.661 115.511 633.71 115.603 633.779L125.65 641.262C125.766 641.349 125.86 641.463 125.921 641.595C125.983 641.727 126.01 641.873 126.002 642.018C125.993 642.164 125.949 642.305 125.872 642.429C125.796 642.552 125.69 642.655 125.564 642.728L115.12 648.731C114.923 648.844 114.69 648.876 114.47 648.82Z" fill="#71C9CE"/>
<path d="M102.202 653.179C102.127 653.161 102.055 653.131 101.989 653.091C101.902 653.04 101.826 652.972 101.766 652.892C101.705 652.812 101.662 652.721 101.638 652.625C101.614 652.528 101.609 652.428 101.625 652.33C101.64 652.232 101.676 652.138 101.729 652.053L114.401 631.79C114.509 631.619 114.682 631.497 114.882 631.45C115.082 631.403 115.293 631.435 115.469 631.539C115.645 631.643 115.771 631.811 115.82 632.006C115.868 632.2 115.836 632.406 115.729 632.577L103.057 652.84C102.97 652.978 102.84 653.085 102.687 653.146C102.533 653.207 102.363 653.218 102.202 653.179Z" fill="#71C9CE"/>
<path d="M713.343 582.227L713.031 583.284L713.015 583.319L703.638 613.955L692.852 649.259L672.557 715.604L672.361 725.91V725.945L670.853 808.849L675.033 820.089L670.328 838.516C670.328 838.516 672.492 810.661 684.098 826.657C690.672 835.748 698.36 845.049 704.671 853.77C695.475 857.769 686.131 861.386 676.639 864.622C674.59 865.326 672.525 865.996 670.459 866.665C670.017 866.806 669.574 866.947 669.131 867.088C637.669 877.087 605.142 882.706 572.348 883.806C570.643 883.859 568.971 883.894 567.348 883.93C566.775 883.947 566.217 883.965 565.66 883.965C563.824 883.982 562.004 884 560.168 884C556.464 884 552.775 883.941 549.103 883.824C521.925 883.001 494.905 879.074 468.5 872.109C468.68 860.394 469.172 846.705 469.877 832.084C470.205 824.913 477.565 817.144 478.008 809.64C478.319 804.002 471.713 798.7 472.057 792.974C474.286 757.723 477.073 771.255 479.139 746.292C479.352 743.843 479.548 741.5 479.729 739.263C481.057 723.232 481.975 713.208 481.975 713.208L473.155 653.469L459.303 559.678L460.369 557.793L461.565 557.159L534.628 518.296L538.595 507.374C539.751 504.227 541.757 501.524 544.354 499.612C546.951 497.7 550.021 496.667 553.169 496.645L601.298 496.434C603.796 496.422 606.26 497.05 608.487 498.266C610.713 499.482 612.638 501.252 614.101 503.428L627.133 522.824L713.343 582.227Z" fill="#021E25"/>
<path d="M660.502 700.407L671.559 725.251L679.107 742.221L692.092 813.612L698.593 820.857L704.163 795.207L762.458 808.799C764.37 797.643 762.97 809.177 764.15 796.938C763.818 796.589 763.469 796.24 763.12 795.89C762.189 794.983 761.407 794.127 761.424 793.307C762.089 751.09 760.094 679.246 743.434 635.721C740.825 628.614 737.385 621.875 733.192 615.66C732.86 615.189 732.544 614.717 732.228 614.246C724.547 602.95 719.692 591.828 712.808 583.919V583.902C712.766 583.866 712.727 583.825 712.692 583.78C712.667 583.767 712.645 583.749 712.626 583.727L665.341 557.399L663.312 617.249L661.866 660.268L660.502 700.407Z" fill="#021E25"/>
<path d="M491.821 707.648L478.182 738.843L473.422 749.707L460.602 821.471L454.203 828.737L448.69 802.957L446.1 802.389L399.383 792.046L385.766 838.276C382.697 832.809 381.488 826.378 382.343 820.068C383.199 813.759 386.066 807.959 390.46 803.648C391.39 802.749 392.165 801.873 392.143 801.045C391.368 751.128 394.224 659.979 420.018 622.464C428.21 610.559 433.125 598.701 440.277 590.417C440.299 590.393 440.299 590.37 440.321 590.37L457.724 559.908L458.787 558.038L459.982 557.399L491.821 707.648Z" fill="#021E25"/>
<path d="M575.145 481.192C539.228 481.192 510.111 450.485 510.111 412.606C510.111 374.727 539.228 344.02 575.145 344.02C611.062 344.02 640.179 374.727 640.179 412.606C640.179 450.485 611.062 481.192 575.145 481.192Z" fill="#9D5E5E"/>
<path d="M491.08 363.625C491.572 363.044 492.165 362.579 492.824 362.257C493.482 361.936 494.193 361.764 494.913 361.752L493.958 358.825C493.647 357.904 493.563 356.907 493.715 355.937C493.867 354.968 494.249 354.06 494.824 353.308C495.398 352.555 496.143 351.985 496.982 351.655C497.822 351.325 498.726 351.247 499.601 351.43L503.078 352.17L502.751 349.605C502.625 348.65 502.727 347.675 503.046 346.776C503.365 345.877 503.89 345.086 504.57 344.479C505.25 343.873 506.062 343.472 506.924 343.317C507.787 343.162 508.672 343.257 509.491 343.594C510.236 343.918 511.038 344.054 511.837 343.991C512.635 343.928 513.412 343.669 514.108 343.232C514.807 342.809 515.414 342.222 515.887 341.512C516.359 340.803 516.686 339.988 516.844 339.125L518.055 332.674L518.183 332.328C524.083 321.471 535.426 313.572 549.305 310.676C561.66 308.08 574.328 309.402 586.54 310.645C591.385 311.148 596.857 311.715 601.417 314.799C605.293 317.442 608.571 322.729 607.901 328.063C619.942 323.988 632.853 332.123 639.251 342.382C646.832 354.593 648.072 369.887 648.271 381.846C648.813 410.137 643.526 433.283 632.596 450.655C631.798 451.914 631.599 454.541 630.017 455.422L630.345 454.84C628.578 455.816 626.782 457.389 627.452 459.073C629.376 463.919 616.594 474.635 607.588 478.175C591.157 484.642 569.312 484.092 553.951 481.763L553.409 477.75C547.866 476.916 543.962 475.327 542.864 472.841C540.926 471.016 539.273 469.379 537.834 467.869L537.82 467.853C537.791 467.822 537.734 467.774 537.706 467.743C530.766 460.395 529.156 456.209 528.429 449.837C527.731 443.59 528.971 437.249 530.239 431.537C503.534 436.1 540.755 400.13 515.875 393.175C515.59 393.078 515.299 392.999 515.006 392.939C514.279 392.75 513.552 392.561 512.854 392.341C509.488 391.332 506.265 389.812 503.278 387.825C496.324 383.152 494.03 376.952 490.439 369.966C489.92 368.971 489.703 367.82 489.819 366.679C489.934 365.539 490.376 364.469 491.08 363.625Z" fill="#15141C"/>
<path d="M349.559 713.12C349.573 715.819 349.602 719.596 349.716 724.268C349.731 724.916 349.745 725.579 349.759 726.258C349.946 734.846 350.132 742.047 350.433 750.05C350.448 750.605 350.462 751.145 350.491 751.7C350.892 762.864 351.523 775.862 352.613 796.448C354.634 834.472 358.162 801.675 361.703 815.013C361.875 815.676 362.061 816.462 362.233 817.387C362.77 820.744 363.675 824.021 364.929 827.148C366.807 828.351 368.743 829.507 370.65 830.664C376.084 833.917 381.604 837.047 387.167 840.023C390.293 841.689 393.433 843.323 396.587 844.896C397.089 845.143 397.576 845.389 398.064 845.621C414.217 853.656 430.864 860.487 447.888 866.067C451.215 867.146 454.527 868.195 457.882 869.166C461.38 870.215 464.879 871.202 468.42 872.127C494.766 879.083 521.724 883.006 548.842 883.83C552.498 883.954 556.183 884 559.882 884C561.717 884 563.524 883.985 565.359 883.969C565.918 883.969 566.477 883.954 567.036 883.938C568.657 883.892 570.334 883.861 572.026 883.815C604.747 882.717 637.201 877.105 668.592 867.116L669.925 866.699C671.99 866.021 674.04 865.358 676.091 864.648C685.554 861.426 694.878 857.818 704.064 853.824C711.075 850.786 718.005 847.528 724.854 844.048C724.917 844.03 724.975 843.998 725.026 843.955C726.46 843.246 727.908 842.506 729.342 841.75C729.528 841.642 729.729 841.534 729.93 841.426C735.278 838.62 740.569 835.68 745.802 832.607C750.204 821.736 756.398 819.654 760.24 810.094C761.359 807.254 762.167 804.284 762.649 801.243C762.649 801.212 762.663 801.181 762.663 801.135C762.262 806.871 764.369 790.958 762.678 801.073C762.692 800.888 762.706 800.688 762.721 800.457C762.764 799.901 762.821 799.223 762.907 798.375C767.825 746.735 767.509 687.678 769.646 639.014C769.789 635.868 769.937 632.856 770.09 629.978C770.133 629.022 770.191 628.081 770.248 627.156C770.148 626.878 770.033 626.585 769.904 626.308C769.876 626.228 769.843 626.15 769.804 626.076C769.761 625.981 769.713 625.888 769.66 625.799C769.632 625.753 769.588 625.691 769.56 625.645C769.539 625.592 769.515 625.54 769.488 625.491C769.359 625.275 769.216 625.043 769.058 624.827C768.986 624.735 768.929 624.658 768.857 624.581C768.808 624.502 768.75 624.43 768.685 624.365C768.641 624.291 768.588 624.223 768.527 624.164C768.47 624.103 768.413 624.026 768.341 623.949C768.31 623.9 768.272 623.858 768.226 623.825C768.113 623.685 767.988 623.556 767.854 623.44C767.342 622.934 766.796 622.47 766.219 622.052C766.018 621.913 765.803 621.774 765.603 621.62C764.158 620.691 762.636 619.906 761.057 619.276C760.513 619.061 759.968 618.86 759.38 618.644C759.165 618.583 758.964 618.506 758.749 618.428C758.434 618.32 758.118 618.213 757.788 618.135C756.154 617.611 754.39 617.164 752.483 616.748C752.254 616.701 752.01 616.655 751.766 616.593C751.422 616.516 751.064 616.455 750.705 616.393C750.218 616.301 749.716 616.208 749.214 616.115C744.956 615.391 740.124 614.851 734.79 614.496C734.288 614.466 733.787 614.435 733.285 614.404C732.697 614.373 732.109 614.342 731.507 614.311C731.005 614.281 730.489 614.265 729.973 614.25C729.471 614.219 728.955 614.203 728.424 614.188C726.976 614.142 725.485 614.095 723.965 614.065C719.635 613.972 715.076 614.003 710.287 614.111C708.064 614.173 705.799 614.234 703.476 614.342C703.318 614.342 703.175 614.358 703.032 614.358C701.01 614.435 698.974 614.527 696.881 614.651C695.418 614.728 693.942 614.805 692.465 614.897C691.074 614.99 689.669 615.082 688.249 615.19C687.145 615.252 686.041 615.344 684.923 615.422C683.977 615.499 683.03 615.576 682.084 615.637L680.794 615.73C680.091 615.792 679.389 615.838 678.672 615.915C677.095 616.054 675.517 616.193 673.911 616.331C672.32 616.486 670.7 616.64 669.08 616.794C667.459 616.948 665.825 617.118 664.19 617.287C664.018 617.303 663.861 617.318 663.703 617.334C662.212 617.503 660.721 617.657 659.215 617.827C658.871 617.858 658.513 617.889 658.168 617.935C656.733 618.09 655.27 618.272 653.821 618.437C653.377 618.489 652.934 618.539 652.489 618.591C651.354 618.724 650.235 618.839 649.093 618.984C647.587 619.169 646.053 619.338 644.562 619.554C643.4 619.693 642.239 619.832 641.078 619.986C639.257 620.217 637.407 620.464 635.558 620.726C634.855 620.818 634.153 620.911 633.45 621.019C628.174 621.728 622.84 622.515 617.42 623.332C609.205 624.581 600.86 625.938 592.458 627.403C584.041 628.867 575.577 630.415 567.065 632.044C564.915 632.46 562.764 632.877 560.599 633.308C559.624 633.509 558.649 633.709 557.674 633.91C556.011 634.233 554.348 634.573 552.684 634.912C551.021 635.251 549.358 635.59 547.695 635.945C545.716 636.361 543.723 636.778 541.745 637.194C528.711 639.969 515.75 642.93 503.104 646.029C501.025 646.538 498.946 647.063 496.881 647.571C492.752 648.605 488.661 649.653 484.608 650.717C483.489 650.995 482.385 651.287 481.281 651.58C478.529 652.321 475.776 653.061 473.066 653.816L472.593 653.955C470.6 654.479 468.65 655.019 466.7 655.574C462.097 656.869 457.571 658.18 453.122 659.506C450.168 660.385 447.248 661.274 444.361 662.174C440.046 663.515 435.816 664.872 431.701 666.244C430.683 666.584 429.665 666.923 428.661 667.247C425.65 668.249 422.682 669.267 419.8 670.284C417.506 671.086 415.27 671.904 413.062 672.721C410.854 673.538 408.688 674.355 406.566 675.172C405.204 675.697 403.857 676.252 402.509 676.776C400.573 677.547 398.666 678.318 396.802 679.089C396.229 679.32 395.67 679.567 395.11 679.798C394.752 679.968 394.408 680.107 394.064 680.261C393.39 680.554 392.702 680.831 392.042 681.124C391.368 681.402 390.709 681.695 390.049 682.003C389.404 682.281 388.744 682.574 388.114 682.867C387.468 683.144 386.837 683.437 386.207 683.746C385.676 683.977 385.16 684.224 384.658 684.47C383.64 684.948 382.622 685.426 381.633 685.92C381.145 686.167 380.658 686.398 380.17 686.645L379.052 687.2C378.894 687.292 378.737 687.369 378.579 687.446C378.22 687.631 377.848 687.832 377.489 688.017C376.658 688.433 375.84 688.88 375.037 689.297C373.962 689.883 372.915 690.469 371.912 691.039C370.894 691.625 369.904 692.211 368.958 692.782C368.8 692.874 368.657 692.967 368.499 693.059C368.284 693.182 368.069 693.321 367.854 693.445C367.123 693.892 366.42 694.354 365.718 694.802C364.341 695.711 363.037 696.606 361.818 697.5C361.545 697.7 361.287 697.901 361.015 698.086C360.112 698.78 359.251 699.458 358.448 700.152C358.448 700.167 358.448 700.168 358.434 700.168C358.162 700.383 357.903 700.615 357.645 700.831C357.43 701.046 357.201 701.231 356.986 701.447C356.24 702.141 355.552 702.804 354.921 703.483C354.71 703.692 354.509 703.913 354.319 704.146C354.236 704.22 354.159 704.303 354.09 704.392C353.803 704.701 353.545 705.009 353.301 705.318C353.263 705.36 353.23 705.407 353.201 705.456C352.857 705.888 352.541 706.32 352.24 706.752C352.097 706.968 351.939 707.183 351.81 707.399C351.638 707.661 351.466 707.939 351.322 708.201C351.193 708.417 351.079 708.648 350.964 708.864C350.66 709.42 350.401 710.003 350.19 710.607C350.029 711.016 349.899 711.439 349.803 711.871C349.694 712.281 349.612 712.698 349.559 713.12Z" fill="#2F2E41"/>
<path opacity="0.2" d="M349.559 713.574C349.573 716.285 349.602 720.08 349.716 724.774C349.731 725.425 349.759 726.091 349.774 726.773C349.917 733.357 350.132 741.49 350.433 750.677C350.448 751.235 350.462 751.777 350.491 752.334C350.892 763.551 351.523 776.61 352.613 797.292C354.634 835.495 358.161 802.544 361.703 815.945C371.538 809.407 382.32 802.559 393.847 795.526C395.926 794.256 398.024 792.98 400.141 791.7C423.196 777.803 448.946 763.241 475.829 748.818C476.89 748.245 477.965 747.671 479.026 747.114C540.605 714.224 607.819 682.233 662.273 660.885C672.782 656.764 682.818 653.046 692.252 649.777C712.124 642.915 729.3 638.112 742.519 636.036C756.283 633.867 765.789 634.642 769.632 639.119C769.775 635.959 769.923 632.933 770.076 630.041C770.133 629.08 770.191 628.135 770.248 627.206C770.16 626.951 770.045 626.707 769.933 626.462C769.917 626.426 769.906 626.389 769.89 626.354C769.862 626.273 769.829 626.195 769.789 626.121C769.747 626.025 769.699 625.932 769.646 625.842C769.599 625.733 769.542 625.629 769.474 625.532C769.345 625.316 769.201 625.083 769.044 624.866C768.928 624.704 768.803 624.549 768.671 624.401C768.627 624.327 768.574 624.259 768.513 624.2C768.456 624.138 768.399 624.061 768.327 623.983C768.296 623.934 768.257 623.893 768.212 623.859C768.099 623.719 767.974 623.589 767.839 623.472C767.328 622.964 766.781 622.497 766.205 622.078C766.004 621.938 765.789 621.799 765.588 621.644C764.143 620.71 762.622 619.922 761.043 619.289C760.499 619.072 759.954 618.871 759.366 618.654C759.151 618.592 758.95 618.515 758.735 618.437C758.42 618.329 758.104 618.22 757.774 618.143C756.14 617.616 754.377 617.167 752.47 616.749C751.896 616.625 751.294 616.501 750.692 616.392C750.204 616.299 749.702 616.206 749.201 616.113C744.942 615.385 740.111 614.843 734.777 614.487C734.275 614.456 733.774 614.425 733.272 614.394C732.684 614.363 732.096 614.332 731.494 614.301C730.992 614.27 730.476 614.254 729.96 614.239C729.458 614.208 728.942 614.192 728.411 614.177C726.963 614.13 725.472 614.084 723.952 614.053C719.623 613.975 715.063 614.006 710.274 614.115C708.052 614.161 705.787 614.239 703.464 614.347C703.321 614.347 703.163 614.363 703.02 614.363C700.998 614.425 698.948 614.533 696.869 614.642C695.407 614.719 693.93 614.797 692.453 614.889C691.062 614.982 689.657 615.075 688.238 615.184C687.134 615.246 686.03 615.339 684.912 615.416C683.965 615.494 683.019 615.571 682.073 615.633C680.94 615.726 679.807 615.819 678.66 615.912C677.083 616.051 675.506 616.191 673.9 616.33C672.309 616.485 670.689 616.64 669.069 616.795C667.449 616.95 665.814 617.12 664.18 617.291C664.008 617.306 663.85 617.322 663.692 617.337C662.201 617.508 660.71 617.663 659.205 617.833C650.86 618.747 642.272 619.816 633.44 621.04C628.164 621.768 622.821 622.548 617.411 623.379C609.196 624.634 600.851 625.997 592.449 627.453C584.033 628.925 575.569 630.48 567.058 632.117C564.907 632.535 562.757 632.953 560.592 633.387C557.954 633.914 555.315 634.451 552.677 634.998C551.014 635.339 549.351 635.68 547.688 636.036C545.709 636.454 543.716 636.873 541.738 637.291C528.705 640.079 515.744 643.054 503.098 646.168C501.02 646.679 498.941 647.206 496.876 647.717C492.747 648.755 488.656 649.808 484.603 650.877C483.485 651.172 482.381 651.466 481.277 651.76C478.51 652.504 475.771 653.248 473.062 653.991V654.007C472.904 654.038 472.746 654.084 472.588 654.131C470.61 654.673 468.646 655.215 466.696 655.773C462.093 657.074 457.568 658.386 453.118 659.708C450.165 660.606 447.24 661.489 444.358 662.388C440.042 663.751 435.813 665.114 431.698 666.478C430.68 666.819 429.662 667.159 428.658 667.485C425.648 668.507 422.694 669.525 419.798 670.537C417.504 671.342 415.267 672.163 413.059 672.984C410.851 673.806 408.686 674.627 406.564 675.448C405.188 675.974 403.84 676.517 402.507 677.043C400.557 677.818 398.665 678.593 396.801 679.383C396.227 679.615 395.668 679.863 395.109 680.095C394.062 680.529 393.044 680.978 392.041 681.428C391.367 681.706 390.707 682.001 390.048 682.311C389.403 682.589 388.743 682.884 388.112 683.178C387.467 683.457 386.836 683.751 386.205 684.061C385.675 684.294 385.159 684.541 384.657 684.789C383.639 685.27 382.621 685.75 381.632 686.246C381.144 686.493 380.657 686.726 380.169 686.974L379.051 687.531C378.893 687.624 378.735 687.702 378.578 687.779C377.359 688.399 376.183 689.019 375.036 689.638C373.961 690.227 372.914 690.816 371.911 691.389C370.721 692.07 369.588 692.737 368.499 693.418C368.284 693.542 368.068 693.682 367.853 693.806C367.122 694.255 366.42 694.72 365.717 695.169C364.341 696.083 363.036 696.981 361.817 697.88C360.613 698.779 359.495 699.662 358.448 700.545C358.448 700.56 358.448 700.56 358.434 700.56C357.932 700.994 357.444 701.428 356.986 701.846C356.24 702.543 355.552 703.209 354.921 703.891C354.709 704.101 354.509 704.324 354.319 704.557C354.235 704.632 354.159 704.715 354.089 704.805C353.788 705.161 353.487 705.518 353.2 705.874C352.856 706.308 352.541 706.741 352.24 707.175C352.096 707.392 351.939 707.609 351.81 707.826C351.638 708.089 351.466 708.368 351.322 708.631C351.193 708.848 351.078 709.081 350.964 709.298C350.659 709.856 350.4 710.442 350.19 711.048C350.033 711.461 349.903 711.886 349.802 712.319C349.694 712.73 349.612 713.15 349.559 713.574Z" fill="black"/>
<path d="M698.02 514.889L909.078 513.852C912.701 513.83 916.201 512.536 918.811 510.254C921.421 507.971 922.927 504.886 922.999 501.676L925.942 362.131C925.989 359.779 924.981 357.53 923.139 355.876C921.297 354.222 918.772 353.299 916.118 353.309L697.925 354.381C695.225 354.397 692.616 355.362 690.671 357.063C688.726 358.764 687.604 361.063 687.55 363.456L684.61 502.847C684.546 506.057 685.922 509.128 688.436 511.386C690.95 513.643 694.397 514.903 698.02 514.889Z" fill="#E6E6E6"/>
<path d="M895.783 502.135L711.454 503.154C707.943 503.173 704.604 501.954 702.17 499.764C699.736 497.575 698.407 494.595 698.475 491.479L700.941 378.741C701.009 375.625 702.469 372.63 704.999 370.413C707.529 368.196 710.923 366.94 714.433 366.92L898.762 365.902C902.273 365.883 905.612 367.102 908.046 369.291C910.48 371.481 911.809 374.461 911.74 377.577L909.275 490.315C909.241 491.858 908.865 493.387 908.169 494.816C907.473 496.245 906.469 497.545 905.217 498.643C903.964 499.741 902.486 500.614 900.867 501.213C899.249 501.812 897.521 502.126 895.783 502.135Z" fill="white"/>
<path d="M884.735 418.654L893.916 418.542C894.413 418.536 894.896 418.351 895.258 418.028C895.619 417.705 895.83 417.271 895.845 416.821L896.095 408.519C896.108 408.068 895.923 407.639 895.581 407.325C895.238 407.011 894.766 406.838 894.268 406.843L885.088 406.955C884.59 406.962 884.107 407.147 883.745 407.469C883.384 407.792 883.173 408.226 883.159 408.676L882.908 416.979C882.895 417.429 883.08 417.858 883.422 418.172C883.765 418.486 884.237 418.659 884.735 418.654Z" fill="#71C9CE"/>
<path d="M883.602 439.763L892.783 439.652C893.281 439.645 893.764 439.46 894.125 439.137C894.487 438.815 894.698 438.381 894.712 437.93L894.963 429.628C894.976 429.178 894.791 428.749 894.448 428.435C894.106 428.12 893.634 427.947 893.136 427.953L883.955 428.065C883.457 428.071 882.975 428.256 882.613 428.579C882.251 428.901 882.04 429.335 882.026 429.786L881.776 438.088C881.763 438.538 881.948 438.968 882.29 439.282C882.633 439.596 883.105 439.769 883.602 439.763Z" fill="#3F3D56"/>
<path d="M883.775 460.345L892.889 460.395C893.383 460.397 893.858 460.231 894.21 459.932C894.562 459.633 894.761 459.227 894.765 458.802L894.823 450.964C894.826 450.539 894.632 450.131 894.285 449.828C893.938 449.526 893.465 449.354 892.971 449.351L883.857 449.301C883.363 449.299 882.888 449.465 882.536 449.764C882.184 450.062 881.985 450.469 881.981 450.894L881.923 458.731C881.92 459.156 882.114 459.565 882.461 459.867C882.808 460.17 883.281 460.342 883.775 460.345Z" fill="#CCCCCC"/>
<path d="M824.42 415.141L868.461 414.518C868.707 414.515 868.952 414.468 869.182 414.38C869.412 414.291 869.623 414.163 869.803 414.003C869.982 413.843 870.126 413.653 870.227 413.445C870.328 413.237 870.384 413.015 870.391 412.792C870.398 412.568 870.357 412.347 870.269 412.142C870.182 411.937 870.05 411.751 869.881 411.596C869.712 411.44 869.509 411.318 869.285 411.236C869.06 411.154 868.818 411.114 868.572 411.118L824.531 411.741C824.285 411.744 824.04 411.791 823.809 411.879C823.579 411.968 823.369 412.096 823.189 412.256C823.01 412.417 822.866 412.606 822.765 412.814C822.664 413.022 822.608 413.244 822.601 413.468C822.593 413.691 822.635 413.912 822.722 414.117C822.81 414.323 822.942 414.508 823.111 414.664C823.28 414.819 823.482 414.941 823.707 415.023C823.932 415.105 824.174 415.145 824.42 415.141Z" fill="#CCCCCC"/>
<path d="M824.591 435.722L868.365 435.757C868.858 435.757 869.333 435.587 869.686 435.284C870.038 434.98 870.24 434.568 870.246 434.139C870.252 433.709 870.061 433.297 869.717 432.993C869.373 432.689 868.902 432.517 868.409 432.517L824.635 432.482C824.391 432.481 824.148 432.523 823.921 432.604C823.694 432.685 823.487 432.804 823.312 432.954C823.137 433.104 822.997 433.283 822.901 433.48C822.805 433.676 822.753 433.887 822.751 434.1C822.748 434.313 822.793 434.524 822.884 434.721C822.975 434.918 823.11 435.097 823.281 435.247C823.451 435.398 823.655 435.517 823.88 435.599C824.105 435.68 824.346 435.722 824.591 435.722Z" fill="#CCCCCC"/>
<path d="M823.457 456.827L867.507 456.204C868.003 456.197 868.485 456.011 868.846 455.687C869.207 455.363 869.418 454.928 869.432 454.477C869.447 454.026 869.264 453.596 868.924 453.282C868.584 452.968 868.114 452.796 867.618 452.803L823.568 453.426C823.072 453.433 822.59 453.619 822.229 453.943C821.868 454.266 821.657 454.702 821.642 455.153C821.628 455.604 821.811 456.033 822.151 456.347C822.491 456.661 822.961 456.834 823.457 456.827Z" fill="#CCCCCC"/>
<path d="M715.933 437.712C715.875 437.014 715.837 436.311 715.826 435.601C715.681 426.351 719.676 417.341 726.932 410.552C734.188 403.764 744.11 399.753 754.516 399.402L755.095 436.392L715.933 437.712Z" fill="#71C9CE"/>
<path d="M758.045 439.392L757.604 402.304C765.217 402.024 772.688 403.749 779.095 407.264C785.502 410.78 790.565 415.933 793.659 422.088C796.754 428.243 797.744 435.131 796.51 441.902C795.275 448.674 791.868 455.033 786.71 460.195C781.551 465.357 774.866 469.097 767.48 470.953C760.094 472.809 752.328 472.701 745.142 470.641C737.955 468.58 731.662 464.659 727.037 459.36C722.413 454.061 719.659 447.616 719.117 440.819L758.045 439.392Z" fill="#3F3D56"/>
</svg>
