<svg width="1107" height="1107" viewBox="0 0 1107 1107" fill="none" xmlns="http://www.w3.org/2000/svg">
<path d="M758.775 0L657.763 36.9C554.854 73.8 355.676 147.6 278.376 221.4C203.921 295.2 251.344 369 430.131 442.8C607.02 516.6 910.53 590.4 1037.15 664.2C1161.87 738 1114.45 811.8 935.665 885.6C758.775 959.4 455.265 1033.2 303.51 1070.1L151.755 1107H0L0 1070.1C0 1033.2 0 959.4 0 885.6C0 811.8 0 738 0 664.2C0 590.4 0 516.6 0 442.8C0 369 0 295.2 0 221.4C0 147.6 0 73.8 0 36.9L0 0L758.775 0Z" fill="#074F57"/>
<path d="M289.565 568.441C288.684 564.081 279.229 563.359 268.447 566.83C257.666 570.301 249.64 576.649 250.521 581.009C251.403 585.37 260.857 586.091 271.639 582.62C282.421 579.149 290.446 572.801 289.565 568.441Z" fill="#BFCACB"/>
<path d="M376.365 648.127C376.188 647.255 374.297 647.111 372.141 647.805C369.985 648.499 368.38 649.769 368.556 650.641C368.732 651.513 370.623 651.657 372.779 650.963C374.936 650.269 376.541 648.999 376.365 648.127Z" fill="#074F57"/>
<path d="M468.776 704.146C468.599 703.274 466.708 703.129 464.552 703.823C462.396 704.518 460.791 705.787 460.967 706.659C461.143 707.531 463.034 707.676 465.19 706.981C467.347 706.287 468.952 705.018 468.776 704.146Z" fill="#074F57"/>
<path d="M387.247 825.407C387.071 824.535 385.18 824.391 383.024 825.085C380.868 825.779 379.262 827.049 379.439 827.921C379.615 828.793 381.506 828.937 383.662 828.243C385.818 827.549 387.424 826.279 387.247 825.407Z" fill="#FF6584"/>
<path d="M281.98 818.934C281.804 818.062 279.913 817.917 277.756 818.612C275.6 819.306 273.995 820.575 274.171 821.447C274.347 822.319 276.238 822.464 278.395 821.769C280.551 821.075 282.156 819.806 281.98 818.934Z" fill="white"/>
<path d="M207.206 562.159C207.03 561.287 205.139 561.143 202.983 561.837C200.827 562.531 199.221 563.801 199.398 564.673C199.574 565.545 201.465 565.689 203.621 564.995C205.777 564.301 207.383 563.031 207.206 562.159Z" fill="white"/>
<path d="M290.017 622.109C289.841 621.237 287.95 621.093 285.793 621.787C283.637 622.481 282.032 623.751 282.208 624.623C282.384 625.495 284.275 625.639 286.432 624.945C288.588 624.251 290.193 622.981 290.017 622.109Z" fill="white"/>
<path d="M456.042 764.583C455.866 763.711 453.975 763.567 451.819 764.261C449.662 764.955 448.057 766.225 448.234 767.097C448.41 767.969 450.301 768.113 452.457 767.419C454.613 766.725 456.219 765.455 456.042 764.583Z" fill="white"/>
<path d="M468.744 889.145C468.568 888.273 466.677 888.128 464.521 888.822C462.365 889.517 460.759 890.786 460.936 891.658C461.112 892.53 463.003 892.675 465.159 891.98C467.316 891.286 468.921 890.017 468.744 889.145Z" fill="#FF6584"/>
<path d="M497.935 816.65L498.556 818.036L502.226 817.213L498.941 818.892L499.564 820.278L496.912 819.93L493.627 821.61L495.271 819.715L492.619 819.368L496.289 818.545L497.935 816.65Z" fill="white"/>
<path d="M252.546 692.998L253.167 694.384L256.837 693.56L253.553 695.24L254.176 696.625L251.523 696.278L248.238 697.957L249.883 696.063L247.23 695.715L250.9 694.892L252.546 692.998Z" fill="white"/>
<path d="M392.481 552.093L393.102 553.479L396.772 552.656L393.487 554.336L394.11 555.721L391.458 555.373L388.173 557.053L389.817 555.159L387.165 554.811L390.834 553.988L392.481 552.093Z" fill="white"/>
<path d="M381.41 733.919L382.032 735.304L385.701 734.481L382.417 736.161L383.04 737.546L380.387 737.199L377.103 738.878L378.747 736.984L376.094 736.636L379.764 735.813L381.41 733.919Z" fill="white"/>
<path d="M569.357 748.252L569.978 749.637L573.648 748.814L570.363 750.494L570.986 751.879L568.334 751.532L565.049 753.211L566.693 751.317L564.041 750.969L567.71 750.146L569.357 748.252Z" fill="white"/>
<path d="M356.076 906.882L356.697 908.268L360.366 907.445L357.082 909.125L357.705 910.51L355.052 910.162L351.768 911.842L353.412 909.948L350.759 909.6L354.429 908.777L356.076 906.882Z" fill="white"/>
<path d="M516.551 880.138C515.676 881.34 514.014 882.597 511.882 883.669C509.75 884.742 507.296 885.555 504.988 885.954C502.68 886.352 500.68 886.309 499.367 885.831C498.055 885.354 497.523 884.476 497.872 883.365C498.222 882.253 499.428 880.986 501.262 879.805C503.096 878.624 505.429 877.611 507.816 876.96C510.203 876.308 512.479 876.064 514.208 876.272C515.937 876.481 517 877.129 517.194 878.092C517.314 878.691 517.094 879.391 516.551 880.138ZM502.045 883.786C502.353 884.001 502.799 884.147 503.356 884.215C503.913 884.284 504.57 884.275 505.29 884.187C506.559 884.036 507.963 883.65 509.259 883.098C510.555 882.546 511.665 881.86 512.399 881.158C513.133 880.456 513.446 879.781 513.284 879.248C513.123 878.715 512.497 878.358 511.513 878.236C510.53 878.115 509.249 878.237 507.89 878.582C506.531 878.927 505.178 879.473 504.061 880.128C502.944 880.783 502.132 881.505 501.765 882.173C501.397 882.84 501.496 883.41 502.045 883.786Z" fill="#E6E6E6"/>
<path d="M354.07 544.24C354.271 545.21 353.582 546.431 352.133 547.671C350.684 548.911 348.576 550.083 346.213 550.963C343.849 551.843 341.394 552.37 339.317 552.442C337.24 552.515 335.685 552.129 334.95 551.358C334.215 550.587 334.351 549.484 335.331 548.261C336.312 547.037 338.068 545.779 340.266 544.725C342.464 543.671 344.95 542.895 347.248 542.546C349.547 542.197 351.497 542.299 352.728 542.833C353.487 543.161 353.945 543.643 354.07 544.24ZM338.445 549.276C338.549 549.79 339.064 550.158 339.913 550.322C340.762 550.487 341.898 550.44 343.15 550.188C344.402 549.936 345.702 549.493 346.853 548.926C348.004 548.359 348.943 547.699 349.53 547.046C350.116 546.392 350.317 545.78 350.103 545.303C349.889 544.826 349.27 544.509 348.342 544.401C347.413 544.292 346.224 544.398 344.955 544.702C343.686 545.006 342.406 545.491 341.307 546.085C340.36 546.598 339.589 547.169 339.083 547.733C338.577 548.297 338.356 548.831 338.445 549.276Z" fill="#E6E6E6"/>
<path d="M443.764 570.003C441.364 570.593 439.133 570.76 437.496 570.473C435.859 570.186 434.931 569.464 434.888 568.445C434.846 567.426 435.692 566.181 437.265 564.949C438.839 563.716 441.029 562.581 443.419 561.761C445.809 560.941 448.23 560.493 450.222 560.502C452.214 560.511 453.637 560.977 454.218 561.811C454.8 562.645 454.5 563.788 453.376 565.023C452.252 566.258 450.383 567.498 448.124 568.506C446.733 569.127 445.242 569.639 443.764 570.003ZM445.279 562.891C444.008 563.202 442.731 563.694 441.641 564.291C440.551 564.889 439.708 565.559 439.238 566.202C438.768 566.845 438.697 567.425 439.036 567.855C439.375 568.284 440.105 568.54 441.117 568.583C442.128 568.626 443.366 568.454 444.643 568.094C445.92 567.733 447.166 567.203 448.194 566.584C449.222 565.965 449.975 565.29 450.34 564.662C450.705 564.034 450.662 563.486 450.218 563.102C449.832 562.77 449.165 562.575 448.292 562.538C447.419 562.5 446.375 562.623 445.279 562.891Z" fill="#E6E6E6"/>
<path d="M215.13 775.584C216.798 773.467 214.116 768.175 209.14 763.765C204.165 759.355 198.779 757.497 197.111 759.614C195.443 761.732 198.124 767.024 203.1 771.434C208.076 775.844 213.462 777.702 215.13 775.584Z" fill="#BFCACB"/>
<path d="M207.102 851.818C207.436 851.394 206.9 850.336 205.904 849.454C204.909 848.572 203.832 848.2 203.499 848.624C203.165 849.047 203.701 850.106 204.696 850.988C205.692 851.87 206.769 852.241 207.102 851.818Z" fill="#074F57"/>
<path d="M211.432 922.074C211.766 921.65 211.23 920.592 210.235 919.71C209.239 918.828 208.162 918.456 207.829 918.88C207.495 919.303 208.031 920.361 209.026 921.243C210.022 922.125 211.099 922.497 211.432 922.074Z" fill="#074F57"/>
<path d="M131.357 924.683C131.691 924.259 131.154 923.201 130.159 922.319C129.164 921.437 128.087 921.065 127.753 921.489C127.42 921.912 127.956 922.971 128.951 923.853C129.946 924.735 131.024 925.106 131.357 924.683Z" fill="#FF6584"/>
<path d="M100.808 866.352C101.142 865.928 100.606 864.87 99.6105 863.988C98.6154 863.106 97.5382 862.734 97.2046 863.158C96.871 863.581 97.4073 864.64 98.4024 865.522C99.3976 866.404 100.475 866.775 100.808 866.352Z" fill="white"/>
<path d="M191.772 729.488C192.106 729.064 191.57 728.006 190.574 727.124C189.579 726.242 188.502 725.87 188.168 726.294C187.835 726.717 188.371 727.776 189.366 728.658C190.361 729.54 191.439 729.911 191.772 729.488Z" fill="white"/>
<path d="M191.296 796.134C191.629 795.711 191.093 794.652 190.098 793.77C189.103 792.888 188.026 792.517 187.692 792.94C187.358 793.364 187.895 794.422 188.89 795.304C189.885 796.186 190.962 796.558 191.296 796.134Z" fill="white"/>
<path d="M180.386 938.185C180.72 937.761 180.184 936.703 179.189 935.821C178.194 934.939 177.116 934.567 176.783 934.991C176.449 935.414 176.985 936.473 177.981 937.355C178.976 938.237 180.053 938.608 180.386 938.185Z" fill="white"/>
<path d="M128.772 992.066C129.105 991.642 128.569 990.584 127.574 989.702C126.579 988.82 125.502 988.448 125.168 988.872C124.834 989.295 125.371 990.354 126.366 991.236C127.361 992.118 128.438 992.489 128.772 992.066Z" fill="#FF6584"/>
<path d="M170.433 980.128L170.011 980.982L171.545 982.618L169.751 981.51L169.33 982.365L168.643 980.826L166.849 979.718L168.218 979.874L167.53 978.334L169.064 979.971L170.433 980.128Z" fill="white"/>
<path d="M147.722 803.069L147.3 803.923L148.834 805.56L147.04 804.452L146.619 805.307L145.931 803.767L144.138 802.659L145.506 802.815L144.819 801.275L146.352 802.912L147.722 803.069Z" fill="white"/>
<path d="M255.127 824.032L254.705 824.886L256.238 826.523L254.445 825.415L254.024 826.27L253.336 824.73L251.542 823.622L252.911 823.778L252.224 822.238L253.757 823.875L255.127 824.032Z" fill="white"/>
<path d="M170.377 886.962L169.955 887.817L171.488 889.453L169.695 888.345L169.274 889.2L168.586 887.661L166.792 886.553L168.161 886.709L167.474 885.169L169.007 886.806L170.377 886.962Z" fill="white"/>
<path d="M223.68 992.158L223.258 993.012L224.792 994.649L222.998 993.541L222.577 994.396L221.89 992.856L220.096 991.748L221.465 991.904L220.777 990.364L222.311 992.001L223.68 992.158Z" fill="white"/>
<path d="M85.0544 938.967L84.6325 939.822L86.1661 941.458L84.3723 940.35L83.9513 941.205L83.2639 939.665L81.4701 938.557L82.8387 938.714L82.1513 937.174L83.6849 938.81L85.0544 938.967Z" fill="white"/>
<path d="M147.983 1014.04C147.168 1014.03 146.078 1013.62 144.922 1012.89C143.765 1012.17 142.622 1011.17 141.711 1010.1C140.8 1009.02 140.184 1007.95 139.98 1007.07C139.777 1006.19 140 1005.58 140.607 1005.34C141.215 1005.11 142.164 1005.27 143.274 1005.79C144.385 1006.32 145.578 1007.18 146.628 1008.2C147.677 1009.22 148.509 1010.33 148.965 1011.33C149.421 1012.33 149.47 1013.14 149.101 1013.6C148.872 1013.89 148.489 1014.04 147.983 1014.04ZM141.745 1007.72C141.747 1007.96 141.823 1008.25 141.969 1008.57C142.115 1008.9 142.328 1009.24 142.596 1009.59C143.067 1010.21 143.685 1010.81 144.344 1011.28C145.002 1011.76 145.661 1012.09 146.208 1012.22C146.755 1012.34 147.156 1012.25 147.342 1011.96C147.529 1011.68 147.49 1011.21 147.232 1010.64C146.974 1010.07 146.512 1009.44 145.926 1008.85C145.341 1008.26 144.667 1007.75 144.019 1007.4C143.372 1007.06 142.791 1006.9 142.376 1006.96C141.962 1007.01 141.738 1007.28 141.745 1007.72Z" fill="#E6E6E6"/>
<path d="M246.433 800.669C246.064 801.143 245.299 801.239 244.285 800.939C243.271 800.639 242.078 799.964 240.934 799.042C239.79 798.12 238.774 797.016 238.082 795.941C237.389 794.866 237.068 793.895 237.179 793.213C237.29 792.531 237.826 792.185 238.684 792.243C239.542 792.3 240.662 792.757 241.832 793.525C243.001 794.292 244.137 795.318 245.023 796.406C245.909 797.495 246.483 798.569 246.636 799.424C246.73 799.951 246.661 800.377 246.433 800.669ZM239.22 794.28C239.023 794.53 239.022 794.942 239.218 795.455C239.415 795.968 239.797 796.553 240.307 797.123C240.817 797.692 241.428 798.214 242.047 798.611C242.666 799.007 243.259 799.256 243.737 799.32C244.216 799.384 244.553 799.26 244.698 798.965C244.843 798.671 244.788 798.223 244.542 797.689C244.295 797.155 243.87 796.564 243.331 796.005C242.792 795.446 242.169 794.95 241.555 794.592C241.025 794.283 240.524 794.09 240.112 794.035C239.699 793.98 239.39 794.064 239.22 794.28Z" fill="#E6E6E6"/>
<path d="M263.417 858.032C262.391 856.982 261.607 855.861 261.216 854.883C260.824 853.906 260.852 853.14 261.293 852.731C261.735 852.323 262.56 852.301 263.61 852.67C264.661 853.039 265.864 853.772 266.989 854.73C268.115 855.689 269.085 856.805 269.713 857.866C270.342 858.926 270.586 859.858 270.398 860.482C270.21 861.107 269.604 861.38 268.695 861.251C267.786 861.121 266.639 860.598 265.471 859.781C264.751 859.277 264.049 858.679 263.417 858.032ZM267.075 856.145C266.533 855.589 265.907 855.097 265.294 854.744C264.681 854.392 264.113 854.198 263.677 854.192C263.24 854.185 262.959 854.367 262.875 854.71C262.79 855.052 262.908 855.537 263.21 856.09C263.513 856.643 263.982 857.235 264.549 857.777C265.116 858.318 265.749 858.779 266.352 859.091C266.955 859.402 267.496 859.547 267.892 859.503C268.289 859.459 268.52 859.228 268.55 858.847C268.576 858.517 268.452 858.089 268.191 857.611C267.93 857.134 267.544 856.626 267.075 856.145Z" fill="#E6E6E6"/>
<path d="M312.13 60.5845C313.798 58.4666 311.116 53.1747 306.14 48.7647C301.165 44.3547 295.779 42.4966 294.111 44.6145C292.443 46.7323 295.124 52.0242 300.1 56.4342C305.076 60.8442 310.462 62.7023 312.13 60.5845Z" fill="#BFCACB"/>
<path d="M304.102 136.818C304.436 136.394 303.9 135.336 302.904 134.454C301.909 133.572 300.832 133.2 300.499 133.624C300.165 134.047 300.701 135.106 301.696 135.988C302.692 136.87 303.769 137.241 304.102 136.818Z" fill="#074F57"/>
<path d="M308.432 207.074C308.766 206.65 308.23 205.592 307.235 204.71C306.239 203.828 305.162 203.456 304.829 203.88C304.495 204.303 305.031 205.361 306.026 206.243C307.022 207.125 308.099 207.497 308.432 207.074Z" fill="#074F57"/>
<path d="M228.357 209.683C228.691 209.259 228.154 208.201 227.159 207.319C226.164 206.437 225.087 206.065 224.753 206.489C224.42 206.912 224.956 207.971 225.951 208.853C226.946 209.735 228.024 210.106 228.357 209.683Z" fill="#FF6584"/>
<path d="M197.808 151.352C198.142 150.928 197.606 149.87 196.611 148.988C195.615 148.106 194.538 147.734 194.205 148.158C193.871 148.581 194.407 149.64 195.402 150.522C196.398 151.404 197.475 151.775 197.808 151.352Z" fill="white"/>
<path d="M288.772 14.4876C289.106 14.064 288.57 13.0056 287.574 12.1236C286.579 11.2416 285.502 10.87 285.168 11.2936C284.835 11.7172 285.371 12.7755 286.366 13.6575C287.361 14.5395 288.439 14.9112 288.772 14.4876Z" fill="white"/>
<path d="M288.296 81.1346C288.629 80.711 288.093 79.6526 287.098 78.7706C286.103 77.8886 285.026 77.517 284.692 77.9406C284.358 78.3641 284.895 79.4225 285.89 80.3045C286.885 81.1865 287.962 81.5581 288.296 81.1346Z" fill="white"/>
<path d="M277.386 223.185C277.72 222.761 277.184 221.703 276.189 220.821C275.194 219.939 274.116 219.567 273.783 219.991C273.449 220.414 273.985 221.473 274.981 222.355C275.976 223.237 277.053 223.608 277.386 223.185Z" fill="white"/>
<path d="M225.771 277.066C226.105 276.642 225.569 275.584 224.573 274.702C223.578 273.82 222.501 273.448 222.168 273.872C221.834 274.295 222.37 275.354 223.365 276.236C224.36 277.118 225.438 277.489 225.771 277.066Z" fill="#FF6584"/>
<path d="M267.433 265.128L267.011 265.982L268.545 267.618L266.751 266.51L266.33 267.365L265.643 265.826L263.849 264.718L265.218 264.874L264.53 263.334L266.064 264.971L267.433 265.128Z" fill="white"/>
<path d="M244.721 88.0694L244.3 88.9236L245.833 90.5602L244.039 89.4522L243.618 90.3072L242.931 88.7675L241.137 87.6594L242.506 87.8156L241.818 86.2759L243.352 87.9125L244.721 88.0694Z" fill="white"/>
<path d="M352.127 109.032L351.705 109.886L353.238 111.523L351.445 110.415L351.024 111.27L350.336 109.73L348.542 108.622L349.911 108.778L349.224 107.238L350.757 108.875L352.127 109.032Z" fill="white"/>
<path d="M267.377 171.962L266.955 172.817L268.488 174.453L266.695 173.345L266.274 174.2L265.586 172.661L263.792 171.553L265.161 171.709L264.474 170.169L266.007 171.806L267.377 171.962Z" fill="white"/>
<path d="M320.68 277.158L320.258 278.012L321.792 279.649L319.998 278.541L319.577 279.396L318.89 277.856L317.096 276.748L318.465 276.904L317.777 275.364L319.311 277.001L320.68 277.158Z" fill="white"/>
<path d="M182.054 223.967L181.633 224.822L183.166 226.458L181.372 225.35L180.951 226.205L180.264 224.665L178.47 223.557L179.839 223.714L179.151 222.174L180.685 223.81L182.054 223.967Z" fill="white"/>
<path d="M244.983 299.035C244.168 299.026 243.078 298.62 241.922 297.894C240.765 297.168 239.622 296.173 238.711 295.098C237.8 294.024 237.184 292.946 236.98 292.068C236.777 291.191 237 290.576 237.607 290.341C238.215 290.106 239.164 290.267 240.274 290.794C241.385 291.32 242.578 292.175 243.628 293.196C244.677 294.217 245.509 295.332 245.965 296.329C246.421 297.326 246.47 298.135 246.101 298.603C245.872 298.893 245.489 299.041 244.983 299.035ZM238.745 292.716C238.747 292.961 238.823 293.252 238.969 293.574C239.115 293.896 239.328 294.241 239.596 294.59C240.067 295.207 240.685 295.806 241.344 296.285C242.002 296.764 242.661 297.093 243.208 297.217C243.755 297.341 244.156 297.252 244.342 296.965C244.529 296.678 244.49 296.21 244.232 295.642C243.974 295.074 243.512 294.44 242.926 293.849C242.341 293.258 241.667 292.747 241.019 292.402C240.372 292.056 239.791 291.899 239.376 291.956C238.962 292.014 238.738 292.282 238.745 292.716Z" fill="#E6E6E6"/>
<path d="M343.433 85.6691C343.064 86.1433 342.299 86.2395 341.285 85.9395C340.271 85.6394 339.078 84.9641 337.934 84.0423C336.79 83.1205 335.774 82.0168 335.082 80.9416C334.389 79.8665 334.068 78.8952 334.179 78.2131C334.29 77.531 334.826 77.1858 335.684 77.2433C336.542 77.3009 337.662 77.7571 338.832 78.5251C340.001 79.293 341.137 80.3189 342.023 81.407C342.909 82.4951 343.483 83.5692 343.636 84.4246C343.73 84.9516 343.661 85.3771 343.433 85.6691ZM336.22 79.2802C336.023 79.5302 336.022 79.9428 336.218 80.4557C336.415 80.9686 336.797 81.554 337.307 82.1233C337.817 82.6926 338.428 83.2149 339.047 83.6113C339.666 84.0078 340.259 84.2568 340.737 84.3207C341.216 84.3847 341.553 84.2601 341.698 83.9658C341.843 83.6715 341.788 83.2234 341.542 82.6894C341.295 82.1553 340.87 81.5643 340.331 81.0056C339.792 80.4469 339.169 79.9508 338.555 79.5924C338.025 79.2836 337.524 79.0903 337.112 79.0352C336.699 78.9801 336.39 79.065 336.22 79.2802Z" fill="#E6E6E6"/>
<path d="M360.417 143.032C359.391 141.982 358.607 140.861 358.216 139.883C357.824 138.906 357.852 138.14 358.293 137.731C358.735 137.323 359.56 137.301 360.61 137.67C361.661 138.039 362.864 138.772 363.989 139.73C365.115 140.689 366.085 141.805 366.713 142.866C367.342 143.926 367.586 144.858 367.398 145.482C367.21 146.107 366.604 146.38 365.695 146.251C364.786 146.121 363.639 145.598 362.471 144.781C361.751 144.277 361.049 143.679 360.417 143.032ZM364.075 141.145C363.533 140.589 362.907 140.097 362.294 139.744C361.681 139.392 361.113 139.198 360.677 139.192C360.24 139.185 359.959 139.367 359.875 139.71C359.79 140.052 359.908 140.537 360.21 141.09C360.513 141.643 360.982 142.235 361.549 142.777C362.116 143.318 362.749 143.779 363.352 144.091C363.955 144.402 364.496 144.547 364.892 144.503C365.289 144.459 365.52 144.228 365.55 143.847C365.576 143.517 365.452 143.089 365.191 142.611C364.93 142.134 364.544 141.626 364.075 141.145Z" fill="#E6E6E6"/>
<path d="M155.443 653.286C153.827 655.443 156.636 660.669 161.718 664.956C166.799 669.244 172.228 670.971 173.844 668.813C175.46 666.655 172.651 661.43 167.57 657.142C162.489 652.855 157.059 651.128 155.443 653.286Z" fill="#BFCACB"/>
<path d="M161.615 576.88C161.292 577.312 161.854 578.357 162.87 579.214C163.887 580.072 164.972 580.417 165.296 579.985C165.619 579.554 165.057 578.509 164.041 577.651C163.024 576.794 161.939 576.448 161.615 576.88Z" fill="#074F57"/>
<path d="M155.58 506.75C155.257 507.182 155.819 508.227 156.835 509.084C157.851 509.942 158.937 510.287 159.26 509.856C159.584 509.424 159.022 508.379 158.006 507.521C156.989 506.664 155.903 506.319 155.58 506.75Z" fill="#074F57"/>
<path d="M235.569 502.196C235.245 502.628 235.807 503.673 236.823 504.531C237.84 505.388 238.926 505.733 239.249 505.302C239.572 504.87 239.01 503.825 237.994 502.968C236.978 502.11 235.892 501.765 235.569 502.196Z" fill="#FF6584"/>
<path d="M267.526 559.769C267.202 560.2 267.764 561.245 268.78 562.103C269.797 562.96 270.883 563.306 271.206 562.874C271.529 562.443 270.967 561.398 269.951 560.54C268.935 559.682 267.849 559.337 267.526 559.769Z" fill="white"/>
<path d="M179.914 698.802C179.591 699.233 180.153 700.278 181.169 701.136C182.185 701.994 183.271 702.339 183.594 701.907C183.918 701.476 183.356 700.431 182.34 699.573C181.323 698.716 180.237 698.37 179.914 698.802Z" fill="white"/>
<path d="M178.771 632.163C178.447 632.595 179.009 633.64 180.026 634.497C181.042 635.355 182.128 635.7 182.451 635.269C182.774 634.837 182.212 633.792 181.196 632.935C180.18 632.077 179.094 631.732 178.771 632.163Z" fill="white"/>
<path d="M186.227 489.889C185.904 490.32 186.465 491.365 187.482 492.223C188.498 493.08 189.584 493.426 189.907 492.994C190.23 492.563 189.668 491.518 188.652 490.66C187.636 489.803 186.55 489.457 186.227 489.889Z" fill="white"/>
<path d="M236.517 434.771C236.194 435.202 236.755 436.247 237.772 437.105C238.788 437.962 239.874 438.308 240.197 437.876C240.52 437.445 239.958 436.4 238.942 435.542C237.926 434.684 236.84 434.339 236.517 434.771Z" fill="#FF6584"/>
<path d="M195.158 447.718L195.559 446.853L193.986 445.255L195.806 446.319L196.206 445.454L196.931 446.976L198.751 448.04L197.379 447.918L198.104 449.44L196.531 447.841L195.158 447.718Z" fill="white"/>
<path d="M222.164 624.172L222.565 623.308L220.992 621.709L222.812 622.773L223.212 621.908L223.937 623.43L225.757 624.495L224.385 624.372L225.109 625.894L223.537 624.295L222.164 624.172Z" fill="white"/>
<path d="M114.281 605.824L114.682 604.96L113.109 603.361L114.929 604.425L115.329 603.56L116.054 605.083L117.874 606.147L116.502 606.024L117.227 607.547L115.654 605.948L114.281 605.824Z" fill="white"/>
<path d="M197.477 540.853L197.878 539.989L196.305 538.39L198.125 539.454L198.526 538.589L199.25 540.112L201.07 541.176L199.698 541.053L200.423 542.576L198.85 540.977L197.477 540.853Z" fill="white"/>
<path d="M141.634 436.984L142.035 436.12L140.462 434.521L142.282 435.585L142.682 434.72L143.407 436.243L145.227 437.307L143.855 437.184L144.58 438.707L143.007 437.108L141.634 436.984Z" fill="white"/>
<path d="M281.511 486.791L281.912 485.927L280.339 484.328L282.16 485.392L282.56 484.527L283.284 486.05L285.104 487.114L283.733 486.991L284.457 488.513L282.884 486.915L281.511 486.791Z" fill="white"/>
<path d="M216.777 413.274C217.592 413.264 218.691 413.644 219.865 414.341C221.039 415.039 222.205 416.006 223.142 417.058C224.08 418.11 224.722 419.173 224.947 420.045C225.171 420.917 224.963 421.537 224.362 421.787C223.76 422.036 222.807 421.899 221.684 421.399C220.562 420.9 219.348 420.074 218.274 419.079C217.2 418.084 216.341 416.989 215.861 416.004C215.38 415.018 215.312 414.21 215.67 413.734C215.892 413.438 216.271 413.281 216.777 413.274ZM223.167 419.44C223.159 419.196 223.076 418.906 222.922 418.588C222.768 418.27 222.546 417.93 222.27 417.587C221.784 416.983 221.152 416.399 220.482 415.936C219.812 415.473 219.145 415.159 218.596 415.049C218.046 414.938 217.647 415.037 217.468 415.329C217.288 415.62 217.338 416.087 217.61 416.649C217.882 417.21 218.359 417.832 218.959 418.409C219.559 418.985 220.245 419.48 220.901 419.81C221.556 420.139 222.14 420.282 222.554 420.215C222.967 420.148 223.184 419.874 223.167 419.44Z" fill="#E6E6E6"/>
<path d="M123.54 628.969C123.897 628.486 124.659 628.371 125.681 628.647C126.702 628.922 127.911 629.568 129.077 630.462C130.243 631.356 131.285 632.434 132.003 633.492C132.722 634.55 133.067 635.514 132.972 636.198C132.878 636.883 132.351 637.241 131.491 637.204C130.632 637.168 129.501 636.739 128.313 635.999C127.126 635.26 125.965 634.262 125.053 633.196C124.141 632.13 123.541 631.07 123.367 630.218C123.26 629.694 123.319 629.267 123.54 628.969ZM130.906 635.181C131.097 634.926 131.087 634.514 130.879 634.006C130.67 633.498 130.274 632.922 129.75 632.365C129.226 631.808 128.603 631.301 127.975 630.92C127.346 630.538 126.747 630.304 126.267 630.252C125.788 630.199 125.454 630.332 125.316 630.63C125.178 630.928 125.244 631.374 125.503 631.902C125.762 632.43 126.202 633.01 126.754 633.556C127.306 634.101 127.942 634.582 128.564 634.926C129.102 635.221 129.606 635.402 130.02 635.448C130.434 635.493 130.741 635.4 130.906 635.181Z" fill="#E6E6E6"/>
<path d="M105.167 572.035C106.218 573.06 107.029 574.162 107.444 575.13C107.859 576.098 107.85 576.864 107.419 577.283C106.987 577.702 106.163 577.744 105.104 577.401C104.045 577.057 102.824 576.353 101.676 575.423C100.527 574.492 99.5307 573.4 98.8765 572.355C98.2223 571.31 97.956 570.384 98.1286 569.755C98.3011 569.127 98.9004 568.839 99.812 568.946C100.724 569.053 101.884 569.548 103.071 570.337C103.803 570.823 104.519 571.404 105.167 572.035ZM101.555 574.01C102.112 574.554 102.748 575.03 103.37 575.368C103.991 575.705 104.564 575.885 105 575.881C105.437 575.877 105.714 575.688 105.79 575.344C105.866 574.999 105.736 574.518 105.421 573.972C105.105 573.426 104.621 572.846 104.041 572.318C103.462 571.791 102.818 571.345 102.207 571.048C101.597 570.752 101.053 570.62 100.657 570.674C100.262 570.728 100.036 570.963 100.015 571.346C99.9977 571.676 100.132 572.101 100.405 572.572C100.677 573.043 101.076 573.541 101.555 574.01Z" fill="#E6E6E6"/>
<path d="M727.22 837.812C725.604 839.97 728.414 845.195 733.495 849.483C738.576 853.771 744.006 855.497 745.622 853.34C747.238 851.182 744.429 845.957 739.347 841.669C734.266 837.381 728.837 835.654 727.22 837.812Z" fill="#BFCACB"/>
<path d="M733.393 761.406C733.07 761.838 733.631 762.883 734.648 763.741C735.664 764.598 736.75 764.943 737.073 764.512C737.396 764.08 736.834 763.035 735.818 762.178C734.802 761.32 733.716 760.975 733.393 761.406Z" fill="#074F57"/>
<path d="M727.358 691.276C727.034 691.708 727.596 692.753 728.612 693.611C729.629 694.468 730.715 694.814 731.038 694.382C731.361 693.95 730.799 692.905 729.783 692.048C728.767 691.19 727.681 690.845 727.358 691.276Z" fill="#074F57"/>
<path d="M807.346 686.723C807.023 687.154 807.584 688.199 808.601 689.057C809.617 689.914 810.703 690.26 811.026 689.828C811.349 689.397 810.787 688.352 809.771 687.494C808.755 686.637 807.669 686.291 807.346 686.723Z" fill="#FF6584"/>
<path d="M839.303 744.295C838.98 744.727 839.542 745.772 840.558 746.629C841.574 747.487 842.66 747.832 842.983 747.401C843.306 746.969 842.745 745.924 841.728 745.066C840.712 744.209 839.626 743.863 839.303 744.295Z" fill="white"/>
<path d="M751.692 883.328C751.368 883.76 751.93 884.805 752.946 885.662C753.963 886.52 755.049 886.865 755.372 886.434C755.695 886.002 755.133 884.957 754.117 884.1C753.101 883.242 752.015 882.897 751.692 883.328Z" fill="white"/>
<path d="M750.548 816.69C750.225 817.121 750.787 818.166 751.803 819.024C752.819 819.881 753.905 820.227 754.228 819.795C754.551 819.364 753.99 818.318 752.973 817.461C751.957 816.603 750.871 816.258 750.548 816.69Z" fill="white"/>
<path d="M758.004 674.415C757.681 674.847 758.243 675.892 759.259 676.749C760.275 677.607 761.361 677.952 761.684 677.521C762.008 677.089 761.446 676.044 760.429 675.187C759.413 674.329 758.327 673.984 758.004 674.415Z" fill="white"/>
<path d="M808.294 619.297C807.971 619.729 808.533 620.774 809.549 621.631C810.565 622.489 811.651 622.834 811.974 622.402C812.298 621.971 811.736 620.926 810.719 620.068C809.703 619.211 808.617 618.865 808.294 619.297Z" fill="#FF6584"/>
<path d="M766.935 632.244L767.336 631.38L765.763 629.781L767.583 630.845L767.984 629.98L768.708 631.503L770.528 632.567L769.156 632.444L769.881 633.966L768.308 632.368L766.935 632.244Z" fill="white"/>
<path d="M793.941 808.698L794.342 807.834L792.769 806.235L794.589 807.299L794.989 806.434L795.714 807.957L797.534 809.021L796.162 808.898L796.887 810.421L795.314 808.822L793.941 808.698Z" fill="white"/>
<path d="M686.058 790.35L686.459 789.486L684.886 787.887L686.707 788.952L687.107 788.087L687.831 789.609L689.651 790.673L688.279 790.55L689.004 792.073L687.431 790.474L686.058 790.35Z" fill="white"/>
<path d="M769.255 725.38L769.655 724.516L768.083 722.917L769.903 723.981L770.303 723.116L771.027 724.638L772.848 725.703L771.476 725.58L772.2 727.102L770.627 725.503L769.255 725.38Z" fill="white"/>
<path d="M713.412 621.511L713.813 620.646L712.24 619.048L714.06 620.112L714.46 619.247L715.185 620.769L717.005 621.833L715.633 621.711L716.357 623.233L714.785 621.634L713.412 621.511Z" fill="white"/>
<path d="M853.289 671.317L853.69 670.453L852.117 668.854L853.937 669.918L854.337 669.053L855.062 670.576L856.882 671.64L855.51 671.517L856.234 673.04L854.662 671.441L853.289 671.317Z" fill="white"/>
<path d="M788.555 597.801C789.369 597.79 790.468 598.17 791.642 598.868C792.816 599.565 793.983 600.532 794.92 601.584C795.857 602.636 796.499 603.699 796.724 604.571C796.949 605.443 796.74 606.063 796.139 606.313C795.537 606.563 794.584 606.425 793.462 605.926C792.339 605.426 791.125 604.6 790.051 603.605C788.977 602.61 788.118 601.516 787.638 600.53C787.158 599.544 787.09 598.736 787.447 598.26C787.669 597.964 788.048 597.807 788.555 597.801ZM794.944 603.967C794.936 603.722 794.853 603.432 794.699 603.114C794.545 602.796 794.324 602.456 794.048 602.114C793.562 601.509 792.929 600.925 792.259 600.462C791.589 599.999 790.923 599.686 790.373 599.575C789.823 599.464 789.425 599.563 789.245 599.855C789.065 600.147 789.116 600.613 789.388 601.175C789.659 601.737 790.136 602.359 790.736 602.935C791.336 603.512 792.022 604.007 792.678 604.336C793.334 604.666 793.918 604.809 794.331 604.741C794.744 604.674 794.961 604.4 794.944 603.967Z" fill="#E6E6E6"/>
<path d="M695.317 813.496C695.674 813.013 696.437 812.898 697.458 813.173C698.479 813.448 699.688 814.095 700.854 814.988C702.021 815.882 703.062 816.961 703.781 818.019C704.499 819.077 704.844 820.04 704.749 820.724C704.655 821.409 704.128 821.767 703.269 821.731C702.409 821.694 701.278 821.265 700.091 820.526C698.903 819.786 697.743 818.788 696.83 817.722C695.918 816.656 695.318 815.596 695.145 814.745C695.038 814.22 695.097 813.793 695.317 813.496ZM702.684 819.707C702.874 819.453 702.865 819.04 702.656 818.532C702.448 818.024 702.051 817.448 701.527 816.891C701.003 816.335 700.38 815.827 699.752 815.446C699.124 815.065 698.524 814.83 698.045 814.778C697.565 814.726 697.231 814.858 697.093 815.156C696.955 815.454 697.021 815.901 697.28 816.428C697.54 816.956 697.979 817.537 698.531 818.082C699.083 818.628 699.719 819.109 700.342 819.452C700.879 819.748 701.384 819.929 701.798 819.974C702.211 820.019 702.518 819.927 702.684 819.707Z" fill="#E6E6E6"/>
<path d="M676.944 756.562C677.996 757.587 678.806 758.688 679.221 759.656C679.637 760.624 679.628 761.39 679.196 761.809C678.764 762.228 677.94 762.27 676.881 761.927C675.822 761.584 674.602 760.88 673.453 759.949C672.304 759.019 671.308 757.926 670.654 756.881C670 755.836 669.733 754.911 669.906 754.282C670.078 753.653 670.678 753.365 671.589 753.472C672.501 753.579 673.661 754.075 674.849 754.864C675.58 755.349 676.297 755.93 676.944 756.562ZM673.333 758.537C673.889 759.08 674.526 759.557 675.147 759.894C675.769 760.232 676.341 760.412 676.778 760.407C677.214 760.403 677.491 760.214 677.567 759.87C677.643 759.526 677.513 759.044 677.198 758.498C676.882 757.952 676.398 757.372 675.819 756.845C675.239 756.317 674.595 755.871 673.985 755.575C673.374 755.278 672.83 755.147 672.435 755.2C672.039 755.254 671.814 755.49 671.793 755.872C671.775 756.202 671.91 756.627 672.182 757.098C672.454 757.569 672.853 758.068 673.333 758.537Z" fill="#E6E6E6"/>
<path d="M55.3532 242.816C53.2447 241.136 47.938 243.788 43.5003 248.739C39.0627 253.69 37.1746 259.066 39.2832 260.746C41.3918 262.425 46.6985 259.773 51.1361 254.822C55.5737 249.871 57.4618 244.496 55.3532 242.816Z" fill="#BFCACB"/>
<path d="M131.541 251.268C131.119 250.932 130.058 251.462 129.17 252.452C128.283 253.443 127.905 254.518 128.327 254.854C128.748 255.19 129.81 254.659 130.697 253.669C131.585 252.679 131.962 251.604 131.541 251.268Z" fill="#074F57"/>
<path d="M201.82 247.328C201.398 246.992 200.337 247.523 199.449 248.513C198.561 249.503 198.184 250.578 198.606 250.914C199.027 251.25 200.089 250.72 200.976 249.73C201.864 248.739 202.241 247.664 201.82 247.328Z" fill="#074F57"/>
<path d="M203.983 327.417C203.561 327.081 202.5 327.612 201.612 328.602C200.725 329.592 200.347 330.667 200.769 331.003C201.19 331.339 202.252 330.809 203.139 329.818C204.027 328.828 204.404 327.753 203.983 327.417Z" fill="#FF6584"/>
<path d="M145.482 357.641C145.06 357.305 143.999 357.835 143.112 358.825C142.224 359.816 141.846 360.891 142.268 361.227C142.69 361.563 143.751 361.032 144.639 360.042C145.526 359.052 145.904 357.977 145.482 357.641Z" fill="white"/>
<path d="M9.12719 265.917C8.70548 265.581 7.64413 266.112 6.75661 267.102C5.86909 268.092 5.49147 269.167 5.91318 269.503C6.33489 269.839 7.39624 269.309 8.28376 268.318C9.17128 267.328 9.5489 266.253 9.12719 265.917Z" fill="white"/>
<path d="M75.7703 266.764C75.3485 266.428 74.2872 266.958 73.3997 267.948C72.5122 268.939 72.1345 270.014 72.5562 270.35C72.978 270.686 74.0393 270.155 74.9268 269.165C75.8144 268.175 76.192 267.1 75.7703 266.764Z" fill="white"/>
<path d="M217.758 278.464C217.336 278.128 216.275 278.658 215.387 279.649C214.5 280.639 214.122 281.714 214.544 282.05C214.966 282.386 216.027 281.855 216.915 280.865C217.802 279.875 218.18 278.8 217.758 278.464Z" fill="white"/>
<path d="M271.35 330.378C270.928 330.042 269.867 330.573 268.979 331.563C268.092 332.553 267.714 333.628 268.136 333.964C268.558 334.3 269.619 333.77 270.506 332.779C271.394 331.789 271.772 330.714 271.35 330.378Z" fill="#FF6584"/>
<path d="M259.644 288.651L260.496 289.077L262.141 287.553L261.023 289.341L261.876 289.766L260.332 290.445L259.214 292.233L259.378 290.865L257.834 291.544L259.48 290.019L259.644 288.651Z" fill="white"/>
<path d="M82.4625 310.376L83.3143 310.803L84.9594 309.279L83.8414 311.066L84.694 311.492L83.1505 312.171L82.0325 313.958L82.1963 312.591L80.6528 313.269L82.2979 311.745L82.4625 310.376Z" fill="white"/>
<path d="M104.023 203.089L104.874 203.516L106.519 201.991L105.401 203.779L106.254 204.205L104.711 204.884L103.593 206.671L103.756 205.304L102.213 205.982L103.858 204.458L104.023 203.089Z" fill="white"/>
<path d="M166.48 288.188L167.332 288.615L168.977 287.09L167.859 288.878L168.712 289.303L167.168 289.982L166.05 291.77L166.214 290.402L164.67 291.081L166.315 289.557L166.48 288.188Z" fill="white"/>
<path d="M271.971 235.471L272.823 235.898L274.468 234.373L273.35 236.161L274.203 236.587L272.659 237.265L271.541 239.053L271.705 237.685L270.162 238.364L271.807 236.84L271.971 235.471Z" fill="white"/>
<path d="M218.009 373.799L218.861 374.226L220.506 372.701L219.388 374.489L220.241 374.915L218.697 375.594L217.579 377.381L217.743 376.013L216.2 376.692L217.845 375.168L218.009 373.799Z" fill="white"/>
<path d="M293.426 311.29C293.412 312.105 293 313.192 292.267 314.344C291.535 315.497 290.534 316.634 289.454 317.539C288.375 318.445 287.293 319.055 286.415 319.253C285.536 319.452 284.923 319.225 284.691 318.617C284.459 318.008 284.626 317.059 285.158 315.952C285.691 314.845 286.553 313.656 287.579 312.612C288.606 311.568 289.726 310.743 290.725 310.292C291.725 309.841 292.534 309.798 293 310.169C293.289 310.4 293.435 310.783 293.426 311.29ZM287.072 317.493C287.317 317.492 287.609 317.417 287.931 317.273C288.254 317.128 288.6 316.917 288.951 316.652C289.57 316.184 290.173 315.569 290.655 314.913C291.138 314.258 291.471 313.601 291.598 313.054C291.725 312.508 291.638 312.107 291.352 311.918C291.066 311.73 290.598 311.767 290.028 312.022C289.459 312.277 288.823 312.734 288.229 313.317C287.634 313.9 287.119 314.571 286.77 315.216C286.422 315.862 286.261 316.441 286.316 316.857C286.371 317.272 286.638 317.496 287.072 317.493Z" fill="#E6E6E6"/>
<path d="M80.6115 211.653C81.0836 212.024 81.1756 212.79 80.8699 213.802C80.5642 214.815 79.8822 216.004 78.9541 217.143C78.0259 218.282 76.9166 219.291 75.8376 219.977C74.7586 220.664 73.7856 220.98 73.1041 220.865C72.4226 220.75 72.0804 220.213 72.1427 219.355C72.205 218.497 72.6675 217.379 73.4419 216.214C74.2164 215.049 75.2485 213.919 76.3415 213.039C77.4346 212.159 78.5119 211.591 79.3681 211.443C79.8956 211.352 80.3208 211.424 80.6115 211.653ZM74.1825 218.83C74.4314 219.029 74.844 219.031 75.358 218.838C75.872 218.645 76.4595 218.266 77.0316 217.759C77.6037 217.252 78.1294 216.644 78.5293 216.027C78.9292 215.411 79.1815 214.819 79.2481 214.341C79.3147 213.863 79.192 213.525 78.8985 213.378C78.605 213.232 78.1567 213.284 77.6213 213.528C77.0859 213.771 76.4925 214.193 75.9308 214.728C75.3691 215.264 74.8695 215.885 74.5077 216.497C74.196 217.025 73.9999 217.525 73.9425 217.937C73.8851 218.349 73.9682 218.659 74.1825 218.83Z" fill="#E6E6E6"/>
<path d="M138.069 194.988C137.013 196.008 135.887 196.785 134.907 197.172C133.928 197.558 133.162 197.526 132.756 197.082C132.35 196.638 132.333 195.813 132.708 194.765C133.082 193.716 133.822 192.517 134.787 191.397C135.751 190.277 136.873 189.314 137.937 188.691C139.001 188.068 139.934 187.83 140.558 188.021C141.181 188.212 141.451 188.82 141.317 189.728C141.182 190.636 140.652 191.781 139.828 192.944C139.321 193.661 138.719 194.36 138.069 194.988ZM136.202 191.319C135.642 191.859 135.147 192.481 134.791 193.092C134.435 193.703 134.238 194.27 134.229 194.707C134.221 195.143 134.401 195.426 134.743 195.512C135.085 195.598 135.57 195.483 136.125 195.184C136.68 194.885 137.275 194.418 137.819 193.854C138.364 193.291 138.829 192.661 139.143 192.059C139.458 191.458 139.606 190.918 139.564 190.521C139.522 190.124 139.293 189.892 138.912 189.859C138.582 189.832 138.153 189.954 137.674 190.212C137.195 190.47 136.685 190.854 136.202 191.319Z" fill="#E6E6E6"/>
</svg>
