<svg width="1107" height="1107" viewBox="0 0 1107 1107" fill="none" xmlns="http://www.w3.org/2000/svg">
<path d="M492 0L410.128 36.9C326.719 73.8 165.281 147.6 102.628 221.4C42.2813 295.2 80.7187 369 225.628 442.8C369 516.6 615 590.4 717.628 664.2C818.719 738 780.281 811.8 635.372 885.6C492 959.4 246 1033.2 123 1070.1L0 1107H1107V1070.1C1107 1033.2 1107 959.4 1107 885.6C1107 811.8 1107 738 1107 664.2C1107 590.4 1107 516.6 1107 442.8C1107 369 1107 295.2 1107 221.4C1107 147.6 1107 73.8 1107 36.9V0L492 0Z" fill="#074F57"/>
<path d="M907.22 1028.81C905.604 1030.97 908.414 1036.19 913.495 1040.48C918.576 1044.77 924.006 1046.5 925.622 1044.34C927.238 1042.18 924.429 1036.96 919.347 1032.67C914.266 1028.38 908.837 1026.65 907.22 1028.81Z" fill="#BFCACB"/>
<path d="M913.393 952.406C913.07 952.838 913.631 953.883 914.648 954.741C915.664 955.598 916.75 955.943 917.073 955.512C917.396 955.08 916.834 954.035 915.818 953.178C914.802 952.32 913.716 951.975 913.393 952.406Z" fill="#074F57"/>
<path d="M907.358 882.276C907.034 882.708 907.596 883.753 908.612 884.611C909.629 885.468 910.715 885.814 911.038 885.382C911.361 884.95 910.799 883.905 909.783 883.048C908.767 882.19 907.681 881.845 907.358 882.276Z" fill="#074F57"/>
<path d="M987.346 877.723C987.023 878.154 987.584 879.199 988.601 880.057C989.617 880.914 990.703 881.26 991.026 880.828C991.349 880.397 990.787 879.352 989.771 878.494C988.755 877.637 987.669 877.291 987.346 877.723Z" fill="#FF6584"/>
<path d="M1019.3 935.295C1018.98 935.727 1019.54 936.772 1020.56 937.629C1021.57 938.487 1022.66 938.832 1022.98 938.401C1023.31 937.969 1022.74 936.924 1021.73 936.066C1020.71 935.209 1019.63 934.863 1019.3 935.295Z" fill="white"/>
<path d="M931.692 1074.33C931.368 1074.76 931.93 1075.8 932.946 1076.66C933.963 1077.52 935.049 1077.87 935.372 1077.43C935.695 1077 935.133 1075.96 934.117 1075.1C933.101 1074.24 932.015 1073.9 931.692 1074.33Z" fill="white"/>
<path d="M930.548 1007.69C930.225 1008.12 930.787 1009.17 931.803 1010.02C932.819 1010.88 933.905 1011.23 934.228 1010.8C934.551 1010.36 933.99 1009.32 932.973 1008.46C931.957 1007.6 930.871 1007.26 930.548 1007.69Z" fill="white"/>
<path d="M938.004 865.415C937.681 865.847 938.243 866.892 939.259 867.749C940.275 868.607 941.361 868.952 941.684 868.521C942.008 868.089 941.446 867.044 940.429 866.187C939.413 865.329 938.327 864.984 938.004 865.415Z" fill="white"/>
<path d="M988.294 810.297C987.971 810.729 988.533 811.774 989.549 812.631C990.565 813.489 991.651 813.834 991.974 813.402C992.298 812.971 991.736 811.926 990.719 811.068C989.703 810.211 988.617 809.865 988.294 810.297Z" fill="#FF6584"/>
<path d="M946.935 823.244L947.336 822.38L945.763 820.781L947.583 821.845L947.984 820.98L948.708 822.503L950.528 823.567L949.156 823.444L949.881 824.966L948.308 823.368L946.935 823.244Z" fill="white"/>
<path d="M973.941 999.698L974.342 998.834L972.769 997.235L974.589 998.299L974.989 997.434L975.714 998.957L977.534 1000.02L976.162 999.898L976.887 1001.42L975.314 999.822L973.941 999.698Z" fill="white"/>
<path d="M866.058 981.35L866.459 980.486L864.886 978.887L866.707 979.952L867.107 979.087L867.831 980.609L869.651 981.673L868.279 981.55L869.004 983.073L867.431 981.474L866.058 981.35Z" fill="white"/>
<path d="M949.255 916.38L949.655 915.516L948.083 913.917L949.903 914.981L950.303 914.116L951.027 915.638L952.848 916.703L951.476 916.58L952.2 918.102L950.627 916.503L949.255 916.38Z" fill="white"/>
<path d="M893.412 812.511L893.813 811.646L892.24 810.048L894.06 811.112L894.46 810.247L895.185 811.769L897.005 812.833L895.633 812.711L896.357 814.233L894.785 812.634L893.412 812.511Z" fill="white"/>
<path d="M1033.29 862.317L1033.69 861.453L1032.12 859.854L1033.94 860.918L1034.34 860.053L1035.06 861.576L1036.88 862.64L1035.51 862.517L1036.23 864.04L1034.66 862.441L1033.29 862.317Z" fill="white"/>
<path d="M968.555 788.801C969.369 788.79 970.468 789.17 971.642 789.868C972.816 790.565 973.983 791.532 974.92 792.584C975.857 793.636 976.499 794.699 976.724 795.571C976.949 796.443 976.74 797.063 976.139 797.313C975.537 797.563 974.584 797.425 973.462 796.926C972.339 796.426 971.125 795.6 970.051 794.605C968.977 793.61 968.118 792.516 967.638 791.53C967.158 790.544 967.09 789.736 967.447 789.26C967.669 788.964 968.048 788.807 968.555 788.801ZM974.944 794.967C974.936 794.722 974.853 794.432 974.699 794.114C974.545 793.796 974.324 793.456 974.048 793.114C973.562 792.509 972.929 791.925 972.259 791.462C971.589 790.999 970.923 790.686 970.373 790.575C969.823 790.464 969.425 790.563 969.245 790.855C969.065 791.147 969.116 791.613 969.388 792.175C969.659 792.737 970.136 793.359 970.736 793.935C971.336 794.512 972.022 795.007 972.678 795.336C973.334 795.666 973.918 795.809 974.331 795.741C974.744 795.674 974.961 795.4 974.944 794.967Z" fill="#E6E6E6"/>
<path d="M875.317 1004.5C875.674 1004.01 876.437 1003.9 877.458 1004.17C878.479 1004.45 879.688 1005.09 880.854 1005.99C882.021 1006.88 883.062 1007.96 883.781 1009.02C884.499 1010.08 884.844 1011.04 884.749 1011.72C884.655 1012.41 884.128 1012.77 883.269 1012.73C882.409 1012.69 881.278 1012.26 880.091 1011.53C878.903 1010.79 877.743 1009.79 876.83 1008.72C875.918 1007.66 875.318 1006.6 875.145 1005.74C875.038 1005.22 875.097 1004.79 875.317 1004.5ZM882.684 1010.71C882.874 1010.45 882.865 1010.04 882.656 1009.53C882.448 1009.02 882.051 1008.45 881.527 1007.89C881.003 1007.33 880.38 1006.83 879.752 1006.45C879.124 1006.06 878.524 1005.83 878.045 1005.78C877.565 1005.73 877.231 1005.86 877.093 1006.16C876.955 1006.45 877.021 1006.9 877.28 1007.43C877.54 1007.96 877.979 1008.54 878.531 1009.08C879.083 1009.63 879.719 1010.11 880.342 1010.45C880.879 1010.75 881.384 1010.93 881.798 1010.97C882.211 1011.02 882.518 1010.93 882.684 1010.71Z" fill="#E6E6E6"/>
<path d="M856.944 947.562C857.996 948.587 858.806 949.688 859.221 950.656C859.637 951.624 859.628 952.39 859.196 952.809C858.764 953.228 857.94 953.27 856.881 952.927C855.822 952.584 854.602 951.88 853.453 950.949C852.304 950.019 851.308 948.926 850.654 947.881C850 946.836 849.733 945.911 849.906 945.282C850.078 944.653 850.678 944.365 851.589 944.472C852.501 944.579 853.661 945.075 854.849 945.864C855.58 946.349 856.297 946.93 856.944 947.562ZM853.333 949.537C853.889 950.08 854.526 950.557 855.147 950.894C855.769 951.232 856.341 951.412 856.778 951.407C857.214 951.403 857.491 951.214 857.567 950.87C857.643 950.526 857.513 950.044 857.198 949.498C856.882 948.952 856.398 948.372 855.819 947.845C855.239 947.317 854.595 946.871 853.985 946.575C853.374 946.278 852.83 946.147 852.435 946.2C852.039 946.254 851.814 946.49 851.793 946.872C851.775 947.202 851.91 947.627 852.182 948.098C852.454 948.569 852.853 949.068 853.333 949.537Z" fill="#E6E6E6"/>
<path d="M414.563 295.317C416.668 297.002 421.981 294.363 426.431 289.424C430.881 284.484 432.783 279.113 430.678 277.428C428.574 275.743 423.261 278.382 418.811 283.321C414.361 288.261 412.459 293.632 414.563 295.317Z" fill="#BFCACB"/>
<path d="M338.397 286.675C338.818 287.012 339.881 286.485 340.771 285.497C341.661 284.509 342.041 283.435 341.62 283.098C341.2 282.761 340.137 283.288 339.247 284.276C338.357 285.264 337.977 286.338 338.397 286.675Z" fill="#074F57"/>
<path d="M268.109 290.438C268.53 290.775 269.593 290.247 270.483 289.259C271.373 288.271 271.753 287.197 271.332 286.86C270.911 286.523 269.849 287.051 268.959 288.039C268.069 289.027 267.688 290.101 268.109 290.438Z" fill="#074F57"/>
<path d="M266.146 210.344C266.567 210.681 267.63 210.154 268.52 209.166C269.41 208.178 269.79 207.103 269.369 206.766C268.949 206.429 267.886 206.957 266.996 207.945C266.106 208.933 265.726 210.007 266.146 210.344Z" fill="#FF6584"/>
<path d="M324.723 180.267C325.144 180.604 326.206 180.076 327.096 179.088C327.986 178.1 328.367 177.026 327.946 176.689C327.525 176.352 326.462 176.88 325.572 177.868C324.682 178.856 324.302 179.93 324.723 180.267Z" fill="white"/>
<path d="M460.848 272.333C461.269 272.67 462.331 272.142 463.221 271.154C464.111 270.166 464.492 269.092 464.071 268.755C463.65 268.418 462.587 268.945 461.697 269.933C460.807 270.921 460.427 271.996 460.848 272.333Z" fill="white"/>
<path d="M394.207 271.319C394.628 271.656 395.691 271.128 396.581 270.14C397.471 269.152 397.851 268.078 397.43 267.741C397.009 267.404 395.946 267.932 395.056 268.92C394.166 269.908 393.786 270.982 394.207 271.319Z" fill="white"/>
<path d="M252.249 259.262C252.67 259.599 253.733 259.072 254.623 258.084C255.513 257.096 255.893 256.021 255.472 255.684C255.051 255.347 253.988 255.875 253.098 256.863C252.208 257.851 251.828 258.925 252.249 259.262Z" fill="white"/>
<path d="M198.787 207.214C199.208 207.551 200.271 207.024 201.161 206.036C202.051 205.048 202.431 203.974 202.01 203.637C201.589 203.3 200.527 203.827 199.637 204.815C198.747 205.803 198.366 206.877 198.787 207.214Z" fill="#FF6584"/>
<path d="M210.388 248.97L209.537 248.542L207.888 250.062L209.011 248.277L208.159 247.849L209.704 247.174L210.827 245.389L210.659 246.757L212.205 246.082L210.556 247.602L210.388 248.97Z" fill="white"/>
<path d="M387.624 227.69L386.773 227.261L385.124 228.782L386.247 226.997L385.395 226.569L386.941 225.894L388.063 224.109L387.896 225.476L389.441 224.802L387.792 226.322L387.624 227.69Z" fill="white"/>
<path d="M365.795 334.922L364.944 334.494L363.295 336.014L364.418 334.229L363.566 333.801L365.111 333.126L366.234 331.342L366.067 332.709L367.612 332.034L365.963 333.554L365.795 334.922Z" fill="white"/>
<path d="M303.551 249.667L302.7 249.238L301.051 250.758L302.174 248.973L301.322 248.545L302.867 247.871L303.99 246.086L303.823 247.453L305.368 246.778L303.719 248.298L303.551 249.667Z" fill="white"/>
<path d="M197.928 302.119L197.077 301.69L195.428 303.21L196.551 301.425L195.699 300.998L197.244 300.323L198.367 298.538L198.2 299.905L199.745 299.23L198.096 300.751L197.928 302.119Z" fill="white"/>
<path d="M252.236 163.927L251.386 163.499L249.737 165.019L250.859 163.234L250.008 162.806L251.553 162.131L252.675 160.347L252.508 161.714L254.053 161.039L252.404 162.559L252.236 163.927Z" fill="white"/>
<path d="M176.663 226.246C176.679 225.432 177.094 224.346 177.829 223.195C178.565 222.044 179.569 220.91 180.65 220.007C181.732 219.105 182.815 218.497 183.694 218.301C184.573 218.104 185.186 218.332 185.416 218.942C185.647 219.551 185.478 220.499 184.942 221.605C184.407 222.711 183.542 223.898 182.513 224.939C181.484 225.98 180.362 226.803 179.361 227.251C178.36 227.699 177.551 227.741 177.087 227.368C176.798 227.137 176.653 226.753 176.663 226.246ZM183.033 220.06C182.788 220.06 182.496 220.134 182.173 220.277C181.85 220.421 181.503 220.631 181.152 220.896C180.531 221.362 179.927 221.975 179.443 222.63C178.958 223.285 178.624 223.941 178.495 224.487C178.367 225.032 178.453 225.434 178.739 225.623C179.024 225.812 179.492 225.777 180.062 225.523C180.633 225.27 181.27 224.813 181.865 224.232C182.461 223.651 182.978 222.981 183.328 222.337C183.679 221.692 183.841 221.113 183.787 220.698C183.733 220.282 183.466 220.057 183.033 220.06Z" fill="#E6E6E6"/>
<path d="M389.227 326.418C388.756 326.045 388.666 325.28 388.974 324.268C389.282 323.256 389.967 322.068 390.898 320.932C391.829 319.795 392.941 318.789 394.022 318.105C395.102 317.421 396.076 317.108 396.757 317.224C397.439 317.341 397.779 317.879 397.715 318.737C397.651 319.595 397.185 320.711 396.408 321.874C395.631 323.037 394.596 324.165 393.5 325.042C392.405 325.919 391.326 326.485 390.47 326.63C389.942 326.72 389.517 326.648 389.227 326.418ZM395.674 319.256C395.425 319.057 395.013 319.054 394.498 319.246C393.984 319.438 393.396 319.815 392.822 320.321C392.249 320.826 391.721 321.433 391.32 322.048C390.919 322.664 390.665 323.255 390.597 323.733C390.529 324.211 390.651 324.549 390.944 324.697C391.237 324.844 391.686 324.793 392.222 324.55C392.758 324.308 393.352 323.888 393.915 323.354C394.478 322.82 394.979 322.2 395.343 321.589C395.656 321.061 395.853 320.563 395.912 320.15C395.97 319.738 395.888 319.428 395.674 319.256Z" fill="#E6E6E6"/>
<path d="M331.728 342.937C332.786 341.92 333.913 341.145 334.894 340.762C335.875 340.378 336.641 340.412 337.046 340.857C337.45 341.302 337.465 342.127 337.088 343.174C336.711 344.222 335.968 345.419 335.001 346.536C334.033 347.654 332.909 348.615 331.843 349.235C330.778 349.855 329.844 350.091 329.221 349.898C328.598 349.705 328.33 349.097 328.467 348.189C328.603 347.282 329.136 346.138 329.963 344.977C330.472 344.261 331.075 343.564 331.728 342.937ZM333.585 346.611C334.146 346.073 334.643 345.451 335 344.841C335.358 344.231 335.556 343.665 335.566 343.228C335.576 342.792 335.396 342.509 335.055 342.422C334.713 342.335 334.227 342.449 333.672 342.747C333.116 343.044 332.52 343.509 331.974 344.072C331.428 344.634 330.962 345.263 330.646 345.863C330.329 346.464 330.18 347.004 330.221 347.401C330.262 347.798 330.49 348.03 330.872 348.064C331.201 348.092 331.63 347.971 332.11 347.714C332.59 347.458 333.1 347.075 333.585 346.611Z" fill="#E6E6E6"/>
<path d="M925.22 716.812C923.604 718.97 926.414 724.195 931.495 728.483C936.576 732.771 942.006 734.497 943.622 732.34C945.238 730.182 942.429 724.957 937.347 720.669C932.266 716.381 926.837 714.654 925.22 716.812Z" fill="#BFCACB"/>
<path d="M931.393 640.406C931.07 640.838 931.631 641.883 932.648 642.741C933.664 643.598 934.75 643.943 935.073 643.512C935.396 643.08 934.834 642.035 933.818 641.178C932.802 640.32 931.716 639.975 931.393 640.406Z" fill="#074F57"/>
<path d="M925.358 570.276C925.034 570.708 925.596 571.753 926.612 572.611C927.629 573.468 928.715 573.814 929.038 573.382C929.361 572.95 928.799 571.905 927.783 571.048C926.767 570.19 925.681 569.845 925.358 570.276Z" fill="#074F57"/>
<path d="M1005.35 565.723C1005.02 566.154 1005.58 567.199 1006.6 568.057C1007.62 568.914 1008.7 569.26 1009.03 568.828C1009.35 568.397 1008.79 567.352 1007.77 566.494C1006.75 565.637 1005.67 565.291 1005.35 565.723Z" fill="#FF6584"/>
<path d="M1037.3 623.295C1036.98 623.727 1037.54 624.772 1038.56 625.629C1039.57 626.487 1040.66 626.832 1040.98 626.401C1041.31 625.969 1040.74 624.924 1039.73 624.066C1038.71 623.209 1037.63 622.863 1037.3 623.295Z" fill="white"/>
<path d="M949.692 762.328C949.368 762.76 949.93 763.805 950.946 764.662C951.963 765.52 953.049 765.865 953.372 765.434C953.695 765.002 953.133 763.957 952.117 763.1C951.101 762.242 950.015 761.897 949.692 762.328Z" fill="white"/>
<path d="M948.548 695.69C948.225 696.121 948.787 697.166 949.803 698.024C950.819 698.881 951.905 699.227 952.228 698.795C952.551 698.364 951.99 697.318 950.973 696.461C949.957 695.603 948.871 695.258 948.548 695.69Z" fill="white"/>
<path d="M956.004 553.415C955.681 553.847 956.243 554.892 957.259 555.749C958.275 556.607 959.361 556.952 959.684 556.521C960.008 556.089 959.446 555.044 958.429 554.187C957.413 553.329 956.327 552.984 956.004 553.415Z" fill="white"/>
<path d="M1006.29 498.297C1005.97 498.729 1006.53 499.774 1007.55 500.631C1008.57 501.489 1009.65 501.834 1009.97 501.402C1010.3 500.971 1009.74 499.926 1008.72 499.068C1007.7 498.211 1006.62 497.865 1006.29 498.297Z" fill="#FF6584"/>
<path d="M964.935 511.244L965.336 510.38L963.763 508.781L965.583 509.845L965.984 508.98L966.708 510.503L968.528 511.567L967.156 511.444L967.881 512.966L966.308 511.368L964.935 511.244Z" fill="white"/>
<path d="M991.941 687.698L992.342 686.834L990.769 685.235L992.589 686.299L992.989 685.434L993.714 686.957L995.534 688.021L994.162 687.898L994.887 689.421L993.314 687.822L991.941 687.698Z" fill="white"/>
<path d="M884.058 669.35L884.459 668.486L882.886 666.887L884.707 667.952L885.107 667.087L885.831 668.609L887.651 669.673L886.279 669.55L887.004 671.073L885.431 669.474L884.058 669.35Z" fill="white"/>
<path d="M967.255 604.38L967.655 603.516L966.083 601.917L967.903 602.981L968.303 602.116L969.027 603.638L970.848 604.703L969.476 604.58L970.2 606.102L968.627 604.503L967.255 604.38Z" fill="white"/>
<path d="M911.412 500.511L911.813 499.646L910.24 498.048L912.06 499.112L912.46 498.247L913.185 499.769L915.005 500.833L913.633 500.711L914.357 502.233L912.785 500.634L911.412 500.511Z" fill="white"/>
<path d="M1051.29 550.317L1051.69 549.453L1050.12 547.854L1051.94 548.918L1052.34 548.053L1053.06 549.576L1054.88 550.64L1053.51 550.517L1054.23 552.04L1052.66 550.441L1051.29 550.317Z" fill="white"/>
<path d="M986.555 476.801C987.369 476.79 988.468 477.17 989.642 477.868C990.816 478.565 991.983 479.532 992.92 480.584C993.857 481.636 994.499 482.699 994.724 483.571C994.949 484.443 994.74 485.063 994.139 485.313C993.537 485.563 992.584 485.425 991.462 484.926C990.339 484.426 989.125 483.6 988.051 482.605C986.977 481.61 986.118 480.516 985.638 479.53C985.158 478.544 985.09 477.736 985.447 477.26C985.669 476.964 986.048 476.807 986.555 476.801ZM992.944 482.967C992.936 482.722 992.853 482.432 992.699 482.114C992.545 481.796 992.324 481.456 992.048 481.114C991.562 480.509 990.929 479.925 990.259 479.462C989.589 478.999 988.923 478.686 988.373 478.575C987.823 478.464 987.425 478.563 987.245 478.855C987.065 479.147 987.116 479.613 987.388 480.175C987.659 480.737 988.136 481.359 988.736 481.935C989.336 482.512 990.022 483.007 990.678 483.336C991.334 483.666 991.918 483.809 992.331 483.741C992.744 483.674 992.961 483.4 992.944 482.967Z" fill="#E6E6E6"/>
<path d="M893.317 692.496C893.674 692.013 894.437 691.898 895.458 692.173C896.479 692.448 897.688 693.095 898.854 693.988C900.021 694.882 901.062 695.961 901.781 697.019C902.499 698.077 902.844 699.04 902.749 699.724C902.655 700.409 902.128 700.767 901.269 700.731C900.409 700.694 899.278 700.265 898.091 699.526C896.903 698.786 895.743 697.788 894.83 696.722C893.918 695.656 893.318 694.596 893.145 693.745C893.038 693.22 893.097 692.793 893.317 692.496ZM900.684 698.707C900.874 698.453 900.865 698.04 900.656 697.532C900.448 697.024 900.051 696.448 899.527 695.891C899.003 695.335 898.38 694.827 897.752 694.446C897.124 694.065 896.524 693.83 896.045 693.778C895.565 693.726 895.231 693.858 895.093 694.156C894.955 694.454 895.021 694.901 895.28 695.428C895.54 695.956 895.979 696.537 896.531 697.082C897.083 697.628 897.719 698.109 898.342 698.452C898.879 698.748 899.384 698.929 899.798 698.974C900.211 699.019 900.518 698.927 900.684 698.707Z" fill="#E6E6E6"/>
<path d="M874.944 635.562C875.996 636.587 876.806 637.688 877.221 638.656C877.637 639.624 877.628 640.39 877.196 640.809C876.764 641.228 875.94 641.27 874.881 640.927C873.822 640.584 872.602 639.88 871.453 638.949C870.304 638.019 869.308 636.926 868.654 635.881C868 634.836 867.733 633.911 867.906 633.282C868.078 632.653 868.678 632.365 869.589 632.472C870.501 632.579 871.661 633.075 872.849 633.864C873.58 634.349 874.297 634.93 874.944 635.562ZM871.333 637.537C871.889 638.08 872.526 638.557 873.147 638.894C873.769 639.232 874.341 639.412 874.778 639.407C875.214 639.403 875.491 639.214 875.567 638.87C875.643 638.526 875.513 638.044 875.198 637.498C874.882 636.952 874.398 636.372 873.819 635.845C873.239 635.317 872.595 634.871 871.985 634.575C871.374 634.278 870.83 634.147 870.435 634.2C870.039 634.254 869.814 634.49 869.793 634.872C869.775 635.202 869.91 635.627 870.182 636.098C870.454 636.569 870.853 637.068 871.333 637.537Z" fill="#E6E6E6"/>
<path d="M616.989 601.928C614.321 602.316 612.625 608.001 613.2 614.625C613.775 621.249 616.403 626.303 619.071 625.915C621.739 625.526 623.435 619.841 622.86 613.217C622.285 606.594 619.656 601.539 616.989 601.928Z" fill="#BFCACB"/>
<path d="M675.276 552.143C674.742 552.221 674.403 553.358 674.518 554.683C674.633 556.007 675.159 557.018 675.692 556.941C676.226 556.863 676.565 555.726 676.45 554.401C676.335 553.076 675.809 552.065 675.276 552.143Z" fill="#074F57"/>
<path d="M720.485 498.191C719.951 498.269 719.612 499.406 719.727 500.73C719.842 502.055 720.368 503.066 720.901 502.988C721.435 502.911 721.774 501.774 721.659 500.449C721.544 499.124 721.018 498.113 720.485 498.191Z" fill="#074F57"/>
<path d="M780.376 551.406C779.843 551.484 779.503 552.621 779.618 553.945C779.733 555.27 780.259 556.281 780.793 556.203C781.326 556.126 781.666 554.989 781.551 553.664C781.436 552.339 780.91 551.328 780.376 551.406Z" fill="#FF6584"/>
<path d="M762.397 614.751C761.863 614.828 761.524 615.965 761.639 617.29C761.754 618.615 762.28 619.626 762.813 619.548C763.347 619.47 763.686 618.333 763.571 617.009C763.456 615.684 762.93 614.673 762.397 614.751Z" fill="white"/>
<path d="M602.211 651.447C601.678 651.525 601.338 652.662 601.453 653.986C601.568 655.311 602.094 656.322 602.628 656.244C603.161 656.167 603.501 655.03 603.386 653.705C603.271 652.38 602.745 651.369 602.211 651.447Z" fill="white"/>
<path d="M648.423 603.42C647.89 603.498 647.55 604.635 647.665 605.96C647.78 607.285 648.306 608.296 648.84 608.218C649.373 608.14 649.712 607.003 649.597 605.678C649.482 604.354 648.957 603.343 648.423 603.42Z" fill="white"/>
<path d="M754.097 507.868C753.563 507.945 753.224 509.082 753.339 510.407C753.454 511.732 753.98 512.743 754.513 512.665C755.047 512.587 755.386 511.45 755.271 510.126C755.156 508.801 754.631 507.79 754.097 507.868Z" fill="white"/>
<path d="M828.625 504.297C828.092 504.375 827.752 505.512 827.867 506.837C827.982 508.162 828.508 509.173 829.042 509.095C829.575 509.017 829.915 507.88 829.8 506.555C829.685 505.231 829.159 504.22 828.625 504.297Z" fill="#FF6584"/>
<path d="M790.183 484.287L791.077 483.958L791.091 481.715L791.63 483.754L792.524 483.423L791.963 485.013L792.502 487.052L791.616 485.996L791.055 487.586L791.069 485.344L790.183 484.287Z" fill="white"/>
<path d="M684.809 628.377L685.703 628.048L685.717 625.805L686.256 627.843L687.15 627.513L686.589 629.103L687.128 631.141L686.242 630.086L685.681 631.676L685.695 629.434L684.809 628.377Z" fill="white"/>
<path d="M621.311 539.252L622.205 538.923L622.219 536.68L622.758 538.718L623.652 538.388L623.091 539.978L623.63 542.016L622.744 540.961L622.183 542.551L622.197 540.309L621.311 539.252Z" fill="white"/>
<path d="M726.107 551.919L727.001 551.59L727.015 549.347L727.554 551.385L728.448 551.055L727.887 552.645L728.426 554.683L727.54 553.628L726.979 555.218L726.993 552.976L726.107 551.919Z" fill="white"/>
<path d="M759.831 438.914L760.725 438.585L760.738 436.342L761.277 438.381L762.171 438.05L761.61 439.64L762.149 441.678L761.264 440.623L760.703 442.213L760.716 439.971L759.831 438.914Z" fill="white"/>
<path d="M823.801 572.907L824.695 572.578L824.708 570.335L825.247 572.374L826.141 572.043L825.58 573.633L826.119 575.672L825.233 574.616L824.672 576.207L824.686 573.964L823.801 572.907Z" fill="white"/>
<path d="M829.807 475.138C830.391 475.705 830.902 476.75 831.241 478.072C831.581 479.395 831.725 480.903 831.647 482.31C831.569 483.717 831.274 484.923 830.818 485.7C830.362 486.476 829.777 486.769 829.174 486.521C828.572 486.274 827.994 485.503 827.55 484.357C827.107 483.211 826.83 481.77 826.771 480.307C826.712 478.844 826.876 477.462 827.231 476.425C827.586 475.387 828.108 474.767 828.697 474.682C829.063 474.629 829.443 474.785 829.807 475.138ZM829.983 484.016C830.15 483.837 830.295 483.572 830.411 483.238C830.526 482.904 830.609 482.507 830.655 482.07C830.738 481.298 830.702 480.438 830.554 479.638C830.406 478.837 830.154 478.144 829.843 477.678C829.532 477.212 829.179 477 828.846 477.08C828.513 477.16 828.219 477.526 828.016 478.116C827.812 478.706 827.711 479.483 827.729 480.315C827.748 481.147 827.884 481.982 828.117 482.678C828.349 483.374 828.662 483.888 829.002 484.132C829.342 484.376 829.689 484.335 829.983 484.016Z" fill="#E6E6E6"/>
<path d="M611.54 562.185C612.134 562.095 612.755 562.552 613.284 563.467C613.814 564.383 614.215 565.694 614.41 567.15C614.606 568.606 614.583 570.106 614.345 571.362C614.108 572.619 613.673 573.545 613.123 573.963C612.573 574.382 611.946 574.264 611.363 573.631C610.78 572.999 610.281 571.897 609.962 570.535C609.642 569.173 609.524 567.647 609.63 566.248C609.736 564.849 610.058 563.674 610.536 562.949C610.831 562.502 611.174 562.241 611.54 562.185ZM612.376 571.785C612.691 571.739 612.976 571.44 613.186 570.933C613.397 570.426 613.523 569.738 613.544 568.974C613.566 568.21 613.482 567.41 613.306 566.697C613.13 565.983 612.871 565.394 612.568 565.019C612.265 564.643 611.934 564.502 611.626 564.615C611.319 564.729 611.05 565.092 610.861 565.649C610.673 566.206 610.574 566.927 610.581 567.703C610.587 568.48 610.698 569.269 610.897 569.951C611.069 570.54 611.299 571.025 611.561 571.349C611.822 571.673 612.105 571.824 612.376 571.785Z" fill="#E6E6E6"/>
<path d="M638.696 508.879C638.717 510.347 638.514 511.699 638.125 512.678C637.737 513.657 637.19 514.194 636.588 514.186C635.987 514.178 635.373 513.626 634.865 512.636C634.356 511.645 633.988 510.285 633.831 508.816C633.674 507.346 633.739 505.869 634.013 504.666C634.287 503.464 634.751 502.621 635.317 502.297C635.883 501.973 636.511 502.192 637.081 502.911C637.651 503.63 638.124 504.8 638.409 506.197C638.584 507.057 638.682 507.974 638.696 508.879ZM634.743 507.73C634.753 508.507 634.868 509.294 635.071 509.972C635.273 510.65 635.551 511.181 635.864 511.486C636.176 511.791 636.506 511.853 636.802 511.662C637.099 511.472 637.347 511.039 637.509 510.43C637.67 509.821 637.737 509.068 637.698 508.285C637.66 507.502 637.518 506.732 637.295 506.091C637.071 505.45 636.779 504.973 636.461 504.732C636.142 504.491 635.816 504.499 635.532 504.755C635.286 504.976 635.082 505.373 634.942 505.899C634.803 506.424 634.734 507.059 634.743 507.73Z" fill="#E6E6E6"/>
<path d="M846.606 267.257C849.477 269.569 856.672 265.877 862.677 259.012C868.681 252.147 871.222 244.708 868.351 242.396C865.48 240.084 858.285 243.775 852.28 250.64C846.275 257.505 843.735 264.945 846.606 267.257Z" fill="#BFCACB"/>
<path d="M743.102 255.939C743.676 256.402 745.115 255.663 746.316 254.29C747.517 252.917 748.025 251.429 747.451 250.967C746.877 250.505 745.438 251.243 744.237 252.616C743.036 253.989 742.528 255.477 743.102 255.939Z" fill="#074F57"/>
<path d="M647.675 261.72C648.249 262.183 649.688 261.445 650.889 260.072C652.09 258.699 652.598 257.211 652.024 256.748C651.45 256.286 650.011 257.024 648.81 258.397C647.609 259.77 647.101 261.258 647.675 261.72Z" fill="#074F57"/>
<path d="M644.384 151.023C644.958 151.486 646.397 150.747 647.598 149.374C648.799 148.001 649.307 146.513 648.733 146.051C648.159 145.589 646.72 146.327 645.519 147.7C644.318 149.073 643.81 150.561 644.384 151.023Z" fill="#FF6584"/>
<path d="M723.697 108.965C724.271 109.427 725.71 108.689 726.911 107.316C728.112 105.943 728.62 104.455 728.046 103.992C727.471 103.53 726.032 104.268 724.831 105.641C723.63 107.014 723.122 108.502 723.697 108.965Z" fill="white"/>
<path d="M909.282 235.103C909.856 235.566 911.295 234.827 912.496 233.454C913.697 232.081 914.205 230.594 913.63 230.131C913.056 229.669 911.617 230.407 910.416 231.78C909.215 233.153 908.707 234.641 909.282 235.103Z" fill="white"/>
<path d="M818.773 234.251C819.347 234.713 820.786 233.975 821.987 232.602C823.188 231.229 823.696 229.741 823.122 229.279C822.548 228.816 821.108 229.554 819.908 230.927C818.707 232.3 818.199 233.788 818.773 234.251Z" fill="white"/>
<path d="M625.893 218.758C626.467 219.22 627.906 218.482 629.107 217.109C630.308 215.736 630.816 214.248 630.242 213.785C629.668 213.323 628.229 214.061 627.028 215.434C625.827 216.807 625.319 218.295 625.893 218.758Z" fill="white"/>
<path d="M552.881 147.253C553.455 147.715 554.894 146.977 556.095 145.604C557.296 144.231 557.804 142.743 557.23 142.281C556.656 141.818 555.217 142.556 554.016 143.929C552.815 145.302 552.307 146.79 552.881 147.253Z" fill="#FF6584"/>
<path d="M568.964 204.876L567.805 204.291L565.578 206.406L567.088 203.929L565.928 203.345L568.021 202.399L569.532 199.923L569.315 201.814L571.409 200.869L569.181 202.984L568.964 204.876Z" fill="white"/>
<path d="M809.491 173.997L808.332 173.412L806.105 175.527L807.615 173.051L806.456 172.466L808.549 171.521L810.059 169.044L809.843 170.935L811.936 169.99L809.709 172.105L809.491 173.997Z" fill="white"/>
<path d="M780.686 322.404L779.528 321.818L777.3 323.933L778.811 321.457L777.651 320.872L779.744 319.927L781.254 317.45L781.038 319.342L783.131 318.396L780.904 320.511L780.686 322.404Z" fill="white"/>
<path d="M695.488 205.071L694.329 204.485L692.102 206.6L693.612 204.124L692.453 203.539L694.546 202.594L696.056 200.117L695.84 202.009L697.933 201.063L695.706 203.178L695.488 205.071Z" fill="white"/>
<path d="M552.459 278.446L551.3 277.86L549.073 279.975L550.583 277.499L549.423 276.914L551.516 275.969L553.027 273.492L552.81 275.384L554.904 274.438L552.676 276.553L552.459 278.446Z" fill="white"/>
<path d="M625.13 86.977L623.971 86.3914L621.744 88.5064L623.254 86.0301L622.094 85.4457L624.187 84.5L625.698 82.0236L625.481 83.915L627.575 82.9693L625.347 85.0844L625.13 86.977Z" fill="white"/>
<path d="M522.986 173.744C523.001 172.618 523.557 171.113 524.546 169.516C525.536 167.92 526.891 166.343 528.352 165.087C529.814 163.83 531.281 162.981 532.473 162.703C533.665 162.424 534.499 162.734 534.816 163.575C535.134 164.415 534.912 165.727 534.194 167.26C533.475 168.793 532.31 170.44 530.921 171.888C529.531 173.336 528.014 174.483 526.658 175.11C525.303 175.738 524.204 175.802 523.57 175.291C523.176 174.974 522.977 174.444 522.986 173.744ZM531.588 165.14C531.256 165.142 530.859 165.246 530.422 165.448C529.985 165.649 529.515 165.942 529.04 166.311C528.201 166.961 527.386 167.813 526.733 168.722C526.08 169.631 525.631 170.541 525.461 171.296C525.29 172.052 525.41 172.606 525.8 172.865C526.19 173.124 526.825 173.072 527.597 172.716C528.37 172.361 529.231 171.725 530.036 170.917C530.84 170.109 531.537 169.179 532.008 168.285C532.478 167.391 532.694 166.589 532.617 166.015C532.541 165.442 532.177 165.132 531.588 165.14Z" fill="#E6E6E6"/>
<path d="M812.442 310.455C811.799 309.944 811.671 308.886 812.081 307.485C812.492 306.084 813.413 304.437 814.668 302.858C815.924 301.279 817.426 299.879 818.888 298.925C820.351 297.971 821.671 297.53 822.597 297.685C823.523 297.841 823.99 298.582 823.909 299.768C823.828 300.954 823.205 302.502 822.158 304.115C821.112 305.729 819.715 307.297 818.235 308.518C816.754 309.74 815.293 310.53 814.131 310.739C813.415 310.868 812.838 310.771 812.442 310.455ZM821.141 300.503C820.802 300.23 820.242 300.228 819.545 300.498C818.847 300.767 818.051 301.294 817.277 301.997C816.502 302.701 815.791 303.544 815.25 304.398C814.71 305.252 814.37 306.072 814.282 306.733C814.193 307.394 814.361 307.86 814.761 308.062C815.16 308.263 815.768 308.189 816.494 307.849C817.22 307.51 818.024 306.925 818.785 306.181C819.545 305.438 820.221 304.577 820.71 303.729C821.131 302.998 821.395 302.307 821.471 301.737C821.547 301.166 821.433 300.739 821.141 300.503Z" fill="#E6E6E6"/>
<path d="M734.485 333.766C735.915 332.351 737.439 331.271 738.768 330.732C740.097 330.194 741.138 330.234 741.691 330.846C742.244 331.458 742.271 332.598 741.767 334.049C741.263 335.5 740.263 337.161 738.958 338.714C737.653 340.267 736.134 341.604 734.692 342.47C733.249 343.336 731.983 343.67 731.136 343.408C730.288 343.147 729.919 342.308 730.097 341.053C730.276 339.797 730.99 338.212 732.104 336.6C732.79 335.606 733.604 334.637 734.485 333.766ZM737.036 338.829C737.794 338.08 738.464 337.217 738.944 336.371C739.425 335.524 739.69 334.74 739.7 334.136C739.71 333.533 739.464 333.143 738.999 333.026C738.534 332.909 737.876 333.07 737.123 333.486C736.371 333.902 735.565 334.55 734.829 335.332C734.092 336.113 733.463 336.987 733.038 337.819C732.614 338.652 732.416 339.399 732.474 339.948C732.533 340.496 732.844 340.816 733.363 340.859C733.81 340.896 734.392 340.725 735.042 340.366C735.691 340.007 736.382 339.474 737.036 338.829Z" fill="#E6E6E6"/>
<path d="M457.266 395.748C454.598 396.137 452.902 401.821 453.477 408.445C454.052 415.069 456.681 420.124 459.348 419.735C462.016 419.346 463.713 413.662 463.138 407.038C462.563 400.414 459.934 395.359 457.266 395.748Z" fill="#BFCACB"/>
<path d="M515.553 345.963C515.019 346.041 514.68 347.178 514.795 348.503C514.91 349.828 515.436 350.839 515.969 350.761C516.503 350.683 516.842 349.546 516.727 348.221C516.612 346.897 516.087 345.886 515.553 345.963Z" fill="#074F57"/>
<path d="M560.762 292.011C560.228 292.089 559.889 293.226 560.004 294.551C560.119 295.876 560.645 296.886 561.178 296.809C561.712 296.731 562.051 295.594 561.936 294.269C561.821 292.945 561.296 291.934 560.762 292.011Z" fill="#074F57"/>
<path d="M620.654 345.226C620.12 345.304 619.781 346.441 619.896 347.766C620.011 349.09 620.537 350.101 621.07 350.024C621.604 349.946 621.943 348.809 621.828 347.484C621.713 346.159 621.187 345.148 620.654 345.226Z" fill="#FF6584"/>
<path d="M602.674 408.571C602.141 408.649 601.801 409.786 601.916 411.11C602.031 412.435 602.557 413.446 603.091 413.368C603.624 413.291 603.963 412.154 603.848 410.829C603.733 409.504 603.208 408.493 602.674 408.571Z" fill="white"/>
<path d="M442.489 445.267C441.955 445.345 441.616 446.482 441.731 447.807C441.846 449.131 442.371 450.142 442.905 450.065C443.439 449.987 443.778 448.85 443.663 447.525C443.548 446.2 443.022 445.189 442.489 445.267Z" fill="white"/>
<path d="M488.7 397.241C488.167 397.319 487.828 398.455 487.943 399.78C488.058 401.105 488.583 402.116 489.117 402.038C489.65 401.96 489.99 400.824 489.875 399.499C489.76 398.174 489.234 397.163 488.7 397.241Z" fill="white"/>
<path d="M594.374 301.688C593.841 301.766 593.501 302.903 593.616 304.228C593.731 305.552 594.257 306.563 594.791 306.485C595.324 306.408 595.664 305.271 595.549 303.946C595.434 302.621 594.908 301.61 594.374 301.688Z" fill="white"/>
<path d="M668.903 298.118C668.369 298.195 668.03 299.332 668.145 300.657C668.26 301.982 668.786 302.993 669.319 302.915C669.853 302.837 670.192 301.7 670.077 300.376C669.962 299.051 669.436 298.04 668.903 298.118Z" fill="#FF6584"/>
<path d="M630.461 278.108L631.355 277.778L631.368 275.535L631.907 277.574L632.801 277.243L632.24 278.833L632.779 280.872L631.894 279.817L631.333 281.407L631.346 279.164L630.461 278.108Z" fill="white"/>
<path d="M525.087 422.198L525.981 421.868L525.994 419.625L526.533 421.664L527.427 421.333L526.866 422.923L527.405 424.962L526.52 423.907L525.959 425.497L525.972 423.254L525.087 422.198Z" fill="white"/>
<path d="M461.589 333.073L462.483 332.743L462.496 330.5L463.035 332.539L463.929 332.208L463.368 333.798L463.907 335.837L463.021 334.781L462.461 336.372L462.474 334.129L461.589 333.073Z" fill="white"/>
<path d="M566.385 345.74L567.278 345.41L567.292 343.167L567.831 345.206L568.725 344.875L568.164 346.465L568.703 348.504L567.817 347.448L567.256 349.039L567.27 346.796L566.385 345.74Z" fill="white"/>
<path d="M600.108 232.735L601.002 232.405L601.016 230.162L601.555 232.201L602.449 231.87L601.888 233.46L602.427 235.499L601.541 234.444L600.98 236.034L600.994 233.791L600.108 232.735Z" fill="white"/>
<path d="M664.078 366.728L664.972 366.398L664.986 364.156L665.524 366.194L666.418 365.863L665.857 367.454L666.396 369.492L665.511 368.437L664.95 370.027L664.964 367.784L664.078 366.728Z" fill="white"/>
<path d="M670.084 268.958C670.669 269.525 671.179 270.57 671.519 271.893C671.858 273.215 672.003 274.724 671.924 276.13C671.846 277.537 671.551 278.743 671.095 279.52C670.639 280.296 670.054 280.589 669.451 280.341C668.849 280.094 668.271 279.324 667.828 278.178C667.385 277.032 667.107 275.59 667.048 274.127C666.989 272.664 667.153 271.282 667.508 270.245C667.864 269.208 668.385 268.587 668.975 268.502C669.341 268.449 669.72 268.605 670.084 268.958ZM670.261 277.836C670.427 277.657 670.573 277.393 670.688 277.059C670.803 276.725 670.887 276.328 670.933 275.89C671.015 275.119 670.979 274.259 670.831 273.458C670.683 272.657 670.432 271.965 670.12 271.498C669.809 271.032 669.457 270.821 669.123 270.901C668.79 270.981 668.497 271.347 668.293 271.937C668.089 272.527 667.988 273.304 668.006 274.136C668.025 274.967 668.162 275.803 668.394 276.499C668.626 277.194 668.939 277.708 669.279 277.952C669.62 278.196 669.967 278.155 670.261 277.836Z" fill="#E6E6E6"/>
<path d="M451.817 356.006C452.411 355.916 453.032 356.372 453.562 357.288C454.091 358.204 454.492 359.514 454.688 360.971C454.883 362.427 454.86 363.926 454.623 365.183C454.385 366.439 453.95 367.365 453.4 367.784C452.85 368.202 452.224 368.084 451.641 367.452C451.058 366.819 450.559 365.717 450.239 364.355C449.919 362.994 449.801 361.468 449.907 360.068C450.013 358.669 450.336 357.495 450.814 356.769C451.108 356.322 451.451 356.061 451.817 356.006ZM452.654 365.605C452.969 365.559 453.253 365.26 453.464 364.753C453.674 364.246 453.8 363.558 453.821 362.794C453.843 362.03 453.759 361.231 453.583 360.517C453.407 359.804 453.148 359.215 452.845 358.839C452.542 358.463 452.212 358.322 451.904 358.436C451.596 358.549 451.327 358.912 451.139 359.469C450.95 360.026 450.852 360.747 450.858 361.524C450.865 362.3 450.976 363.089 451.175 363.772C451.347 364.361 451.576 364.845 451.838 365.169C452.099 365.493 452.382 365.644 452.654 365.605Z" fill="#E6E6E6"/>
<path d="M478.973 302.699C478.994 304.167 478.791 305.52 478.403 306.498C478.014 307.477 477.467 308.014 476.865 308.006C476.264 307.998 475.651 307.447 475.142 306.456C474.634 305.466 474.266 304.106 474.109 302.636C473.951 301.166 474.016 299.689 474.29 298.487C474.564 297.284 475.028 296.441 475.594 296.117C476.16 295.793 476.788 296.012 477.358 296.731C477.929 297.451 478.401 298.62 478.686 300.017C478.862 300.877 478.96 301.795 478.973 302.699ZM475.02 301.55C475.031 302.328 475.146 303.115 475.348 303.792C475.55 304.47 475.829 305.001 476.141 305.306C476.453 305.611 476.783 305.673 477.08 305.483C477.376 305.292 477.624 304.86 477.786 304.25C477.948 303.641 478.014 302.888 477.976 302.105C477.937 301.322 477.795 300.552 477.572 299.911C477.349 299.27 477.056 298.793 476.738 298.552C476.42 298.311 476.094 298.319 475.809 298.575C475.563 298.797 475.359 299.193 475.22 299.719C475.08 300.245 475.011 300.879 475.02 301.55Z" fill="#E6E6E6"/>
<path d="M971.339 106.254C973.063 104.181 970.524 98.8196 965.669 94.278C960.813 89.7363 955.479 87.7346 953.755 89.8071C952.03 91.8795 954.569 97.2413 959.425 101.783C964.281 106.325 969.615 108.326 971.339 106.254Z" fill="#BFCACB"/>
<path d="M961.274 182.245C961.619 181.83 961.111 180.758 960.14 179.85C959.169 178.941 958.102 178.541 957.757 178.956C957.412 179.37 957.92 180.442 958.891 181.351C959.862 182.259 960.929 182.659 961.274 182.245Z" fill="#074F57"/>
<path d="M963.721 252.592C964.066 252.177 963.558 251.105 962.587 250.196C961.616 249.288 960.549 248.888 960.204 249.302C959.86 249.717 960.367 250.789 961.339 251.697C962.31 252.606 963.377 253.006 963.721 252.592Z" fill="#074F57"/>
<path d="M883.605 253.055C883.95 252.641 883.442 251.569 882.471 250.66C881.5 249.752 880.433 249.352 880.088 249.766C879.743 250.181 880.251 251.253 881.222 252.161C882.193 253.07 883.26 253.47 883.605 253.055Z" fill="#FF6584"/>
<path d="M854.629 193.927C854.973 193.512 854.466 192.44 853.494 191.531C852.523 190.623 851.456 190.223 851.112 190.637C850.767 191.052 851.275 192.124 852.246 193.032C853.217 193.941 854.284 194.341 854.629 193.927Z" fill="white"/>
<path d="M949.224 59.5476C949.569 59.1332 949.061 58.0608 948.09 57.1525C947.119 56.2441 946.052 55.8438 945.707 56.2583C945.363 56.6728 945.87 57.7451 946.841 58.6535C947.813 59.5618 948.879 59.9621 949.224 59.5476Z" fill="white"/>
<path d="M946.964 126.158C947.308 125.744 946.801 124.671 945.829 123.763C944.858 122.854 943.791 122.454 943.447 122.869C943.102 123.283 943.61 124.355 944.581 125.264C945.552 126.172 946.619 126.572 946.964 126.158Z" fill="white"/>
<path d="M932.255 267.866C932.599 267.452 932.092 266.379 931.12 265.471C930.149 264.562 929.082 264.162 928.738 264.577C928.393 264.991 928.901 266.063 929.872 266.972C930.843 267.88 931.91 268.28 932.255 267.866Z" fill="white"/>
<path d="M879.215 320.345C879.56 319.93 879.053 318.858 878.081 317.949C877.11 317.041 876.043 316.641 875.699 317.055C875.354 317.47 875.862 318.542 876.833 319.45C877.804 320.359 878.871 320.759 879.215 320.345Z" fill="#FF6584"/>
<path d="M921.182 309.526L920.737 310.369L922.227 312.046L920.463 310.89L920.019 311.734L919.373 310.176L917.61 309.021L918.974 309.213L918.328 307.656L919.817 309.333L921.182 309.526Z" fill="white"/>
<path d="M903.22 131.924L902.775 132.766L904.265 134.444L902.501 133.288L902.057 134.131L901.412 132.574L899.648 131.418L901.012 131.611L900.366 130.053L901.855 131.73L903.22 131.924Z" fill="white"/>
<path d="M1010.02 155.755L1009.58 156.598L1011.07 158.275L1009.31 157.119L1008.86 157.962L1008.22 156.405L1006.45 155.249L1007.82 155.442L1007.17 153.884L1008.66 155.561L1010.02 155.755Z" fill="white"/>
<path d="M923.62 216.394L923.176 217.236L924.665 218.913L922.902 217.758L922.458 218.601L921.812 217.043L920.048 215.888L921.412 216.081L920.766 214.523L922.256 216.2L923.62 216.394Z" fill="white"/>
<path d="M974.087 322.979L973.643 323.821L975.132 325.498L973.368 324.343L972.925 325.186L972.279 323.628L970.515 322.473L971.879 322.665L971.233 321.108L972.722 322.785L974.087 322.979Z" fill="white"/>
<path d="M836.936 266.095L836.491 266.937L837.98 268.614L836.217 267.459L835.773 268.302L835.127 266.745L833.364 265.589L834.728 265.782L834.082 264.224L835.571 265.901L836.936 266.095Z" fill="white"/>
<path d="M897.832 342.821C897.017 342.79 895.939 342.355 894.802 341.598C893.666 340.841 892.55 339.816 891.668 338.718C890.786 337.619 890.199 336.525 890.019 335.642C889.839 334.76 890.078 334.151 890.692 333.932C891.305 333.714 892.25 333.9 893.346 334.456C894.441 335.012 895.612 335.899 896.634 336.947C897.655 337.996 898.457 339.133 898.886 340.142C899.316 341.151 899.342 341.961 898.961 342.418C898.724 342.703 898.338 342.84 897.832 342.821ZM891.765 336.337C891.761 336.581 891.829 336.875 891.967 337.201C892.104 337.526 892.308 337.877 892.566 338.233C893.02 338.862 893.622 339.477 894.268 339.974C894.913 340.47 895.563 340.818 896.106 340.956C896.65 341.095 897.053 341.016 897.247 340.734C897.442 340.452 897.415 339.983 897.172 339.409C896.929 338.834 896.485 338.188 895.915 337.582C895.345 336.975 894.685 336.446 894.047 336.083C893.409 335.721 892.833 335.548 892.417 335.594C892.001 335.641 891.77 335.903 891.765 336.337Z" fill="#E6E6E6"/>
<path d="M1001.96 132.167C1001.58 132.632 1000.81 132.707 999.805 132.38C998.8 132.053 997.625 131.346 996.506 130.394C995.387 129.442 994.402 128.311 993.738 127.218C993.075 126.125 992.78 125.145 992.909 124.466C993.038 123.787 993.583 123.457 994.439 123.537C995.295 123.618 996.403 124.104 997.552 124.903C998.7 125.702 999.808 126.758 1000.66 127.869C1001.52 128.981 1002.07 130.07 1002.2 130.929C1002.28 131.458 1002.2 131.882 1001.96 132.167ZM994.92 125.588C994.717 125.832 994.705 126.245 994.888 126.763C995.07 127.281 995.436 127.876 995.931 128.459C996.426 129.042 997.022 129.58 997.63 129.993C998.239 130.406 998.825 130.671 999.301 130.747C999.778 130.824 1000.12 130.709 1000.27 130.418C1000.42 130.128 1000.38 129.679 1000.15 129.138C999.917 128.598 999.508 127.996 998.984 127.423C998.461 126.85 997.85 126.337 997.246 125.962C996.724 125.639 996.23 125.433 995.819 125.367C995.408 125.301 995.096 125.377 994.92 125.588Z" fill="#E6E6E6"/>
<path d="M1017.4 189.965C1016.4 188.888 1015.65 187.746 1015.29 186.758C1014.92 185.771 1014.97 185.006 1015.42 184.609C1015.87 184.213 1016.7 184.213 1017.74 184.61C1018.78 185.007 1019.96 185.772 1021.06 186.76C1022.16 187.748 1023.1 188.89 1023.7 189.967C1024.3 191.045 1024.52 191.982 1024.32 192.601C1024.11 193.22 1023.5 193.478 1022.59 193.324C1021.69 193.17 1020.55 192.616 1019.41 191.768C1018.7 191.246 1018.02 190.629 1017.4 189.965ZM1021.11 188.177C1020.58 187.606 1019.97 187.098 1019.37 186.729C1018.76 186.36 1018.2 186.151 1017.77 186.133C1017.33 186.115 1017.04 186.289 1016.95 186.629C1016.86 186.969 1016.96 187.457 1017.25 188.018C1017.54 188.579 1017.99 189.184 1018.54 189.74C1019.09 190.296 1019.71 190.774 1020.31 191.102C1020.9 191.429 1021.44 191.588 1021.84 191.555C1022.23 191.522 1022.47 191.298 1022.51 190.917C1022.55 190.588 1022.43 190.157 1022.19 189.672C1021.94 189.188 1021.57 188.67 1021.11 188.177Z" fill="#E6E6E6"/>
</svg>
