<svg width="890" height="890" viewBox="0 0 890 890" fill="none" xmlns="http://www.w3.org/2000/svg">
<path d="M615.165 652.882H726.648C729.458 652.882 731.745 650.54 731.745 647.662C731.745 644.783 729.458 642.442 726.648 642.442H615.165C612.354 642.442 610.068 644.783 610.068 647.662C610.068 650.54 612.354 652.882 615.165 652.882Z" fill="#021E25"/>
<path d="M814.269 680.827C814.269 681.764 813.533 682.517 812.618 682.517H529.197C528.281 682.517 527.546 681.764 527.546 680.827C527.546 679.889 528.281 679.136 529.197 679.136H812.618C813.533 679.136 814.269 679.889 814.269 680.827Z" fill="#7D9296"/>
<path d="M216.295 340.153C166.492 340.153 126.118 298.805 126.118 247.799C126.118 196.793 166.492 155.444 216.295 155.444C266.099 155.444 306.473 196.793 306.473 247.799C306.473 298.805 266.099 340.153 216.295 340.153Z" fill="#021E25"/>
<path d="M890 797.528C890 798.466 889.265 799.219 888.349 799.219H163.752C162.837 799.219 162.101 798.466 162.101 797.528C162.101 796.59 162.837 795.837 163.752 795.837H888.349C889.265 795.837 890 796.59 890 797.528Z" fill="#7D9296"/>
<path d="M879.519 683.346L881.837 680.745L655.611 469.33L574.106 506.75L486.093 352.171L413.781 316.475L346.783 430.834C310.611 334.929 219.897 234.591 111.197 132.791L108.523 135.008C210.473 234.97 297.7 335.386 347.203 436.965L409.174 330.875C412.101 325.863 418.254 323.927 423.424 326.391C462.95 345.227 495.919 375.972 517.923 414.516L573.055 511.091L585.64 505.314C627.729 485.991 677.002 494.089 711.074 525.93L879.519 683.346Z" fill="#E9F4EE"/>
<path d="M106.097 152.038L109.531 152.283L115.074 139.982L127.482 137.4L127.964 133.909L107.51 130.932L106.097 152.038Z" fill="#021E25"/>
<path d="M458.974 227.306L446.813 179.428L399.439 177.094L385.265 243.092L458.974 227.306Z" fill="#9D5E5E"/>
<path d="M427.801 206.221C396.221 206.221 370.62 180.002 370.62 147.66C370.62 115.317 396.221 89.0981 427.801 89.0981C459.382 89.0981 484.982 115.317 484.982 147.66C484.982 180.002 459.382 206.221 427.801 206.221Z" fill="#9D5E5E"/>
<path d="M396.251 160.055C396.251 160.055 417.974 115.977 443.425 118.522C468.876 121.067 482.284 124.162 482.284 124.162C482.284 124.162 489.839 89.8319 454.27 76.627C454.27 76.627 499.495 30.97 445.651 8.57323C391.807 -13.8236 361.677 14.7407 361.677 14.7407C361.677 14.7407 321.821 55.4895 372.018 85.9455C372.018 85.9455 334.745 137.293 379.873 179.615C379.873 179.615 369.78 145.367 380.312 151.683C390.843 157.999 396.251 160.055 396.251 160.055Z" fill="#15141C"/>
<path d="M490.89 469.461L498.496 476.927L553.445 597.591L559.46 797.179H467.138L423.831 698.341L394.651 796.225H311.641L292.398 618.536L344.126 492.869L490.89 469.461Z" fill="#043A43"/>
<path d="M395.253 222.44H456.909L523.973 259.401L508.334 330.858C508.334 330.858 511.943 373.979 503.522 406.012C495.101 438.044 498.71 479.933 498.71 479.933L344.127 492.869L339.315 347.491L341.721 250.161L395.253 222.44Z" fill="#021E25"/>
<path d="M513.747 260.017C513.747 260.017 551.039 261.249 557.054 285.889C563.069 310.53 567.881 437.428 567.881 437.428C567.881 437.428 564.272 512.727 523.972 476.925C483.672 441.124 487.281 332.706 487.281 332.706L513.747 260.017Z" fill="#043A43"/>
<path d="M152.033 888.579H371.8C379.243 888.579 385.299 882.379 385.299 874.755V642.082C385.299 634.459 379.243 628.258 371.8 628.258H152.033C144.589 628.258 138.534 634.459 138.534 642.082V874.755C138.534 882.379 144.589 888.579 152.033 888.579Z" fill="white"/>
<path d="M152.034 890H371.802C380.01 890 386.688 883.162 386.688 874.755V642.082C386.688 633.676 380.01 626.837 371.802 626.837H152.034C143.826 626.837 137.148 633.676 137.148 642.082V874.755C137.148 883.162 143.826 890 152.034 890ZM371.802 629.679C378.48 629.679 383.913 635.243 383.913 642.082V874.755C383.913 881.595 378.48 887.159 371.802 887.159H152.034C145.356 887.159 139.923 881.595 139.923 874.755V642.082C139.923 635.243 145.356 629.679 152.034 629.679H371.802Z" fill="#3F3D56"/>
<path d="M253.245 827.454H271.358C273.563 827.454 275.357 826.036 275.357 824.293V744.425C275.357 742.682 273.563 741.264 271.358 741.264H253.245C251.039 741.264 249.245 742.682 249.245 744.425V824.293C249.245 826.036 251.039 827.454 253.245 827.454Z" fill="#021E25"/>
<path d="M313.129 780.387C314.911 780.387 316.36 781.533 316.36 782.941V824.202C316.36 825.611 314.911 826.757 313.129 826.757H295.016C293.234 826.757 291.784 825.611 291.784 824.202V782.941C291.784 781.533 293.234 780.387 295.016 780.387H313.129Z" fill="#021E25"/>
<path d="M211.474 827.454H229.588C231.793 827.454 233.587 826.035 233.587 824.292V693.404C233.587 691.66 231.793 690.242 229.588 690.242H211.474C209.269 690.242 207.475 691.66 207.475 693.404V824.292C207.475 826.035 209.269 827.454 211.474 827.454Z" fill="#021E25"/>
<path d="M601.258 253.722H621.949C624.468 253.722 626.518 252.101 626.518 250.11V158.879C626.518 156.887 624.468 155.267 621.949 155.267H601.258C598.739 155.267 596.69 156.887 596.69 158.879V250.11C596.69 252.101 598.739 253.722 601.258 253.722Z" fill="#021E25"/>
<path d="M669.664 199.958C671.699 199.958 673.355 201.267 673.355 202.876V250.008C673.355 251.617 671.699 252.926 669.664 252.926H648.974C646.938 252.926 645.282 251.617 645.282 250.008V202.876C645.282 201.267 646.938 199.958 648.974 199.958H669.664Z" fill="#021E25"/>
<path d="M553.545 253.721H574.235C576.754 253.721 578.804 252.101 578.804 250.11V100.598C578.804 98.6063 576.754 96.9863 574.235 96.9863H553.545C551.025 96.9863 548.976 98.6063 548.976 100.598V250.11C548.976 252.101 551.025 253.721 553.545 253.721Z" fill="#021E25"/>
<path d="M295.61 662.111C284.893 661.06 277.513 646.229 279.126 628.977C279.677 622.077 281.835 615.412 285.417 609.54L287.483 590.015L287.166 589.918L281.974 497.339C280.767 475.813 289.087 454.662 305.117 440.684C314.653 432.369 324.825 428.159 331.367 438.665C342.221 456.098 328.162 527.96 318.929 568.816L315.349 612.475C317.781 618.937 318.666 625.903 317.929 632.787C316.32 650.033 306.326 663.162 295.61 662.111Z" fill="#9D5E5E"/>
<path d="M354.953 252.625C354.953 252.625 323.676 240.304 309.24 277.265C294.804 314.226 279.165 496.565 279.165 496.565L352.547 483.013L354.953 252.625Z" fill="#043A43"/>
<path d="M784.434 234.546H826.55C829.361 234.546 831.647 232.204 831.647 229.326C831.647 226.448 829.361 224.106 826.55 224.106H784.434C781.624 224.106 779.338 226.447 779.338 229.326C779.338 232.204 781.624 234.546 784.434 234.546Z" fill="#043A43"/>
<path d="M784.434 160.55H826.55C829.361 160.55 831.647 158.208 831.647 155.329C831.647 152.451 829.361 150.11 826.55 150.11H784.434C781.624 150.11 779.338 152.451 779.338 155.329C779.338 158.208 781.624 160.55 784.434 160.55Z" fill="#043A43"/>
<path d="M784.434 107.188H826.55C829.361 107.188 831.647 104.846 831.647 101.968C831.647 99.0891 829.361 96.748 826.55 96.748H784.434C781.624 96.748 779.338 99.0891 779.338 101.968C779.338 104.846 781.624 107.188 784.434 107.188Z" fill="#043A43"/>
<path d="M833.337 253.98C833.337 254.918 832.602 255.671 831.686 255.671H548.265C547.349 255.671 546.614 254.918 546.614 253.98C546.614 253.042 547.349 252.289 548.265 252.289H831.686C832.602 252.289 833.337 253.042 833.337 253.98Z" fill="#3F3D56"/>
<path d="M286.723 691.597C286.723 692.535 285.987 693.288 285.072 693.288H1.65077C0.735161 693.288 -0.000177016 692.535 -0.000177016 691.597C-0.000177016 690.659 0.735161 689.906 1.65077 689.906H285.072C285.987 689.906 286.723 690.659 286.723 691.597Z" fill="#7D9296"/>
<path d="M369.964 829.418C369.964 830.356 369.229 831.109 368.313 831.109H84.892C83.9764 831.109 83.241 830.356 83.241 829.418C83.241 828.481 83.9764 827.728 84.892 827.728H368.313C369.229 827.728 369.964 828.481 369.964 829.418Z" fill="#7D9296"/>
<path d="M560.551 245.432C571.267 246.483 578.647 261.314 577.035 278.566C576.483 285.467 574.326 292.131 570.743 298.003L568.678 317.528L568.994 317.625L574.186 410.204C575.393 431.73 567.073 452.882 551.043 466.86C541.507 475.175 531.335 479.385 524.793 468.879C513.939 451.446 527.999 379.584 537.231 338.728L540.811 295.069C538.379 288.606 537.495 281.641 538.231 274.756C539.841 257.51 549.834 244.381 560.551 245.432Z" fill="#9D5E5E"/>
</svg>
