<svg width="998" height="785" viewBox="0 0 998 785" fill="none" xmlns="http://www.w3.org/2000/svg">
<path d="M438.147 141.473C419.84 141.473 405 125.025 405 104.736C405 84.4475 419.84 68 438.147 68C456.453 68 471.294 84.4475 471.294 104.736C471.294 125.025 456.453 141.473 438.147 141.473Z" fill="#D9C514"/>
<path d="M225.27 75.7614C226.377 74.9671 227.496 74.2138 228.602 73.4469C260.58 51.4194 294.855 33.5244 330.72 20.1318L339.036 143.689H391.754V2.09535C395.073 1.35581 398.417 0.657365 401.761 0V143.689H464.411C498.9 143.689 531.976 128.933 556.364 102.667C580.751 76.4003 594.452 40.7755 594.452 3.62936C597.809 4.40999 601.14 5.24526 604.471 6.13545V143.689H655.499L663.42 25.8701C700.277 41.094 735.266 61.1141 767.611 85.4849C768.171 85.8958 768.73 86.3203 769.277 86.7312C772.087 88.8539 774.859 91.0178 777.618 93.209V564.581H627.232L629.89 524.934L644.513 307.25H350.035L364.658 524.934L367.315 564.581H218.595V80.5273C220.807 78.9113 223.033 77.3227 225.27 75.7614ZM604.471 271.3H646.928L654.774 154.481H604.471V271.3ZM401.761 271.3H473.07V268.986C473.07 267.873 473.273 266.771 473.669 265.744C474.065 264.716 474.645 263.782 475.376 262.996C476.107 262.21 476.975 261.587 477.929 261.162C478.884 260.738 479.908 260.52 480.941 260.522H511.941C512.973 260.522 513.995 260.74 514.949 261.166C515.902 261.591 516.769 262.214 517.498 263C518.228 263.786 518.807 264.719 519.202 265.746C519.596 266.773 519.799 267.874 519.799 268.986V271.3H594.452V154.481H401.761V271.3ZM391.754 271.3V154.481H339.761L347.606 271.3H391.754Z" fill="#021E25"/>
<path d="M998 595.518C986.981 609.473 975.063 622.587 962.333 634.765L35.6673 636.121C22.937 623.943 11.0188 610.828 -3.8649e-05 596.873L998 595.518Z" fill="#3F3D56"/>
<path d="M369.1 467.695V584.121C369.099 585.604 368.546 587.027 367.564 588.076C366.582 589.125 365.25 589.715 363.861 589.716H202.331C200.942 589.715 199.61 589.125 198.628 588.076C197.646 587.027 197.094 585.604 197.092 584.121V467.695C197.096 466.213 197.649 464.792 198.631 463.744C199.613 462.697 200.943 462.107 202.331 462.105H363.861C365.249 462.107 366.579 462.697 367.561 463.744C368.543 464.792 369.096 466.213 369.1 467.695Z" fill="#3F3D56"/>
<path d="M367.307 470.911V584.783C367.305 585.578 367.009 586.34 366.483 586.902C365.957 587.464 365.244 587.781 364.5 587.782H205.273C204.529 587.781 203.816 587.464 203.29 586.902C202.764 586.34 202.468 585.578 202.466 584.783V470.911C202.466 470.115 202.762 469.351 203.288 468.788C203.814 468.224 204.528 467.907 205.273 467.905H364.5C365.245 467.907 365.959 468.224 366.485 468.788C367.011 469.351 367.307 470.115 367.307 470.911Z" fill="#71C9CE"/>
<path d="M373.753 609.669C373.455 610.082 373.075 610.415 372.643 610.643C372.211 610.871 371.738 610.988 371.259 610.985H196.717C196.24 610.985 195.769 610.867 195.338 610.64C194.907 610.413 194.528 610.083 194.227 609.675C193.926 609.266 193.712 608.788 193.6 608.277C193.488 607.765 193.48 607.232 193.578 606.717L196.287 592.527C196.4 591.948 196.642 591.409 196.991 590.96C197.34 590.511 197.786 590.165 198.287 589.954C198.65 589.797 199.037 589.716 199.427 589.717H368.56C368.95 589.716 369.337 589.797 369.7 589.954C370.202 590.165 370.647 590.511 370.997 590.96C371.346 591.409 371.588 591.948 371.7 592.527L374.409 606.717C374.506 607.232 374.497 607.764 374.383 608.275C374.27 608.786 374.055 609.262 373.753 609.669Z" fill="#2F2E41"/>
<path d="M207.217 595.518H203.095C202.749 595.518 202.469 595.349 202.469 595.142V593.96C202.469 593.752 202.749 593.584 203.095 593.584H207.217C207.563 593.584 207.844 593.752 207.844 593.96V595.142C207.844 595.349 207.563 595.518 207.217 595.518Z" fill="#3F3D56"/>
<path d="M217.965 595.518H213.842C213.496 595.518 213.216 595.349 213.216 595.142V593.96C213.216 593.752 213.496 593.584 213.842 593.584H217.965C218.311 593.584 218.591 593.752 218.591 593.96V595.142C218.591 595.349 218.311 595.518 217.965 595.518Z" fill="#3F3D56"/>
<path d="M228.717 595.518H224.595C224.249 595.518 223.969 595.349 223.969 595.142V593.96C223.969 593.752 224.249 593.584 224.595 593.584H228.717C229.063 593.584 229.344 593.752 229.344 593.96V595.142C229.344 595.349 229.063 595.518 228.717 595.518Z" fill="#3F3D56"/>
<path d="M239.468 595.518H235.345C234.999 595.518 234.719 595.349 234.719 595.142V593.96C234.719 593.752 234.999 593.584 235.345 593.584H239.468C239.814 593.584 240.094 593.752 240.094 593.96V595.142C240.094 595.349 239.814 595.518 239.468 595.518Z" fill="#3F3D56"/>
<path d="M250.215 595.518H246.093C245.747 595.518 245.467 595.349 245.467 595.142V593.96C245.467 593.752 245.747 593.584 246.093 593.584H250.215C250.561 593.584 250.842 593.752 250.842 593.96V595.142C250.842 595.349 250.561 595.518 250.215 595.518Z" fill="#3F3D56"/>
<path d="M260.968 595.518H256.846C256.5 595.518 256.22 595.349 256.22 595.142V593.96C256.22 593.752 256.5 593.584 256.846 593.584H260.968C261.314 593.584 261.595 593.752 261.595 593.96V595.142C261.595 595.349 261.314 595.518 260.968 595.518Z" fill="#3F3D56"/>
<path d="M269.926 595.518H265.804C265.458 595.518 265.178 595.349 265.178 595.142V593.96C265.178 593.752 265.458 593.584 265.804 593.584H269.926C270.272 593.584 270.553 593.752 270.553 593.96V595.142C270.553 595.349 270.272 595.518 269.926 595.518Z" fill="#3F3D56"/>
<path d="M280.676 595.518H276.553C276.207 595.518 275.927 595.349 275.927 595.142V593.96C275.927 593.752 276.207 593.584 276.553 593.584H280.676C281.022 593.584 281.302 593.752 281.302 593.96V595.142C281.302 595.349 281.022 595.518 280.676 595.518Z" fill="#3F3D56"/>
<path d="M291.428 595.518H287.306C286.96 595.518 286.68 595.349 286.68 595.142V593.96C286.68 593.752 286.96 593.584 287.306 593.584H291.428C291.774 593.584 292.055 593.752 292.055 593.96V595.142C292.055 595.349 291.774 595.518 291.428 595.518Z" fill="#3F3D56"/>
<path d="M302.178 595.518H298.056C297.71 595.518 297.43 595.349 297.43 595.142V593.96C297.43 593.752 297.71 593.584 298.056 593.584H302.178C302.524 593.584 302.805 593.752 302.805 593.96V595.142C302.805 595.349 302.524 595.518 302.178 595.518Z" fill="#3F3D56"/>
<path d="M312.928 595.518H308.806C308.46 595.518 308.18 595.349 308.18 595.142V593.96C308.18 593.752 308.46 593.584 308.806 593.584H312.928C313.274 593.584 313.555 593.752 313.555 593.96V595.142C313.555 595.349 313.274 595.518 312.928 595.518Z" fill="#3F3D56"/>
<path d="M323.679 595.518H319.557C319.211 595.518 318.931 595.349 318.931 595.142V593.96C318.931 593.752 319.211 593.584 319.557 593.584H323.679C324.025 593.584 324.306 593.752 324.306 593.96V595.142C324.306 595.349 324.025 595.518 323.679 595.518Z" fill="#3F3D56"/>
<path d="M334.428 595.518H330.306C329.96 595.518 329.68 595.349 329.68 595.142V593.96C329.68 593.752 329.96 593.584 330.306 593.584H334.428C334.774 593.584 335.055 593.752 335.055 593.96V595.142C335.055 595.349 334.774 595.518 334.428 595.518Z" fill="#3F3D56"/>
<path d="M345.179 595.518H341.057C340.711 595.518 340.431 595.349 340.431 595.142V593.96C340.431 593.752 340.711 593.584 341.057 593.584H345.179C345.525 593.584 345.806 593.752 345.806 593.96V595.142C345.806 595.349 345.525 595.518 345.179 595.518Z" fill="#3F3D56"/>
<path d="M355.93 595.518H351.808C351.462 595.518 351.182 595.349 351.182 595.142V593.96C351.182 593.752 351.462 593.584 351.808 593.584H355.93C356.276 593.584 356.557 593.752 356.557 593.96V595.142C356.557 595.349 356.276 595.518 355.93 595.518Z" fill="#3F3D56"/>
<path d="M366.68 595.518H362.558C362.212 595.518 361.932 595.349 361.932 595.142V593.96C361.932 593.752 362.212 593.584 362.558 593.584H366.68C367.026 593.584 367.307 593.752 367.307 593.96V595.142C367.307 595.349 367.026 595.518 366.68 595.518Z" fill="#3F3D56"/>
<path d="M207.217 601.316H203.095C202.749 601.316 202.469 600.98 202.469 600.565V598.201C202.469 597.786 202.749 597.449 203.095 597.449H207.217C207.563 597.449 207.844 597.786 207.844 598.201V600.565C207.844 600.98 207.563 601.316 207.217 601.316Z" fill="#3F3D56"/>
<path d="M217.965 601.316H213.842C213.496 601.316 213.216 600.98 213.216 600.565V598.201C213.216 597.786 213.496 597.449 213.842 597.449H217.965C218.311 597.449 218.591 597.786 218.591 598.201V600.565C218.591 600.98 218.311 601.316 217.965 601.316Z" fill="#3F3D56"/>
<path d="M228.717 601.316H224.595C224.249 601.316 223.969 600.98 223.969 600.565V598.201C223.969 597.786 224.249 597.449 224.595 597.449H228.717C229.063 597.449 229.344 597.786 229.344 598.201V600.565C229.344 600.98 229.063 601.316 228.717 601.316Z" fill="#3F3D56"/>
<path d="M239.468 601.316H235.345C234.999 601.316 234.719 600.98 234.719 600.565V598.201C234.719 597.786 234.999 597.449 235.345 597.449H239.468C239.814 597.449 240.094 597.786 240.094 598.201V600.565C240.094 600.98 239.814 601.316 239.468 601.316Z" fill="#3F3D56"/>
<path d="M250.215 601.316H246.093C245.747 601.316 245.467 600.98 245.467 600.565V598.201C245.467 597.786 245.747 597.449 246.093 597.449H250.215C250.561 597.449 250.842 597.786 250.842 598.201V600.565C250.842 600.98 250.561 601.316 250.215 601.316Z" fill="#3F3D56"/>
<path d="M259.386 601.316H256.637C256.407 601.316 256.22 600.98 256.22 600.565V598.201C256.22 597.786 256.407 597.449 256.637 597.449H259.386C259.616 597.449 259.803 597.786 259.803 598.201V600.565C259.803 600.98 259.616 601.316 259.386 601.316Z" fill="#3F3D56"/>
<path d="M269.926 601.316H265.804C265.458 601.316 265.178 600.98 265.178 600.565V598.201C265.178 597.786 265.458 597.449 265.804 597.449H269.926C270.272 597.449 270.553 597.786 270.553 598.201V600.565C270.553 600.98 270.272 601.316 269.926 601.316Z" fill="#3F3D56"/>
<path d="M280.676 601.316H276.553C276.207 601.316 275.927 600.98 275.927 600.565V598.201C275.927 597.786 276.207 597.449 276.553 597.449H280.676C281.022 597.449 281.302 597.786 281.302 598.201V600.565C281.302 600.98 281.022 601.316 280.676 601.316Z" fill="#3F3D56"/>
<path d="M291.428 601.316H287.306C286.96 601.316 286.68 600.98 286.68 600.565V598.201C286.68 597.786 286.96 597.449 287.306 597.449H291.428C291.774 597.449 292.055 597.786 292.055 598.201V600.565C292.055 600.98 291.774 601.316 291.428 601.316Z" fill="#3F3D56"/>
<path d="M302.178 601.316H298.056C297.71 601.316 297.43 600.98 297.43 600.565V598.201C297.43 597.786 297.71 597.449 298.056 597.449H302.178C302.524 597.449 302.805 597.786 302.805 598.201V600.565C302.805 600.98 302.524 601.316 302.178 601.316Z" fill="#3F3D56"/>
<path d="M312.928 601.316H308.806C308.46 601.316 308.18 600.98 308.18 600.565V598.201C308.18 597.786 308.46 597.449 308.806 597.449H312.928C313.274 597.449 313.555 597.786 313.555 598.201V600.565C313.555 600.98 313.274 601.316 312.928 601.316Z" fill="#3F3D56"/>
<path d="M323.679 601.316H319.557C319.211 601.316 318.931 600.98 318.931 600.565V598.201C318.931 597.786 319.211 597.449 319.557 597.449H323.679C324.025 597.449 324.306 597.786 324.306 598.201V600.565C324.306 600.98 324.025 601.316 323.679 601.316Z" fill="#3F3D56"/>
<path d="M334.428 601.316H330.306C329.96 601.316 329.68 600.98 329.68 600.565V598.201C329.68 597.786 329.96 597.449 330.306 597.449H334.428C334.774 597.449 335.055 597.786 335.055 598.201V600.565C335.055 600.98 334.774 601.316 334.428 601.316Z" fill="#3F3D56"/>
<path d="M345.179 601.316H341.057C340.711 601.316 340.431 600.98 340.431 600.565V598.201C340.431 597.786 340.711 597.449 341.057 597.449H345.179C345.525 597.449 345.806 597.786 345.806 598.201V600.565C345.806 600.98 345.525 601.316 345.179 601.316Z" fill="#3F3D56"/>
<path d="M355.93 601.316H351.808C351.462 601.316 351.182 600.98 351.182 600.565V598.201C351.182 597.786 351.462 597.449 351.808 597.449H355.93C356.276 597.449 356.557 597.786 356.557 598.201V600.565C356.557 600.98 356.276 601.316 355.93 601.316Z" fill="#3F3D56"/>
<path d="M366.68 601.316H362.558C362.212 601.316 361.932 600.98 361.932 600.565V598.201C361.932 597.786 362.212 597.449 362.558 597.449H366.68C367.026 597.449 367.307 597.786 367.307 598.201V600.565C367.307 600.98 367.026 601.316 366.68 601.316Z" fill="#3F3D56"/>
<path d="M293.272 609.052H255.002C254.685 609.052 254.428 608.715 254.428 608.301V605.936C254.428 605.521 254.685 605.185 255.002 605.185H293.272C293.589 605.185 293.846 605.521 293.846 605.936V608.301C293.846 608.715 293.589 609.052 293.272 609.052Z" fill="#3F3D56"/>
<path d="M339.192 493.042H343.462C344.757 493.042 345.807 493.908 345.807 494.976C345.807 496.043 344.757 496.909 343.462 496.909H339.192C337.897 496.909 336.848 496.043 336.848 494.976C336.848 493.908 337.897 493.042 339.192 493.042Z" fill="white"/>
<path d="M296.188 493.042H300.459C301.753 493.042 302.803 493.908 302.803 494.976C302.803 496.043 301.753 496.909 300.459 496.909H296.188C294.894 496.909 293.844 496.043 293.844 494.976C293.844 493.908 294.894 493.042 296.188 493.042Z" fill="white"/>
<path d="M285.44 493.042H289.71C291.005 493.042 292.055 493.908 292.055 494.976C292.055 496.043 291.005 496.909 289.71 496.909H285.44C284.146 496.909 283.096 496.043 283.096 494.976C283.096 493.908 284.146 493.042 285.44 493.042Z" fill="white"/>
<path d="M309.928 493.042H329.723C330.689 493.042 331.472 493.908 331.472 494.975C331.472 496.043 330.689 496.909 329.723 496.909H309.928C308.962 496.909 308.179 496.043 308.179 494.975C308.179 493.908 308.962 493.042 309.928 493.042Z" fill="white"/>
<path d="M252.86 493.042H275.701C276.815 493.042 277.719 493.908 277.719 494.975C277.719 496.043 276.815 496.909 275.701 496.909H252.86C251.746 496.909 250.843 496.043 250.843 494.975C250.843 493.908 251.746 493.042 252.86 493.042Z" fill="white"/>
<path d="M327.503 502.709H330.065C330.842 502.709 331.472 503.142 331.472 503.676C331.472 504.21 330.842 504.642 330.065 504.642H327.503C326.726 504.642 326.096 504.21 326.096 503.676C326.096 503.142 326.726 502.709 327.503 502.709Z" fill="white"/>
<path d="M285.44 502.709H289.71C291.005 502.709 292.055 503.142 292.055 503.676C292.055 504.21 291.005 504.642 289.71 504.642H285.44C284.146 504.642 283.096 504.21 283.096 503.676C283.096 503.142 284.146 502.709 285.44 502.709Z" fill="white"/>
<path d="M274.69 502.709H278.961C280.255 502.709 281.305 503.142 281.305 503.676C281.305 504.21 280.255 504.642 278.961 504.642H274.69C273.396 504.642 272.346 504.21 272.346 503.676C272.346 503.142 273.396 502.709 274.69 502.709Z" fill="white"/>
<path d="M299.179 502.709H318.974C319.94 502.709 320.723 503.142 320.723 503.676C320.723 504.21 319.94 504.642 318.974 504.642H299.179C298.213 504.642 297.43 504.21 297.43 503.676C297.43 503.142 298.213 502.709 299.179 502.709Z" fill="white"/>
<path d="M242.11 502.709H264.951C266.065 502.709 266.969 503.142 266.969 503.676C266.969 504.21 266.065 504.642 264.951 504.642H242.11C240.996 504.642 240.093 504.21 240.093 503.676C240.093 503.142 240.996 502.709 242.11 502.709Z" fill="white"/>
<path d="M316.754 512.377H319.316C320.093 512.377 320.723 512.81 320.723 513.344C320.723 513.878 320.093 514.31 319.316 514.31H316.754C315.977 514.31 315.347 513.878 315.347 513.344C315.347 512.81 315.977 512.377 316.754 512.377Z" fill="white"/>
<path d="M274.69 512.377H278.961C280.255 512.377 281.305 512.81 281.305 513.344C281.305 513.878 280.255 514.31 278.961 514.31H274.69C273.396 514.31 272.346 513.878 272.346 513.344C272.346 512.81 273.396 512.377 274.69 512.377Z" fill="white"/>
<path d="M263.938 512.377H268.208C269.503 512.377 270.553 512.81 270.553 513.344C270.553 513.878 269.503 514.31 268.208 514.31H263.938C262.644 514.31 261.594 513.878 261.594 513.344C261.594 512.81 262.644 512.377 263.938 512.377Z" fill="white"/>
<path d="M285.113 510.442H307.954C309.068 510.442 309.972 511.308 309.972 512.376C309.972 513.444 309.068 514.309 307.954 514.309H285.113C283.999 514.309 283.096 513.444 283.096 512.376C283.096 511.308 283.999 510.442 285.113 510.442Z" fill="white"/>
<path d="M231.361 510.442H254.202C255.316 510.442 256.22 511.308 256.22 512.376C256.22 513.444 255.316 514.309 254.202 514.309H231.361C230.247 514.309 229.344 513.444 229.344 512.376C229.344 511.308 230.247 510.442 231.361 510.442Z" fill="white"/>
<path d="M304.68 520.11H308.096C309.132 520.11 309.972 521.409 309.972 523.011C309.972 524.612 309.132 525.911 308.096 525.911H304.68C303.644 525.911 302.805 524.612 302.805 523.011C302.805 521.409 303.644 520.11 304.68 520.11Z" fill="white"/>
<path d="M263.938 520.11H268.208C269.503 520.11 270.553 521.409 270.553 523.011C270.553 524.612 269.503 525.911 268.208 525.911H263.938C262.644 525.911 261.594 524.612 261.594 523.011C261.594 521.409 262.644 520.11 263.938 520.11Z" fill="white"/>
<path d="M253.188 520.11H257.459C258.753 520.11 259.803 521.409 259.803 523.011C259.803 524.612 258.753 525.911 257.459 525.911H253.188C251.894 525.911 250.844 524.612 250.844 523.011C250.844 521.409 251.894 520.11 253.188 520.11Z" fill="white"/>
<path d="M274.362 520.11H297.203C298.318 520.11 299.221 521.409 299.221 523.011C299.221 524.612 298.318 525.911 297.203 525.911H274.362C273.248 525.911 272.345 524.612 272.345 523.011C272.345 521.409 273.248 520.11 274.362 520.11Z" fill="white"/>
<path d="M296.188 560.714H300.459C301.753 560.714 302.803 561.147 302.803 561.681C302.803 562.215 301.753 562.647 300.459 562.647H296.188C294.894 562.647 293.844 562.215 293.844 561.681C293.844 561.147 294.894 560.714 296.188 560.714Z" fill="white"/>
<path d="M285.44 560.714H289.71C291.005 560.714 292.055 561.147 292.055 561.681C292.055 562.215 291.005 562.647 289.71 562.647H285.44C284.146 562.647 283.096 562.215 283.096 561.681C283.096 561.147 284.146 560.714 285.44 560.714Z" fill="white"/>
<path d="M252.86 560.714H275.701C276.815 560.714 277.719 561.58 277.719 562.647C277.719 563.715 276.815 564.581 275.701 564.581H252.86C251.746 564.581 250.843 563.715 250.843 562.647C250.843 561.58 251.746 560.714 252.86 560.714Z" fill="white"/>
<path d="M339.192 560.714H343.462C344.757 560.714 345.807 561.147 345.807 561.681C345.807 562.215 344.757 562.647 343.462 562.647H339.192C337.897 562.647 336.848 562.215 336.848 561.681C336.848 561.147 337.897 560.714 339.192 560.714Z" fill="white"/>
<path d="M309.928 560.714H329.723C330.689 560.714 331.472 561.58 331.472 562.647C331.472 563.715 330.689 564.581 329.723 564.581H309.928C308.962 564.581 308.179 563.715 308.179 562.647C308.179 561.58 308.962 560.714 309.928 560.714Z" fill="white"/>
<path d="M327.503 551.047H330.065C330.842 551.047 331.472 551.913 331.472 552.98C331.472 554.048 330.842 554.914 330.065 554.914H327.503C326.726 554.914 326.096 554.048 326.096 552.98C326.096 551.913 326.726 551.047 327.503 551.047Z" fill="white"/>
<path d="M285.44 551.047H289.71C291.005 551.047 292.055 551.913 292.055 552.98C292.055 554.048 291.005 554.914 289.71 554.914H285.44C284.146 554.914 283.096 554.048 283.096 552.98C283.096 551.913 284.146 551.047 285.44 551.047Z" fill="white"/>
<path d="M274.69 551.047H278.961C280.255 551.047 281.305 551.913 281.305 552.98C281.305 554.048 280.255 554.914 278.961 554.914H274.69C273.396 554.914 272.346 554.048 272.346 552.98C272.346 551.913 273.396 551.047 274.69 551.047Z" fill="white"/>
<path d="M299.179 551.047H318.974C319.94 551.047 320.723 551.913 320.723 552.98C320.723 554.048 319.94 554.914 318.974 554.914H299.179C298.213 554.914 297.43 554.048 297.43 552.98C297.43 551.913 298.213 551.047 299.179 551.047Z" fill="white"/>
<path d="M316.754 539.445H319.316C320.093 539.445 320.723 540.744 320.723 542.346C320.723 543.947 320.093 545.246 319.316 545.246H316.754C315.977 545.246 315.347 543.947 315.347 542.346C315.347 540.744 315.977 539.445 316.754 539.445Z" fill="white"/>
<path d="M274.69 539.445H278.961C280.255 539.445 281.305 540.744 281.305 542.346C281.305 543.947 280.255 545.246 278.961 545.246H274.69C273.396 545.246 272.346 543.947 272.346 542.346C272.346 540.744 273.396 539.445 274.69 539.445Z" fill="white"/>
<path d="M263.938 539.445H268.208C269.503 539.445 270.553 540.744 270.553 542.346C270.553 543.947 269.503 545.246 268.208 545.246H263.938C262.644 545.246 261.594 543.947 261.594 542.346C261.594 540.744 262.644 539.445 263.938 539.445Z" fill="white"/>
<path d="M285.113 539.445H307.954C309.068 539.445 309.972 540.744 309.972 542.346C309.972 543.947 309.068 545.246 307.954 545.246H285.113C283.999 545.246 283.096 543.947 283.096 542.346C283.096 540.744 283.999 539.445 285.113 539.445Z" fill="white"/>
<path d="M304.68 529.778H308.096C309.132 529.778 309.972 531.077 309.972 532.679C309.972 534.28 309.132 535.579 308.096 535.579H304.68C303.644 535.579 302.805 534.28 302.805 532.679C302.805 531.077 303.644 529.778 304.68 529.778Z" fill="white"/>
<path d="M263.938 529.778H268.208C269.503 529.778 270.553 531.077 270.553 532.679C270.553 534.28 269.503 535.579 268.208 535.579H263.938C262.644 535.579 261.594 534.28 261.594 532.679C261.594 531.077 262.644 529.778 263.938 529.778Z" fill="white"/>
<path d="M253.188 529.778H257.459C258.753 529.778 259.803 531.077 259.803 532.679C259.803 534.28 258.753 535.579 257.459 535.579H253.188C251.894 535.579 250.844 534.28 250.844 532.679C250.844 531.077 251.894 529.778 253.188 529.778Z" fill="white"/>
<path d="M274.362 529.778H297.203C298.318 529.778 299.221 531.077 299.221 532.679C299.221 534.28 298.318 535.579 297.203 535.579H274.362C273.248 535.579 272.345 534.28 272.345 532.679C272.345 531.077 273.248 529.778 274.362 529.778Z" fill="white"/>
<path d="M357.424 674.79L374.476 645.206L320.954 598.375L298.863 571.511C295.993 568.021 292.339 565.419 288.266 563.965C284.192 562.511 279.843 562.255 275.651 563.224C271.46 564.193 267.573 566.353 264.38 569.487C261.188 572.621 258.8 576.62 257.456 581.084C255.465 587.7 255.893 594.906 258.65 601.181C261.408 607.457 266.278 612.311 272.235 614.719L307.167 628.845L357.424 674.79Z" fill="#9D5E5E"/>
<path d="M756.114 464.842V603.251H662.944V464.842C662.942 463.846 663.247 462.876 663.815 462.075C664.382 461.273 665.181 460.682 666.095 460.388C666.526 460.24 666.977 460.167 667.43 460.172H751.615C752.205 460.171 752.789 460.291 753.335 460.525C753.881 460.759 754.376 461.103 754.794 461.536C755.212 461.97 755.544 462.485 755.77 463.052C755.997 463.619 756.114 464.227 756.114 464.842ZM719.754 512.399C719.729 509.671 718.671 507.063 716.808 505.142C714.946 503.221 712.43 502.144 709.808 502.144C707.186 502.144 704.67 503.221 702.807 505.142C700.945 507.063 699.886 509.671 699.862 512.399V528.459C699.875 531.195 700.929 533.814 702.793 535.744C704.657 537.674 707.179 538.757 709.808 538.757C712.437 538.757 714.959 537.674 716.823 535.744C718.687 533.814 719.74 531.195 719.754 528.459V512.399Z" fill="#2F2E41"/>
<path d="M756.114 597.45V613.614C756.112 614.452 755.85 615.254 755.384 615.848C754.918 616.441 754.287 616.778 753.627 616.785H665.431C664.77 616.781 664.138 616.445 663.671 615.851C663.205 615.257 662.944 614.453 662.944 613.614V597.45H756.114Z" fill="#3F3D56"/>
<path d="M897.662 252.033V507.817C897.66 511.076 896.457 514.202 894.319 516.506C892.181 518.811 889.281 520.107 886.257 520.11H534.593C531.569 520.107 528.67 518.811 526.531 516.506C524.393 514.202 523.191 511.076 523.188 507.817V252.033C523.195 248.776 524.4 245.655 526.537 243.353C528.675 241.052 531.572 239.757 534.593 239.753H886.257C889.278 239.757 892.175 241.052 894.313 243.353C896.451 245.655 897.655 248.776 897.662 252.033Z" fill="#3F3D56"/>
<path d="M890.495 254.128V505.749C890.492 507.506 889.849 509.19 888.705 510.432C887.561 511.674 886.011 512.373 884.393 512.376H538.248C536.631 512.373 535.081 511.674 533.937 510.432C532.793 509.19 532.15 507.506 532.147 505.749V254.128C532.147 252.37 532.789 250.683 533.933 249.438C535.077 248.193 536.629 247.491 538.248 247.487H884.393C886.013 247.491 887.565 248.193 888.709 249.438C889.852 250.683 890.495 252.37 890.495 254.128Z" fill="white"/>
<path d="M825.141 615.111C824.79 615.636 824.342 616.06 823.833 616.35C823.324 616.64 822.767 616.789 822.202 616.786H616.554C615.992 616.785 615.437 616.635 614.929 616.346C614.422 616.058 613.975 615.638 613.62 615.118C613.266 614.598 613.013 613.99 612.881 613.339C612.749 612.688 612.74 612.009 612.855 611.354L616.048 593.293C616.18 592.556 616.465 591.871 616.876 591.299C617.288 590.727 617.813 590.287 618.404 590.018C618.832 589.819 619.287 589.716 619.747 589.717H819.023C819.482 589.716 819.938 589.819 820.366 590.018C820.956 590.287 821.482 590.727 821.893 591.299C822.305 591.871 822.59 592.556 822.722 593.293L825.914 611.354C826.028 612.009 826.017 612.686 825.884 613.336C825.75 613.986 825.496 614.592 825.141 615.111Z" fill="#2F2E41"/>
<path d="M549.533 282.29H873.113C873.449 282.284 873.769 282.18 874.004 281.999C874.239 281.819 874.371 281.576 874.371 281.323C874.371 281.07 874.239 280.828 874.004 280.647C873.769 280.466 873.449 280.362 873.113 280.356H549.533C549.196 280.362 548.876 280.466 548.641 280.647C548.406 280.828 548.274 281.07 548.274 281.323C548.274 281.576 548.406 281.819 548.641 281.999C548.876 282.18 549.196 282.284 549.533 282.29Z" fill="#3F3D56"/>
<path d="M851.077 272.623C847.119 272.623 843.91 268.728 843.91 263.922C843.91 259.117 847.119 255.222 851.077 255.222C855.035 255.222 858.244 259.117 858.244 263.922C858.244 268.728 855.035 272.623 851.077 272.623Z" fill="#3F3D56"/>
<path d="M825.096 272.623C820.643 272.623 817.034 268.728 817.034 263.922C817.034 259.117 820.643 255.222 825.096 255.222C829.549 255.222 833.159 259.117 833.159 263.922C833.159 268.728 829.549 272.623 825.096 272.623Z" fill="#3F3D56"/>
<path d="M798.221 272.623C793.768 272.623 790.159 268.728 790.159 263.922C790.159 259.117 793.768 255.222 798.221 255.222C802.674 255.222 806.284 259.117 806.284 263.922C806.284 268.728 802.674 272.623 798.221 272.623Z" fill="#3F3D56"/>
<path d="M565.796 257.155H584.516C584.886 257.161 585.238 257.266 585.497 257.446C585.756 257.627 585.9 257.869 585.9 258.122C585.9 258.375 585.756 258.617 585.497 258.798C585.238 258.978 584.886 259.083 584.516 259.089H565.796C565.424 259.085 565.069 258.982 564.807 258.801C564.546 258.62 564.399 258.376 564.399 258.122C564.399 257.868 564.546 257.624 564.807 257.443C565.069 257.262 565.424 257.159 565.796 257.155Z" fill="#3F3D56"/>
<path d="M565.799 262.955H584.515C584.885 262.961 585.237 263.065 585.496 263.246C585.755 263.426 585.9 263.669 585.9 263.922C585.9 264.175 585.755 264.417 585.496 264.598C585.237 264.779 584.885 264.883 584.515 264.889H565.799C565.426 264.886 565.07 264.782 564.808 264.601C564.546 264.42 564.399 264.176 564.399 263.922C564.399 263.667 564.546 263.423 564.808 263.242C565.07 263.061 565.426 262.958 565.799 262.955Z" fill="#3F3D56"/>
<path d="M565.796 270.689H584.516C584.886 270.695 585.238 270.8 585.497 270.98C585.756 271.161 585.9 271.404 585.9 271.656C585.9 271.909 585.756 272.151 585.497 272.332C585.238 272.513 584.886 272.617 584.516 272.623H565.796C565.424 272.619 565.069 272.516 564.807 272.335C564.546 272.154 564.399 271.91 564.399 271.656C564.399 271.402 564.546 271.158 564.807 270.977C565.069 270.796 565.424 270.693 565.796 270.689Z" fill="#3F3D56"/>
<path d="M117.805 605.001C117.245 606.773 116.183 608.306 114.772 609.381C113.361 610.456 111.673 611.017 109.95 610.983L76.2953 610.042C74.56 610.005 72.8821 609.358 71.5126 608.199C70.1431 607.04 69.1554 605.43 68.6973 603.61L63.9349 548.243C62.2452 549.075 60.4057 549.486 58.551 549.445C56.9398 549.401 55.3522 549.013 53.8791 548.302C52.4059 547.591 51.076 546.571 49.9653 545.301C48.8545 544.032 47.9848 542.536 47.4055 540.901C46.8263 539.266 46.5489 537.523 46.5894 535.771C46.6298 534.019 46.9873 532.293 47.6412 530.691C48.2952 529.09 49.2329 527.644 50.4009 526.436C51.5688 525.229 52.9441 524.283 54.4482 523.653C55.9523 523.024 57.5558 522.722 59.1671 522.766C59.9084 522.763 60.6478 522.847 61.3727 523.015C62.1611 522.088 63.1193 521.351 64.1857 520.85C65.2522 520.35 66.4032 520.098 67.5646 520.111L119.333 521.564C119.763 521.581 120.19 521.639 120.61 521.737C121.745 521.967 122.822 522.459 123.768 523.179C124.714 523.899 125.507 524.832 126.093 525.913C126.68 526.995 127.046 528.2 127.169 529.449C127.291 530.698 127.165 531.96 126.801 533.151L117.805 605.001ZM62.9582 544.483L59.5693 531.289C59.1838 529.765 59.1749 528.158 59.5434 526.629C59.379 526.628 59.2339 526.543 59.0695 526.543C56.7458 526.491 54.4979 527.442 52.8187 529.189C51.1394 530.936 50.1659 533.336 50.1114 535.862C50.057 538.388 50.9263 540.835 52.5285 542.665C54.1306 544.496 56.3351 545.561 58.6584 545.627C60.1607 545.678 61.6472 545.282 62.9582 544.483Z" fill="#021E25"/>
<path d="M121.838 521.614C120.696 527.946 107.86 532.398 92.4259 531.624C78.2331 530.99 66.6283 526.155 64.5022 520.426C65.289 520.2 66.1072 520.094 66.9276 520.112L120.516 521.455C120.961 521.47 121.403 521.524 121.838 521.614Z" fill="#3F3D56"/>
<path d="M90.0677 576.158C89.9851 576.137 89.9066 576.102 89.8354 576.055L80.9764 570.185C80.8693 570.114 80.7814 570.018 80.7204 569.904C80.6595 569.79 80.6275 569.663 80.6275 569.533C80.6274 569.404 80.6593 569.277 80.7201 569.163C80.781 569.049 80.8689 568.952 80.976 568.882L90.1838 562.777C90.2683 562.72 90.363 562.681 90.4625 562.662C90.562 562.642 90.6643 562.643 90.7635 562.663C90.8628 562.684 90.9571 562.725 91.0409 562.782C91.1247 562.84 91.1964 562.914 91.252 562.999C91.3075 563.085 91.3458 563.181 91.3646 563.282C91.3834 563.383 91.3823 563.486 91.3615 563.587C91.3406 563.687 91.3004 563.782 91.2431 563.867C91.1857 563.951 91.1125 564.024 91.0275 564.08L82.8034 569.532L90.6781 574.751C90.8306 574.851 90.9427 575.004 90.9947 575.181C91.0466 575.357 91.0349 575.547 90.9617 575.716C90.8884 575.885 90.7584 576.022 90.5948 576.103C90.4311 576.184 90.2443 576.203 90.0677 576.158Z" fill="#71C9CE"/>
<path d="M100.92 576.158C100.771 576.12 100.636 576.038 100.534 575.922C100.431 575.806 100.366 575.662 100.345 575.508C100.324 575.355 100.349 575.198 100.417 575.059C100.484 574.919 100.592 574.804 100.725 574.726L108.91 569.987L100.999 564.052C100.918 563.991 100.849 563.914 100.797 563.826C100.745 563.738 100.711 563.641 100.696 563.54C100.681 563.439 100.686 563.336 100.711 563.236C100.736 563.137 100.78 563.044 100.84 562.962C100.9 562.88 100.976 562.81 101.063 562.758C101.15 562.705 101.246 562.671 101.347 562.656C101.447 562.641 101.549 562.646 101.647 562.671C101.745 562.696 101.838 562.74 101.919 562.801L110.776 569.446C110.879 569.523 110.961 569.625 111.015 569.742C111.07 569.859 111.094 569.989 111.087 570.118C111.079 570.247 111.04 570.372 110.972 570.482C110.905 570.592 110.811 570.683 110.7 570.748L101.493 576.079C101.32 576.179 101.114 576.208 100.92 576.158Z" fill="#71C9CE"/>
<path d="M90.1037 580.028C90.0375 580.012 89.9742 579.986 89.9161 579.951C89.8392 579.905 89.7722 579.845 89.719 579.774C89.6659 579.703 89.6276 579.622 89.6062 579.536C89.5849 579.451 89.581 579.362 89.5948 579.275C89.6086 579.187 89.6398 579.104 89.6866 579.029L100.859 561.035C100.954 560.883 101.106 560.774 101.282 560.733C101.459 560.691 101.645 560.719 101.8 560.812C101.955 560.904 102.066 561.053 102.109 561.226C102.152 561.399 102.124 561.581 102.029 561.733L90.8571 579.727C90.7808 579.85 90.6666 579.945 90.531 579.999C90.3954 580.053 90.2457 580.063 90.1037 580.028Z" fill="#71C9CE"/>
<path d="M628.9 517.022L628.626 517.961L628.611 517.992L620.345 545.197L610.835 576.547L592.943 635.462L592.77 644.614V644.645L591.44 718.265L595.125 728.246L590.978 744.609C590.978 744.609 592.885 719.874 603.117 734.079C608.913 742.151 615.691 750.411 621.255 758.155C613.147 761.706 604.909 764.918 596.542 767.791C594.735 768.417 592.914 769.011 591.093 769.606C590.703 769.731 590.313 769.856 589.922 769.981C562.184 778.861 533.508 783.85 504.596 784.827C503.093 784.874 501.619 784.905 500.188 784.937C499.682 784.952 499.191 784.968 498.699 784.968C497.081 784.984 495.477 784.999 493.858 784.999C490.592 784.999 487.34 784.947 484.103 784.843C460.141 784.112 436.32 780.625 413.04 774.44C413.199 764.037 413.633 751.881 414.255 738.897C414.544 732.53 421.033 725.631 421.423 718.967C421.697 713.961 415.873 709.252 416.177 704.168C418.142 672.864 420.599 684.881 422.42 662.714C422.608 660.539 422.781 658.458 422.94 656.472C424.111 642.236 424.92 633.334 424.92 633.334L417.145 580.286L404.933 496.998L405.872 495.325L406.927 494.761L471.341 460.251L474.839 450.552C475.858 447.758 477.626 445.357 479.915 443.659C482.205 441.962 484.911 441.044 487.687 441.025L530.119 440.837C532.321 440.826 534.494 441.384 536.457 442.464C538.42 443.544 540.116 445.116 541.406 447.048L552.896 464.271L628.9 517.022Z" fill="#021E25"/>
<path d="M582.316 621.968L592.063 644.03L598.718 659.099L610.166 722.495L615.897 728.929L620.808 706.151L672.202 718.221C673.888 708.314 672.654 718.556 673.694 707.688C673.401 707.378 673.093 707.068 672.786 706.758C671.965 705.952 671.276 705.192 671.29 704.464C671.877 666.975 670.118 603.177 655.43 564.526C653.13 558.215 650.097 552.231 646.401 546.712C646.108 546.293 645.829 545.875 645.551 545.456C638.779 535.425 634.499 525.549 628.43 518.526V518.51C628.392 518.478 628.358 518.442 628.327 518.402C628.305 518.39 628.286 518.375 628.269 518.355L586.581 494.976L584.793 548.123L583.517 586.324L582.316 621.968Z" fill="#021E25"/>
<path d="M433.602 628.398L421.577 656.1L417.381 665.747L406.079 729.474L400.437 735.926L395.577 713.034L393.293 712.529L352.106 703.344L340.101 744.397C337.395 739.542 336.329 733.831 337.083 728.228C337.837 722.626 340.365 717.475 344.239 713.647C345.059 712.849 345.742 712.071 345.723 711.335C345.04 667.008 347.558 586.068 370.298 552.754C377.521 542.182 381.854 531.652 388.159 524.296C388.179 524.275 388.179 524.254 388.198 524.254L403.541 497.204L404.478 495.543L405.532 494.976L433.602 628.398Z" fill="#021E25"/>
<path d="M507.062 427.302C475.396 427.302 449.726 400.034 449.726 366.397C449.726 332.76 475.396 305.492 507.062 305.492C538.727 305.492 564.397 332.76 564.397 366.397C564.397 400.034 538.727 427.302 507.062 427.302Z" fill="#9D5E5E"/>
<path d="M432.947 322.902C433.381 322.386 433.904 321.973 434.485 321.688C435.065 321.402 435.692 321.249 436.327 321.239L435.485 318.64C435.21 317.822 435.136 316.936 435.27 316.075C435.404 315.214 435.742 314.409 436.248 313.74C436.754 313.072 437.411 312.566 438.151 312.273C438.891 311.98 439.688 311.911 440.46 312.073L443.525 312.73L443.236 310.452C443.126 309.604 443.215 308.738 443.497 307.94C443.778 307.142 444.241 306.439 444.841 305.901C445.44 305.362 446.155 305.006 446.916 304.869C447.677 304.731 448.457 304.815 449.179 305.115C449.836 305.402 450.542 305.523 451.247 305.467C451.951 305.411 452.635 305.181 453.249 304.793C453.866 304.417 454.401 303.896 454.817 303.266C455.234 302.636 455.522 301.913 455.661 301.146L456.729 295.417L456.842 295.11C462.043 285.469 472.044 278.454 484.28 275.883C495.172 273.578 506.341 274.752 517.108 275.855C521.379 276.303 526.203 276.806 530.224 279.544C533.641 281.892 536.53 286.587 535.94 291.323C546.556 287.704 557.938 294.928 563.579 304.039C570.262 314.881 571.355 328.463 571.531 339.082C572.009 364.205 567.348 384.759 557.712 400.185C557.008 401.303 556.832 403.637 555.438 404.419L555.727 403.902C554.169 404.769 552.586 406.166 553.176 407.661C554.872 411.965 543.603 421.48 535.663 424.624C521.178 430.367 501.919 429.878 488.376 427.81L487.898 424.247C483.011 423.506 479.569 422.095 478.602 419.887C476.893 418.266 475.436 416.813 474.167 415.472L474.154 415.458C474.129 415.43 474.079 415.388 474.054 415.36C467.936 408.835 466.516 405.118 465.875 399.459C465.26 393.912 466.353 388.281 467.471 383.209C443.927 387.261 476.742 355.319 454.807 349.143C454.556 349.057 454.3 348.987 454.041 348.933C453.4 348.766 452.759 348.598 452.144 348.402C449.176 347.506 446.335 346.157 443.701 344.392C437.57 340.242 435.548 334.737 432.382 328.533C431.925 327.65 431.734 326.627 431.835 325.614C431.937 324.602 432.326 323.651 432.947 322.902Z" fill="#15141C"/>
<path d="M308.179 633.258C308.192 635.654 308.217 639.009 308.318 643.158C308.331 643.733 308.343 644.321 308.356 644.924C308.52 652.551 308.685 658.945 308.95 666.052C308.963 666.545 308.975 667.024 309.001 667.517C309.355 677.431 309.911 688.974 310.871 707.253C312.654 741.02 315.763 711.895 318.886 723.739C319.037 724.328 319.202 725.027 319.353 725.848C319.826 728.829 320.624 731.738 321.73 734.516C323.386 735.584 325.092 736.611 326.773 737.637C331.564 740.527 336.431 743.306 341.335 745.949C344.091 747.428 346.859 748.879 349.64 750.276C350.083 750.495 350.513 750.714 350.942 750.919C365.183 758.055 379.86 764.121 394.869 769.076C397.801 770.035 400.721 770.966 403.679 771.828C406.764 772.759 409.848 773.636 412.97 774.457C436.197 780.634 459.965 784.118 483.872 784.85C487.095 784.96 490.344 785.001 493.605 785.001C495.223 785.001 496.816 784.987 498.434 784.973C498.927 784.973 499.42 784.96 499.913 784.946C501.341 784.905 502.82 784.877 504.312 784.836C533.159 783.862 561.772 778.878 589.447 770.007L590.622 769.637C592.443 769.035 594.25 768.446 596.058 767.816C604.401 764.954 612.622 761.75 620.72 758.204C626.901 755.507 633.011 752.613 639.049 749.523C639.104 749.507 639.156 749.479 639.201 749.441C640.465 748.811 641.741 748.154 643.005 747.483C643.17 747.387 643.347 747.291 643.524 747.195C648.239 744.703 652.903 742.092 657.517 739.363C661.398 729.709 666.858 727.861 670.246 719.371C671.232 716.849 671.945 714.212 672.37 711.512C672.37 711.484 672.382 711.457 672.382 711.416C672.028 716.51 673.887 702.379 672.395 711.361C672.408 711.197 672.42 711.019 672.433 710.813C672.471 710.32 672.521 709.718 672.597 708.965C676.933 663.108 676.655 610.665 678.538 567.451C678.665 564.657 678.795 561.983 678.93 559.427C678.968 558.578 679.019 557.742 679.069 556.921C678.981 556.674 678.88 556.414 678.766 556.168C678.742 556.097 678.712 556.028 678.677 555.962C678.64 555.877 678.598 555.795 678.551 555.716C678.526 555.675 678.488 555.62 678.463 555.579C678.444 555.532 678.423 555.486 678.399 555.442C678.286 555.25 678.159 555.045 678.02 554.853C677.957 554.771 677.906 554.702 677.843 554.634C677.8 554.564 677.749 554.5 677.692 554.442C677.653 554.377 677.606 554.317 677.552 554.264C677.502 554.21 677.451 554.141 677.388 554.073C677.361 554.03 677.327 553.993 677.287 553.963C677.187 553.839 677.077 553.724 676.958 553.621C676.507 553.171 676.026 552.759 675.517 552.389C675.34 552.265 675.151 552.142 674.974 552.005C673.7 551.18 672.358 550.483 670.967 549.924C670.486 549.732 670.006 549.554 669.488 549.362C669.298 549.308 669.121 549.239 668.932 549.171C668.653 549.075 668.375 548.979 668.085 548.911C666.644 548.445 665.089 548.048 663.408 547.678C663.205 547.637 662.99 547.596 662.776 547.541C662.472 547.473 662.156 547.418 661.84 547.363C661.41 547.281 660.968 547.199 660.525 547.117C656.771 546.473 652.511 545.994 647.809 545.679C647.366 545.652 646.924 545.624 646.482 545.597C645.963 545.57 645.445 545.542 644.914 545.515C644.472 545.487 644.017 545.474 643.562 545.46C643.119 545.433 642.664 545.419 642.196 545.405C640.92 545.364 639.605 545.323 638.265 545.296C634.448 545.214 630.428 545.241 626.206 545.337C624.247 545.392 622.249 545.446 620.202 545.542C620.063 545.542 619.936 545.556 619.81 545.556C618.027 545.624 616.232 545.706 614.387 545.816C613.098 545.884 611.796 545.953 610.494 546.035C609.268 546.117 608.029 546.199 606.777 546.295C605.804 546.35 604.831 546.432 603.845 546.501C603.01 546.569 602.176 546.638 601.342 546.692L600.204 546.775C599.585 546.829 598.965 546.87 598.333 546.939C596.943 547.062 595.552 547.185 594.137 547.309C592.733 547.446 591.305 547.582 589.877 547.719C588.448 547.856 587.007 548.007 585.566 548.158C585.415 548.171 585.275 548.185 585.136 548.199C583.822 548.349 582.507 548.486 581.18 548.637C580.876 548.664 580.561 548.692 580.257 548.733C578.992 548.87 577.702 549.032 576.424 549.179C576.033 549.224 575.643 549.269 575.25 549.315C574.249 549.433 573.263 549.536 572.256 549.664C570.928 549.828 569.576 549.979 568.261 550.17C567.237 550.294 566.213 550.417 565.19 550.554C563.584 550.759 561.954 550.978 560.323 551.211C559.703 551.293 559.084 551.375 558.465 551.471C553.813 552.101 549.111 552.799 544.332 553.525C537.089 554.634 529.732 555.839 522.325 557.14C514.905 558.441 507.443 559.815 499.938 561.261C498.042 561.631 496.146 562.001 494.237 562.384C493.378 562.562 492.518 562.74 491.659 562.918C490.192 563.206 488.726 563.507 487.26 563.808C485.793 564.109 484.327 564.411 482.861 564.726C481.116 565.095 479.359 565.465 477.615 565.835C466.124 568.299 454.697 570.928 443.548 573.681C441.715 574.133 439.882 574.598 438.062 575.05C434.422 575.967 430.815 576.898 427.242 577.843C426.256 578.09 425.282 578.35 424.309 578.61C421.882 579.267 419.455 579.925 417.066 580.596L416.649 580.719C414.892 581.184 413.173 581.664 411.453 582.157C407.396 583.307 403.406 584.471 399.483 585.648C396.879 586.429 394.304 587.218 391.759 588.017C387.954 589.208 384.225 590.413 380.598 591.632C379.7 591.933 378.803 592.234 377.918 592.522C375.263 593.412 372.647 594.316 370.106 595.219C368.083 595.931 366.111 596.657 364.165 597.383C362.218 598.109 360.309 598.834 358.438 599.56C357.238 600.025 356.049 600.518 354.861 600.984C353.155 601.669 351.473 602.353 349.83 603.038C349.324 603.243 348.831 603.462 348.339 603.668C348.022 603.818 347.719 603.942 347.416 604.079C346.822 604.339 346.215 604.585 345.633 604.845C345.039 605.092 344.458 605.352 343.876 605.626C343.308 605.872 342.726 606.132 342.17 606.393C341.601 606.639 341.045 606.899 340.489 607.173C340.021 607.378 339.566 607.598 339.123 607.817C338.226 608.241 337.328 608.666 336.456 609.104C336.026 609.323 335.597 609.528 335.167 609.747L334.181 610.24C334.042 610.322 333.903 610.391 333.764 610.459C333.448 610.624 333.119 610.802 332.803 610.966C332.07 611.336 331.349 611.733 330.642 612.103C329.693 612.623 328.771 613.143 327.886 613.65C326.988 614.17 326.116 614.69 325.282 615.197C325.143 615.279 325.016 615.361 324.877 615.444C324.688 615.553 324.498 615.676 324.309 615.786C323.664 616.183 323.044 616.594 322.425 616.991C321.212 617.799 320.061 618.593 318.987 619.387C318.747 619.565 318.519 619.743 318.279 619.907C317.483 620.523 316.724 621.126 316.016 621.742C316.016 621.756 316.016 621.756 316.004 621.756C315.763 621.947 315.536 622.153 315.308 622.345C315.119 622.536 314.917 622.701 314.727 622.892C314.07 623.508 313.463 624.097 312.907 624.7C312.72 624.886 312.543 625.082 312.376 625.289C312.302 625.355 312.234 625.428 312.174 625.508C311.921 625.781 311.693 626.055 311.478 626.329C311.445 626.367 311.415 626.408 311.39 626.452C311.086 626.836 310.808 627.219 310.543 627.603C310.416 627.794 310.277 627.986 310.164 628.178C310.012 628.41 309.86 628.657 309.734 628.89C309.62 629.081 309.519 629.287 309.418 629.479C309.15 629.972 308.921 630.49 308.735 631.026C308.593 631.389 308.479 631.765 308.394 632.149C308.298 632.512 308.226 632.883 308.179 633.258Z" fill="#2F2E41"/>
<path opacity="0.2" d="M308.179 633.66C308.192 636.068 308.217 639.438 308.318 643.607C308.331 644.185 308.356 644.776 308.369 645.381C308.495 651.228 308.685 658.451 308.95 666.608C308.963 667.104 308.975 667.585 309.001 668.08C309.355 678.041 309.911 689.638 310.871 708.003C312.654 741.928 315.763 712.667 318.885 724.567C327.556 718.761 337.062 712.681 347.225 706.435C349.058 705.307 350.907 704.174 352.774 703.037C373.099 690.697 395.801 677.765 419.502 664.958C420.437 664.449 421.385 663.94 422.32 663.444C476.61 634.238 535.868 605.83 583.876 586.873C593.141 583.213 601.989 579.912 610.306 577.009C627.826 570.915 642.969 566.65 654.623 564.807C666.758 562.881 675.138 563.568 678.526 567.544C678.652 564.738 678.783 562.051 678.918 559.483C678.968 558.63 679.019 557.79 679.069 556.965C678.991 556.739 678.89 556.522 678.792 556.304C678.778 556.273 678.768 556.24 678.753 556.208C678.729 556.137 678.7 556.068 678.665 556.002C678.628 555.917 678.585 555.834 678.538 555.754C678.497 555.657 678.446 555.565 678.387 555.479C678.273 555.287 678.147 555.08 678.008 554.888C677.905 554.743 677.796 554.606 677.679 554.475C677.64 554.409 677.593 554.349 677.54 554.296C677.489 554.241 677.439 554.172 677.376 554.104C677.349 554.06 677.314 554.023 677.274 553.994C677.174 553.868 677.064 553.753 676.946 553.65C676.495 553.198 676.013 552.784 675.505 552.411C675.328 552.288 675.138 552.164 674.961 552.026C673.687 551.197 672.346 550.497 670.954 549.935C670.474 549.743 669.994 549.564 669.475 549.371C669.286 549.316 669.109 549.247 668.919 549.179C668.641 549.082 668.363 548.986 668.072 548.917C666.631 548.449 665.077 548.05 663.395 547.679C662.89 547.569 662.359 547.459 661.828 547.363C661.398 547.28 660.956 547.198 660.513 547.115C656.759 546.468 652.499 545.987 647.797 545.67C647.355 545.643 646.913 545.615 646.47 545.588C645.952 545.56 645.434 545.533 644.903 545.505C644.46 545.478 644.005 545.464 643.55 545.45C643.108 545.423 642.653 545.409 642.185 545.395C640.908 545.354 639.594 545.313 638.254 545.285C634.437 545.217 630.417 545.244 626.195 545.34C624.236 545.382 622.239 545.45 620.191 545.547C620.065 545.547 619.926 545.56 619.799 545.56C618.017 545.615 616.209 545.712 614.376 545.808C613.087 545.877 611.785 545.946 610.483 546.028C609.257 546.111 608.018 546.193 606.767 546.29C605.794 546.345 604.821 546.427 603.835 546.496C603 546.565 602.166 546.633 601.332 546.688C600.333 546.771 599.335 546.854 598.323 546.936C596.933 547.06 595.543 547.184 594.127 547.308C592.724 547.445 591.295 547.583 589.867 547.72C588.439 547.858 586.998 548.009 585.557 548.16C585.405 548.174 585.266 548.188 585.127 548.202C583.812 548.353 582.498 548.491 581.171 548.642C573.814 549.454 566.242 550.403 558.456 551.49C553.804 552.136 549.094 552.829 544.324 553.567C537.081 554.681 529.725 555.892 522.318 557.185C514.898 558.492 507.436 559.872 499.932 561.326C498.036 561.697 496.14 562.069 494.231 562.454C491.905 562.922 489.579 563.399 487.253 563.885C485.787 564.187 484.321 564.49 482.855 564.807C481.11 565.178 479.353 565.549 477.609 565.921C466.119 568.397 454.692 571.038 443.543 573.804C441.711 574.257 439.878 574.725 438.058 575.179C434.417 576.101 430.811 577.036 427.238 577.986C426.252 578.247 425.278 578.508 424.305 578.77C421.865 579.43 419.451 580.091 417.062 580.751V580.765C416.923 580.792 416.784 580.833 416.645 580.875C414.901 581.356 413.169 581.838 411.45 582.333C407.392 583.489 403.402 584.653 399.48 585.827C396.876 586.625 394.297 587.409 391.756 588.207C387.952 589.418 384.223 590.628 380.595 591.839C379.698 592.142 378.8 592.444 377.915 592.733C375.261 593.641 372.657 594.545 370.104 595.443C368.081 596.159 366.109 596.888 364.163 597.617C362.216 598.346 360.307 599.075 358.437 599.804C357.223 600.272 356.035 600.754 354.859 601.221C353.14 601.909 351.472 602.597 349.829 603.299C349.323 603.505 348.83 603.725 348.337 603.931C347.414 604.317 346.517 604.716 345.632 605.115C345.038 605.362 344.457 605.624 343.875 605.899C343.306 606.146 342.725 606.408 342.169 606.669C341.6 606.917 341.044 607.178 340.488 607.453C340.02 607.66 339.565 607.88 339.122 608.1C338.225 608.526 337.327 608.953 336.455 609.393C336.025 609.613 335.596 609.819 335.166 610.04L334.18 610.535C334.041 610.617 333.902 610.686 333.763 610.755C332.688 611.305 331.652 611.855 330.641 612.406C329.693 612.929 328.77 613.451 327.885 613.96C326.836 614.566 325.837 615.157 324.877 615.762C324.687 615.872 324.498 615.996 324.308 616.106C323.663 616.505 323.044 616.918 322.425 617.317C321.211 618.129 320.061 618.927 318.986 619.724C317.925 620.522 316.939 621.307 316.016 622.091C316.016 622.104 316.016 622.104 316.003 622.104C315.561 622.49 315.131 622.875 314.727 623.246C314.069 623.865 313.463 624.457 312.906 625.062C312.72 625.249 312.543 625.446 312.376 625.654C312.302 625.72 312.234 625.794 312.173 625.874C311.908 626.19 311.642 626.507 311.39 626.823C311.086 627.208 310.808 627.593 310.543 627.979C310.416 628.171 310.277 628.364 310.163 628.556C310.012 628.79 309.86 629.038 309.734 629.272C309.62 629.464 309.519 629.671 309.418 629.863C309.149 630.359 308.921 630.879 308.735 631.418C308.597 631.785 308.483 632.162 308.394 632.546C308.298 632.911 308.226 633.284 308.179 633.66Z" fill="black"/>
<path d="M615.394 457.226L801.468 456.305C804.662 456.286 807.748 455.137 810.049 453.11C812.35 451.083 813.677 448.344 813.741 445.493L816.336 321.576C816.377 319.488 815.488 317.49 813.864 316.022C812.241 314.553 810.015 313.733 807.675 313.742L615.31 314.694C612.93 314.708 610.63 315.565 608.915 317.076C607.2 318.586 606.211 320.628 606.163 322.752L603.571 446.533C603.515 449.384 604.728 452.111 606.945 454.115C609.161 456.12 612.2 457.239 615.394 457.226Z" fill="#E6E6E6"/>
<path d="M789.743 445.901L627.234 446.805C624.139 446.822 621.195 445.74 619.049 443.795C616.904 441.851 615.732 439.205 615.792 436.438L617.966 336.325C618.026 333.559 619.313 330.898 621.543 328.93C623.774 326.961 626.766 325.846 629.861 325.829L792.37 324.924C795.465 324.907 798.409 325.99 800.554 327.934C802.7 329.878 803.872 332.525 803.812 335.292L801.638 435.404C801.608 436.774 801.277 438.132 800.663 439.401C800.049 440.67 799.165 441.825 798.06 442.799C796.956 443.774 795.653 444.55 794.226 445.082C792.799 445.614 791.275 445.892 789.743 445.901Z" fill="white"/>
<path d="M780.005 371.769L788.099 371.669C788.538 371.663 788.964 371.499 789.282 371.213C789.601 370.926 789.787 370.541 789.8 370.141L790.021 362.768C790.032 362.369 789.869 361.987 789.567 361.709C789.265 361.43 788.849 361.276 788.41 361.281L780.316 361.38C779.877 361.386 779.452 361.55 779.133 361.837C778.814 362.123 778.628 362.509 778.615 362.908L778.395 370.281C778.383 370.681 778.546 371.062 778.848 371.341C779.15 371.62 779.566 371.774 780.005 371.769Z" fill="#71C9CE"/>
<path d="M779.005 390.515L787.099 390.415C787.538 390.41 787.964 390.245 788.282 389.959C788.601 389.672 788.787 389.287 788.8 388.887L789.021 381.514C789.032 381.115 788.869 380.733 788.567 380.455C788.265 380.176 787.849 380.022 787.41 380.027L779.316 380.126C778.877 380.132 778.452 380.296 778.133 380.583C777.814 380.869 777.628 381.255 777.615 381.654L777.395 389.027C777.383 389.427 777.546 389.808 777.848 390.087C778.15 390.366 778.566 390.52 779.005 390.515Z" fill="#3F3D56"/>
<path d="M779.157 408.789L787.192 408.834C787.628 408.836 788.047 408.688 788.357 408.423C788.667 408.157 788.843 407.796 788.846 407.419L788.898 400.459C788.9 400.082 788.729 399.719 788.423 399.451C788.117 399.182 787.701 399.03 787.265 399.027L779.23 398.982C778.794 398.98 778.375 399.128 778.065 399.393C777.755 399.658 777.579 400.019 777.576 400.397L777.524 407.356C777.522 407.734 777.693 408.097 777.999 408.365C778.305 408.634 778.722 408.786 779.157 408.789Z" fill="#CCCCCC"/>
<path d="M726.83 368.649L765.658 368.096C765.875 368.093 766.091 368.051 766.294 367.973C766.497 367.894 766.682 367.781 766.841 367.638C766.999 367.496 767.126 367.328 767.215 367.143C767.304 366.958 767.353 366.761 767.359 366.563C767.366 366.364 767.329 366.168 767.252 365.986C767.175 365.803 767.059 365.639 766.91 365.501C766.761 365.363 766.582 365.254 766.384 365.181C766.186 365.108 765.972 365.073 765.756 365.076L726.928 365.63C726.711 365.632 726.495 365.674 726.292 365.753C726.089 365.831 725.903 365.945 725.745 366.087C725.587 366.23 725.46 366.398 725.371 366.583C725.282 366.767 725.233 366.964 725.226 367.163C725.22 367.362 725.256 367.558 725.333 367.74C725.41 367.922 725.527 368.087 725.676 368.225C725.825 368.363 726.004 368.471 726.202 368.544C726.4 368.617 726.613 368.653 726.83 368.649Z" fill="#CCCCCC"/>
<path d="M726.98 386.925L765.573 386.956C766.007 386.956 766.426 386.805 766.737 386.536C767.048 386.266 767.226 385.9 767.231 385.519C767.236 385.137 767.068 384.771 766.765 384.501C766.461 384.231 766.046 384.079 765.612 384.079L727.019 384.048C726.804 384.047 726.59 384.084 726.39 384.156C726.19 384.228 726.007 384.333 725.853 384.467C725.698 384.6 725.575 384.759 725.49 384.934C725.405 385.108 725.36 385.296 725.358 385.485C725.355 385.674 725.395 385.861 725.475 386.036C725.556 386.211 725.674 386.37 725.825 386.504C725.976 386.637 726.155 386.743 726.354 386.816C726.552 386.888 726.765 386.925 726.98 386.925Z" fill="#CCCCCC"/>
<path d="M725.981 405.666L764.817 405.113C765.254 405.106 765.679 404.941 765.997 404.654C766.316 404.366 766.502 403.98 766.515 403.579C766.528 403.179 766.366 402.797 766.066 402.519C765.766 402.24 765.352 402.087 764.915 402.093L726.079 402.646C725.642 402.652 725.217 402.817 724.899 403.105C724.581 403.392 724.394 403.779 724.382 404.179C724.369 404.58 724.53 404.961 724.83 405.24C725.13 405.519 725.544 405.672 725.981 405.666Z" fill="#CCCCCC"/>
<path d="M631.185 388.692C631.134 388.072 631.101 387.447 631.091 386.817C630.964 378.603 634.486 370.602 640.883 364.574C647.28 358.546 656.027 354.984 665.201 354.673L665.712 387.52L631.185 388.692Z" fill="#71C9CE"/>
<path d="M668.312 390.184L667.923 357.25C674.635 357.002 681.222 358.533 686.87 361.655C692.518 364.777 696.982 369.352 699.71 374.818C702.438 380.284 703.312 386.401 702.223 392.414C701.134 398.427 698.131 404.074 693.583 408.658C689.035 413.242 683.142 416.563 676.63 418.211C670.118 419.859 663.272 419.763 656.936 417.933C650.6 416.104 645.052 412.622 640.974 407.916C636.897 403.211 634.47 397.487 633.992 391.452L668.312 390.184Z" fill="#3F3D56"/>
</svg>
