<?xml version="1.0" standalone="no"?><svg xmlns="http://www.w3.org/2000/svg" viewBox="0 0 1440 320"><path fill="#074f57" fill-opacity="1" d="M0,192L34.3,208C68.6,224,137,256,206,256C274.3,256,343,224,411,197.3C480,171,549,149,617,122.7C685.7,96,754,64,823,74.7C891.4,85,960,139,1029,176C1097.1,213,1166,235,1234,213.3C1302.9,192,1371,128,1406,96L1440,64L1440,320L1405.7,320C1371.4,320,1303,320,1234,320C1165.7,320,1097,320,1029,320C960,320,891,320,823,320C754.3,320,686,320,617,320C548.6,320,480,320,411,320C342.9,320,274,320,206,320C137.1,320,69,320,34,320L0,320Z"></path></svg>